<svg xmlns="http://www.w3.org/2000/svg" xmlns:xlink="http://www.w3.org/1999/xlink" width="107" height="107" viewBox="0 0 107 107">
  <defs>
    <clipPath id="clip-path">
      <path id="path1458" d="M0-682.665H69v69H0Z" transform="translate(0 682.665)"/>
    </clipPath>
  </defs>
  <g id="Grupo_156312" data-name="Grupo 156312" transform="translate(0)">
    <path id="Elipse_5845" data-name="Elipse 5845" d="M53.5,0A53.5,53.5,0,1,1,0,53.5,53.5,53.5,0,0,1,53.5,0Z" transform="translate(0)" fill="#ffae7e"/>
    <g id="g1452" transform="translate(19 701.712)">
      <g id="g1454" transform="translate(0 -682.665)">
        <g id="g1456" clip-path="url(#clip-path)">
          <g id="g1462" transform="translate(22.245 44.487)">
            <path id="path1464" d="M-73.03-126.081a8.221,8.221,0,0,1-8.211-8.213,8.221,8.221,0,0,1,8.211-8.213,8.221,8.221,0,0,1,8.211,8.213A8.221,8.221,0,0,1-73.03-126.081Zm0-12.382a4.174,4.174,0,0,0-4.168,4.17,4.174,4.174,0,0,0,4.168,4.17,4.174,4.174,0,0,0,4.168-4.17A4.174,4.174,0,0,0-73.03-138.463Z" transform="translate(81.241 142.506)"/>
          </g>
          <g id="g1466" transform="translate(28.435 16.066)">
            <path id="path1468" d="M-17.978-268.722A2.021,2.021,0,0,1-20-270.744v-28.42a2.021,2.021,0,0,1,2.021-2.022,2.021,2.021,0,0,1,2.021,2.022v28.42A2.021,2.021,0,0,1-17.978-268.722Z" transform="translate(20 301.186)"/>
          </g>
          <g id="g1470" transform="translate(14.16 0)">
            <path id="path1472" d="M-224.2-335.454a16.317,16.317,0,0,1-16.3-16.3,16.3,16.3,0,0,1,6.265-12.846v-29.74A10.062,10.062,0,0,1-224.2-404.454a10.044,10.044,0,0,1,10.032,10.034v29.82a16.3,16.3,0,0,1,6.265,12.846A16.317,16.317,0,0,1-224.2-335.454Zm0-64.957a6,6,0,0,0-5.989,5.991v30.846a2.021,2.021,0,0,1-.886,1.672,12.259,12.259,0,0,0-5.379,10.148A12.27,12.27,0,0,0-224.2-339.5a12.27,12.27,0,0,0,12.254-12.257,12.259,12.259,0,0,0-5.379-10.148,2.022,2.022,0,0,1-.886-1.672v-30.766A6.014,6.014,0,0,0-224.2-400.411Z" transform="translate(240.498 404.454)"/>
          </g>
          <g id="g1474" transform="translate(44.532 32.275)">
            <path id="path1476" d="M-11.714-15.957h-6.265A2.021,2.021,0,0,1-20-17.978,2.021,2.021,0,0,1-17.978-20h6.265a2.021,2.021,0,0,1,2.021,2.021A2.021,2.021,0,0,1-11.714-15.957Z" transform="translate(20 20)"/>
          </g>
          <g id="g1478" transform="translate(44.532 24.187)">
            <path id="path1480" d="M-11.714-15.957h-6.265A2.021,2.021,0,0,1-20-17.978,2.021,2.021,0,0,1-17.978-20h6.265a2.021,2.021,0,0,1,2.021,2.021A2.021,2.021,0,0,1-11.714-15.957Z" transform="translate(20 20)"/>
          </g>
          <g id="g1482" transform="translate(44.532 16.1)">
            <path id="path1484" d="M-11.714-15.957h-6.265A2.021,2.021,0,0,1-20-17.978,2.021,2.021,0,0,1-17.978-20h6.265a2.021,2.021,0,0,1,2.021,2.021A2.021,2.021,0,0,1-11.714-15.957Z" transform="translate(20 20)"/>
          </g>
          <g id="g1486" transform="translate(44.532 8.012)">
            <path id="path1488" d="M-11.714-15.957h-6.265A2.021,2.021,0,0,1-20-17.978,2.021,2.021,0,0,1-17.978-20h6.265a2.021,2.021,0,0,1,2.021,2.021A2.021,2.021,0,0,1-11.714-15.957Z" transform="translate(20 20)"/>
          </g>
        </g>
      </g>
    </g>
  </g>
</svg>
