<svg xmlns="http://www.w3.org/2000/svg" xmlns:xlink="http://www.w3.org/1999/xlink" width="107" height="107" viewBox="0 0 107 107">
  <defs>
    <clipPath id="clip-path">
      <path id="path1629" d="M0-682.665H66.134v66.134H0Z" transform="translate(0 682.665)"/>
    </clipPath>
  </defs>
  <g id="Grupo_156312" data-name="Grupo 156312" transform="translate(0)">
    <circle id="Elipse_5845" data-name="Elipse 5845" cx="53.5" cy="53.5" r="53.5" transform="translate(0)" fill="#ffae7e"/>
    <g id="g1623" transform="translate(18.866 703.098)">
      <g id="g1625" transform="translate(0 -682.665)">
        <g id="g1627" clip-path="url(#clip-path)">
          <g id="g1633" transform="translate(4.004 18.922)">
            <path id="path1635" d="M-22.445-206.089l11.722,18.946a13.609,13.609,0,0,1,1.841,6.824,13.578,13.578,0,0,1-13.563,13.563,13.578,13.578,0,0,1-13.563-13.563,13.564,13.564,0,0,1,1.81-6.774Zm0,35.458a9.7,9.7,0,0,0,9.688-9.688,9.684,9.684,0,0,0-1.291-4.836l-8.4-13.569-8.427,13.62a9.643,9.643,0,0,0-1.261,4.786A9.7,9.7,0,0,0-22.445-170.631Z" transform="translate(36.008 206.089)"/>
          </g>
          <g id="g1637" transform="translate(35.004 26.672)">
            <path id="path1639" d="M-22.445-206.089l11.722,18.946a13.609,13.609,0,0,1,1.841,6.824,13.643,13.643,0,0,1-13.563,13.692,13.643,13.643,0,0,1-13.563-13.692,13.564,13.564,0,0,1,1.81-6.774Zm0,35.587a9.764,9.764,0,0,0,9.688-9.817,9.684,9.684,0,0,0-1.291-4.836l-8.4-13.569-8.427,13.62a9.643,9.643,0,0,0-1.261,4.786A9.764,9.764,0,0,0-22.445-170.5Z" transform="translate(36.008 206.089)"/>
          </g>
          <g id="g1641" transform="translate(27.254 -0.065)">
            <path id="path1643" d="M-90.312-245.519A9.7,9.7,0,0,1-100-255.207a9.666,9.666,0,0,1,1.292-4.836l8.4-13.958,8.377,13.928a9.688,9.688,0,0,1,1.31,4.866A9.7,9.7,0,0,1-90.312-245.519Zm0-20.964-5.059,8.409a5.761,5.761,0,0,0-.754,2.867,5.819,5.819,0,0,0,5.813,5.813,5.819,5.819,0,0,0,5.813-5.813,5.782,5.782,0,0,0-.772-2.9Z" transform="translate(100 274.001)"/>
          </g>
        </g>
      </g>
    </g>
  </g>
</svg>
