<svg xmlns="http://www.w3.org/2000/svg" xmlns:xlink="http://www.w3.org/1999/xlink" width="107" height="107" viewBox="0 0 107 107">
  <defs>
    <clipPath id="clip-path">
      <path id="path1689" d="M0-682.665H63v63H0Z" transform="translate(0 682.665)"/>
    </clipPath>
  </defs>
  <g id="Grupo_156312" data-name="Grupo 156312" transform="translate(0)">
    <circle id="Elipse_5845" data-name="Elipse 5845" cx="53.5" cy="53.5" r="53.5" transform="translate(0)" fill="#ffae7e"/>
    <g id="g1683" transform="translate(22 704.665)">
      <g id="g1685" transform="translate(0 -682.665)">
        <g id="g1687" transform="translate(0 0)" clip-path="url(#clip-path)">
          <g id="g1693" transform="translate(0 38.817)">
            <path id="path1695" d="M-106.612-107.219l5.517,8.924a6.473,6.473,0,0,1,.974,3.419,6.5,6.5,0,0,1-6.491,6.491,6.5,6.5,0,0,1-6.491-6.491,6.477,6.477,0,0,1,.976-3.423Zm0,15.143a2.8,2.8,0,0,0,2.8-2.8,2.789,2.789,0,0,0-.42-1.474l-2.379-3.849-2.377,3.845a2.793,2.793,0,0,0-.422,1.478A2.8,2.8,0,0,0-106.612-92.076Z" transform="translate(113.102 107.219)"/>
          </g>
          <g id="g1697" transform="translate(16.673 38.817)">
            <path id="path1699" d="M-106.612-107.219l5.517,8.924a6.473,6.473,0,0,1,.974,3.419,6.5,6.5,0,0,1-6.491,6.491,6.5,6.5,0,0,1-6.491-6.491,6.477,6.477,0,0,1,.976-3.423Zm0,15.143a2.8,2.8,0,0,0,2.8-2.8,2.789,2.789,0,0,0-.42-1.474l-2.379-3.849-2.377,3.845a2.793,2.793,0,0,0-.422,1.478A2.8,2.8,0,0,0-106.612-92.076Z" transform="translate(113.102 107.219)"/>
          </g>
          <g id="g1701" transform="translate(33.346 38.817)">
            <path id="path1703" d="M-106.612-107.219l5.517,8.924a6.473,6.473,0,0,1,.974,3.419,6.5,6.5,0,0,1-6.491,6.491,6.5,6.5,0,0,1-6.491-6.491,6.477,6.477,0,0,1,.976-3.423Zm0,15.143a2.8,2.8,0,0,0,2.8-2.8,2.789,2.789,0,0,0-.42-1.474l-2.379-3.849-2.377,3.845a2.793,2.793,0,0,0-.422,1.478A2.8,2.8,0,0,0-106.612-92.076Z" transform="translate(113.102 107.219)"/>
          </g>
          <g id="g1705" transform="translate(50.019 38.817)">
            <path id="path1707" d="M-106.612-107.219l5.517,8.924a6.473,6.473,0,0,1,.974,3.419,6.5,6.5,0,0,1-6.491,6.491,6.5,6.5,0,0,1-6.491-6.491,6.477,6.477,0,0,1,.976-3.423Zm0,15.143a2.8,2.8,0,0,0,2.8-2.8,2.789,2.789,0,0,0-.42-1.474l-2.379-3.849-2.377,3.845a2.793,2.793,0,0,0-.422,1.478A2.8,2.8,0,0,0-106.612-92.076Z" transform="translate(113.102 107.219)"/>
          </g>
          <path id="path1709" d="M502-258.349h3.691v-3.691H502Z" transform="translate(-455.672 300.858)"/>
          <path id="path1711" d="M321.333-258.349h3.691v-3.691h-3.691Z" transform="translate(-291.678 300.858)"/>
          <path id="path1713" d="M140.666-258.349h3.691v-3.691h-3.691Z" transform="translate(-127.685 300.858)"/>
          <path id="path1715" d="M502-54.267h3.691v-3.691H502Z" transform="translate(-455.672 115.61)"/>
          <path id="path1717" d="M321.333-54.267h3.691v-3.691h-3.691Z" transform="translate(-291.678 115.61)"/>
          <path id="path1719" d="M140.666-54.267h3.691v-3.691h-3.691Z" transform="translate(-127.685 115.61)"/>
          <g id="g1721" transform="translate(0 1.657)">
            <path id="path1723" d="M-527.9-149.223h-44.543a9.239,9.239,0,0,1-9.229-9.229,9.272,9.272,0,0,1,7.884-9.117,11.189,11.189,0,0,1,10.573-7.494h.114a14.779,14.779,0,0,1,12.929-7.63,14.779,14.779,0,0,1,12.929,7.63h.114a11.189,11.189,0,0,1,10.574,7.495,9.271,9.271,0,0,1,7.883,9.117A9.239,9.239,0,0,1-527.9-149.223Zm-35.315-22.148a7.457,7.457,0,0,0-7.327,5.905l-.3,1.479h-1.509a5.59,5.59,0,0,0-5.63,5.535,5.543,5.543,0,0,0,5.537,5.537H-527.9a5.543,5.543,0,0,0,5.537-5.537,5.589,5.589,0,0,0-5.629-5.535H-529.5l-.3-1.479a7.457,7.457,0,0,0-7.327-5.906,7.5,7.5,0,0,0-.976.067l-1.372.181-.558-1.266A11.086,11.086,0,0,0-550.168-179a11.086,11.086,0,0,0-10.137,6.61l-.558,1.266-1.372-.181A7.394,7.394,0,0,0-563.211-171.371Z" transform="translate(581.668 182.692)"/>
          </g>
        </g>
      </g>
    </g>
  </g>
</svg>
