<svg xmlns="http://www.w3.org/2000/svg" xmlns:xlink="http://www.w3.org/1999/xlink" width="107" height="107" viewBox="0 0 107 107">
  <defs>
    <clipPath id="clip-path">
      <path id="path1086" d="M0-682.665H72.772v72.772H0Z" transform="translate(0 682.665)"/>
    </clipPath>
  </defs>
  <g id="Grupo_156312" data-name="Grupo 156312" transform="translate(0)">
    <circle id="Elipse_5845" data-name="Elipse 5845" cx="53.5" cy="53.5" r="53.5" transform="translate(0)" fill="#ffae7e"/>
    <g id="g1080" transform="translate(17.114 697.29)">
      <g id="g1082" transform="translate(0 -682.665)">
        <g id="g1084" clip-path="url(#clip-path)">
          <g id="g1090" transform="translate(12.662 27.29)">
            <path id="path1092" d="M-104.86,15.663A16.429,16.429,0,0,1-121.27-.747a16.453,16.453,0,0,1,1.825-7.526,1.421,1.421,0,0,1,1.915-.61,1.421,1.421,0,0,1,.61,1.915,13.413,13.413,0,0,0-1.507,6.221A13.583,13.583,0,0,0-104.86,12.821,13.583,13.583,0,0,0-91.292-.747,13.583,13.583,0,0,0-104.86-14.315a13.635,13.635,0,0,0-3.154.369A1.421,1.421,0,0,1-109.726-15a1.421,1.421,0,0,1,1.054-1.712,16.481,16.481,0,0,1,3.812-.446A16.429,16.429,0,0,1-88.45-.747,16.429,16.429,0,0,1-104.86,15.663Z" transform="translate(121.27 17.157)"/>
          </g>
          <g id="g1094" transform="translate(18.347 32.975)">
            <path id="path1096" d="M-89.884-13.333A10.737,10.737,0,0,1-79.159-2.608,10.737,10.737,0,0,1-89.884,8.117,10.737,10.737,0,0,1-100.609-2.608,10.737,10.737,0,0,1-89.884-13.333Zm0,18.607A7.891,7.891,0,0,0-82-2.608a7.891,7.891,0,0,0-7.882-7.882,7.891,7.891,0,0,0-7.882,7.882A7.891,7.891,0,0,0-89.884,5.274Z" transform="translate(100.609 13.333)"/>
          </g>
          <g id="g1098" transform="translate(-0.001 55.239)">
            <path id="path1100" d="M-112.4-17.89a3.066,3.066,0,0,1,2.183.9l2.355,2.355a3.09,3.09,0,0,1,0,4.365l-9.008,9.008a3.066,3.066,0,0,1-2.183.9,3.066,3.066,0,0,1-2.183-.9l-2.355-2.355a3.09,3.09,0,0,1,0-4.365l9.008-9.008A3.066,3.066,0,0,1-112.4-17.89ZM-119.053-3.2a.24.24,0,0,0,.173-.069l9.008-9.008a.25.25,0,0,0,0-.345l-2.355-2.355a.24.24,0,0,0-.173-.069.239.239,0,0,0-.173.069l-9.008,9.008a.251.251,0,0,0,0,.345l2.355,2.355A.239.239,0,0,0-119.053-3.2Z" transform="translate(124.493 17.89)"/>
          </g>
          <g id="g1102" transform="translate(13.027 52.878)">
            <path id="path1104" d="M-11.912-44.224a1.417,1.417,0,0,1-1.005-.416,1.421,1.421,0,0,1,0-2.01l4.025-4.025a1.421,1.421,0,0,1,2.01,0,1.421,1.421,0,0,1,0,2.01l-4.025,4.025A1.417,1.417,0,0,1-11.912-44.224Z" transform="translate(13.333 51.092)"/>
          </g>
          <g id="g1106" transform="translate(28.709 0)">
            <path id="path1108" d="M4.116-214.4a1.422,1.422,0,0,1-.345-.042l-4.158-1.039a1.421,1.421,0,0,1-1.034-1.724A1.421,1.421,0,0,1,.3-218.24l3.743.936,18.3-6.441,5.424-12.567-7.9-19.93L7.375-265.3l-9.6,5.546-6.964,12.139-1.327,8.045a1.421,1.421,0,0,1-1.634,1.171,1.421,1.421,0,0,1-1.171-1.634l1.368-8.3a1.422,1.422,0,0,1,.17-.476L-4.5-261.5a1.421,1.421,0,0,1,.522-.523l10.726-6.2a1.421,1.421,0,0,1,1.545.08l13.579,9.84a1.422,1.422,0,0,1,.487.627l8.265,20.861a1.421,1.421,0,0,1-.016,1.087l-5.9,13.678a1.421,1.421,0,0,1-.833.777l-19.286,6.79A1.421,1.421,0,0,1,4.116-214.4Z" transform="translate(13.335 268.411)"/>
          </g>
          <g id="g1110" transform="translate(48.145 0.636)">
            <path id="path1112" d="M-127.722-86.521a1.421,1.421,0,0,1-.832-.269l-7.085-5.117a1.421,1.421,0,0,1-.583-1.018l-.629-6.645a1.421,1.421,0,0,1,1.281-1.549,1.421,1.421,0,0,1,1.549,1.281l.568,6,5.9,4.263,4.709-2.075a1.421,1.421,0,0,1,1.874.727,1.421,1.421,0,0,1-.727,1.874l-5.454,2.4A1.42,1.42,0,0,1-127.722-86.521Z" transform="translate(136.857 101.126)"/>
          </g>
          <g id="g1114" transform="translate(55.858 12.398)">
            <path id="path1116" d="M-3.969,21.017A1.421,1.421,0,0,1-5.254,20.2L-11.622,6.8a1.421,1.421,0,0,1-.132-.487L-13.329-11.79a1.421,1.421,0,0,1,1.293-1.539A1.421,1.421,0,0,1-10.5-12.036l1.552,17.85,6.258,13.17a1.421,1.421,0,0,1-.674,1.894A1.416,1.416,0,0,1-3.969,21.017Z" transform="translate(13.334 13.334)"/>
          </g>
          <g id="g1118" transform="translate(42.768 30.504)">
            <path id="path1120" d="M-9.137-138.014a1.416,1.416,0,0,1-.585-.127,1.421,1.421,0,0,1-.709-1.881l2.856-6.314a1.421,1.421,0,0,1,.739-.722l11.808-5.018a1.421,1.421,0,0,1,1.864.752,1.421,1.421,0,0,1-.752,1.864l-11.3,4.8-2.628,5.808A1.422,1.422,0,0,1-9.137-138.014Z" transform="translate(10.558 152.19)"/>
          </g>
          <g id="g1122" transform="translate(34.078 14.268)">
            <path id="path1124" d="M-108.687-188.621A1.421,1.421,0,0,1-110.1-189.9l-1.925-19.8-3.958.487-2.863,12.557a1.421,1.421,0,0,1-1.7,1.07,1.421,1.421,0,0,1-1.07-1.7l3.084-13.53a1.421,1.421,0,0,1,1.212-1.095l6.4-.787a1.421,1.421,0,0,1,1.063.3,1.421,1.421,0,0,1,.526.971l2.066,21.255a1.421,1.421,0,0,1-1.277,1.552C-108.594-188.623-108.641-188.621-108.687-188.621Z" transform="translate(121.653 212.718)"/>
          </g>
          <g id="g1126" transform="translate(37.163 6.407)">
            <path id="path1128" d="M-11.911-82.967h-.032a1.421,1.421,0,0,1-1.389-1.453l.192-8.648a1.421,1.421,0,0,1,1.453-1.389A1.421,1.421,0,0,1-10.3-93l-.192,8.648A1.421,1.421,0,0,1-11.911-82.967Z" transform="translate(13.333 94.457)"/>
          </g>
          <g id="g1130" transform="translate(43.558 7.281)">
            <path id="path1132" d="M-11.914-69.043a1.415,1.415,0,0,1-.849-.282,1.421,1.421,0,0,1-.289-1.989L-7.837-78.3a1.421,1.421,0,0,1,1.989-.289A1.421,1.421,0,0,1-5.559-76.6l-5.215,6.986A1.419,1.419,0,0,1-11.914-69.043Z" transform="translate(13.334 78.873)"/>
          </g>
          <g id="g1134" transform="translate(19.827 31.9)">
            <path id="path1136"/>
          </g>
        </g>
      </g>
    </g>
  </g>
</svg>
