<svg xmlns="http://www.w3.org/2000/svg" width="107" height="107" viewBox="0 0 107 107">
  <g id="Grupo_156312" data-name="Grupo 156312" transform="translate(0)">
    <circle id="Elipse_5845" data-name="Elipse 5845" cx="53.5" cy="53.5" r="53.5" transform="translate(0)" fill="#ffae7e"/>
    <g id="_x30_5" transform="translate(18.753 22.876)">
      <path id="Trazado_828832" data-name="Trazado 828832" d="M49.987,28.5a2.731,2.731,0,0,1-3.286,0,6.819,6.819,0,0,0-8.528,0,2.737,2.737,0,0,1-3.286,0,6.816,6.816,0,0,0-8.526,0,2.737,2.737,0,0,1-3.286,0,6.817,6.817,0,0,0-8.53,0,2.734,2.734,0,0,1-3.284,0,6.816,6.816,0,0,0-8.526,0,2.044,2.044,0,1,0,2.62,3.139,2.737,2.737,0,0,1,3.286,0,6.813,6.813,0,0,0,8.526,0,2.731,2.731,0,0,1,3.288,0,6.816,6.816,0,0,0,8.526,0,2.737,2.737,0,0,1,3.286,0,6.816,6.816,0,0,0,8.526,0,2.731,2.731,0,0,1,3.286,0,6.816,6.816,0,0,0,8.528,0,2.737,2.737,0,0,1,3.286,0,2.044,2.044,0,1,0,2.62-3.139,6.816,6.816,0,0,0-8.526,0Z" transform="translate(0 26.114)"/>
      <path id="Trazado_828833" data-name="Trazado 828833" d="M31.777,13.579a2.044,2.044,0,1,0,2.891-2.891L30.579,6.6a2.044,2.044,0,0,0-2.891,0L23.6,10.688a2.044,2.044,0,0,0,2.891,2.891l.6-.6V39.911l-.6-.6A2.044,2.044,0,1,0,23.6,42.2l4.089,4.089a2.044,2.044,0,0,0,2.891,0L34.668,42.2a2.044,2.044,0,0,0-2.891-2.891l-.6.6V12.98Z" transform="translate(21.936 4.178)"/>
      <path id="Trazado_828834" data-name="Trazado 828834" d="M4.045,35.4A2.038,2.038,0,0,0,5.6,34.687L16.428,22.052s4.758,4.691,4.85,4.757l-4.472,5.218a2.044,2.044,0,1,0,3.1,2.662l10.716-12.5,10.716,12.5a2.044,2.044,0,1,0,3.1-2.662L32.175,17.714a2.11,2.11,0,0,0-3.1,0L23.9,23.747s-.005-.01-.01-.015L17.758,17.6a2.044,2.044,0,0,0-3,.115L2.493,32.026A2.045,2.045,0,0,0,4.045,35.4Z" transform="translate(0 15.668)"/>
      <path id="Trazado_828835" data-name="Trazado 828835" d="M24.045,6.089h1.2a4.9,4.9,0,0,1,3.49,1.447,2.046,2.046,0,0,0,2.891,0,4.9,4.9,0,0,1,3.49-1.447h1.2a2.045,2.045,0,0,0,0-4.089h-1.2a8.964,8.964,0,0,0-4.936,1.467A8.965,8.965,0,0,0,25.243,2h-1.2a2.045,2.045,0,0,0,0,4.089Z" transform="translate(20.891 0)"/>
    </g>
  </g>
</svg>
