<svg xmlns="http://www.w3.org/2000/svg" width="96.126" height="96.144" viewBox="0 0 96.126 96.144">
  <g id="hidroponia" transform="translate(0 0.011)">
    <path id="Trazado_828925" data-name="Trazado 828925" d="M84.31,30h-73.7A9.613,9.613,0,0,0,1,39.613V62.042a9.613,9.613,0,0,0,9.613,9.613h29.4a7.437,7.437,0,0,1-.561-2.82c0-3.076,4.246-9.308,6.553-12.48a1.834,1.834,0,0,1,2.916,0c2.307,3.172,6.553,9.4,6.553,12.48a7.437,7.437,0,0,1-.561,2.82h29.4a9.613,9.613,0,0,0,9.613-9.613V39.613A9.613,9.613,0,0,0,84.31,30ZM47.461,49.225c-13.265,0-24.032-2.868-24.032-6.408S34.2,36.408,47.461,36.408s24.032,2.868,24.032,6.408S60.727,49.225,47.461,49.225Z" transform="translate(0.602 18.07)" fill="#9e9e9e"/>
    <path id="Trazado_828926" data-name="Trazado 828926" d="M54.806,30H50a9.613,9.613,0,0,1,9.613,9.613V62.042A9.613,9.613,0,0,1,50,71.655h4.806a9.613,9.613,0,0,0,9.613-9.613V39.613A9.613,9.613,0,0,0,54.806,30Z" transform="translate(30.105 18.07)" fill="#707070"/>
    <ellipse id="Elipse_5933" data-name="Elipse 5933" cx="24.032" cy="6.408" rx="24.032" ry="6.408" transform="translate(24.032 54.478)" fill="#3f51b5"/>
    <path id="Trazado_828927" data-name="Trazado 828927" d="M30.9,34q-1.216,0-2.4.032c12.138.32,21.628,3.044,21.628,6.376S40.638,46.463,28.5,46.785q1.187.032,2.4.032c13.265,0,24.032-2.868,24.032-6.408S44.169,34,30.9,34Z" transform="translate(17.16 20.478)" fill="#283593"/>
    <path id="Trazado_828928" data-name="Trazado 828928" d="M41.021,59.2a7.437,7.437,0,0,1-.561,2.82,8.171,8.171,0,0,1-14.9,0A7.437,7.437,0,0,1,25,59.2c0-3.076,4.246-9.308,6.553-12.48a1.834,1.834,0,0,1,2.916,0C36.775,49.893,41.021,56.125,41.021,59.2Z" transform="translate(15.053 27.704)" fill="#00bcd4"/>
    <path id="Trazado_828929" data-name="Trazado 828929" d="M32.361,46.721a1.834,1.834,0,0,0-2.916,0c-.288.4-.607.843-.945,1.323,2.358,3.364,5.607,8.466,5.607,11.157a7.437,7.437,0,0,1-.561,2.82A7.9,7.9,0,0,1,28.5,66.478a8.4,8.4,0,0,0,2.4.349,8.023,8.023,0,0,0,7.45-4.806,7.437,7.437,0,0,0,.561-2.82C38.914,56.125,34.668,49.893,32.361,46.721Z" transform="translate(17.16 27.704)" fill="#00838f"/>
    <path id="Trazado_828930" data-name="Trazado 828930" d="M58.917,29.983c-10.574,8.6-28.883,3.61-28.883,3.61s-1.163-18.94,9.411-27.542,28.883-3.61,28.883-3.61S69.491,21.38,58.917,29.983Z" transform="translate(18.061 0.609)" fill="#a4c400"/>
    <path id="Trazado_828931" data-name="Trazado 828931" d="M64.8,2.436a49.782,49.782,0,0,0-14.15-1.373A49.185,49.185,0,0,1,60,2.436s1.163,18.94-9.411,27.543a25.389,25.389,0,0,1-14.731,4.979c6.088.32,13.906-.4,19.546-4.984,10.566-8.6,9.4-27.539,9.4-27.539Z" transform="translate(21.587 0.615)" fill="#90ac00"/>
    <path id="Trazado_828932" data-name="Trazado 828932" d="M15.5,29.983c10.574,8.6,28.883,3.61,28.883,3.61s1.163-18.94-9.411-27.542S6.092,2.441,6.092,2.441,4.929,21.38,15.5,29.983Z" transform="translate(3.645 0.609)" fill="#a4c400"/>
    <path id="Trazado_828933" data-name="Trazado 828933" d="M31.448,6.051C25.818,1.469,17.995.743,11.91,1.067A25.385,25.385,0,0,1,26.649,6.051c10.574,8.6,9.412,27.542,9.412,27.542a49.294,49.294,0,0,1-9.345,1.375,49.765,49.765,0,0,0,14.151-1.375S42.023,14.653,31.448,6.051Z" transform="translate(7.171 0.609)" fill="#90ac00"/>
    <path id="Trazado_828934" data-name="Trazado 828934" d="M84.912,46.468H49.665V36.214A52.271,52.271,0,0,0,59.9,37.269c5.9,0,12.817-1.146,18.088-5.426,11.088-9.026,10.048-28.083,10-28.891A1.6,1.6,0,0,0,86.81,1.51C86.033,1.289,67.582-3.6,56.5,5.417a26.973,26.973,0,0,0-8.433,14.241A26.973,26.973,0,0,0,39.63,5.417C28.545-3.6,10.093,1.289,9.316,1.5A1.6,1.6,0,0,0,8.139,2.947c-.05.8-1.086,19.866,10,28.884,5.263,4.282,12.186,5.426,18.088,5.426a52.272,52.272,0,0,0,10.236-1.043V46.468H11.215A11.228,11.228,0,0,0,0,57.683V80.112A11.228,11.228,0,0,0,11.215,91.327H39.631a9.8,9.8,0,0,0,16.864,0H84.912A11.228,11.228,0,0,0,96.126,80.112V57.683A11.228,11.228,0,0,0,84.912,46.468ZM58.517,7.9c8.342-6.787,22.237-4.452,26.3-3.571.03,4.165-.513,18.238-8.852,25.023-8.055,6.554-21.263,4.6-25.823,3.675A37.251,37.251,0,0,1,74.089,14.378a1.6,1.6,0,1,0-.775-3.108A40.12,40.12,0,0,0,49.976,27.116c.65-6,2.651-14.421,8.541-19.212ZM20.159,29.349C11.82,22.564,11.277,8.485,11.308,4.333c4.073-.881,17.961-3.214,26.3,3.571C43.5,12.7,45.493,21.113,46.15,27.116A40.12,40.12,0,0,0,22.812,11.27a1.6,1.6,0,1,0-.775,3.108A37.255,37.255,0,0,1,45.98,33.025c-4.56.931-17.766,2.877-25.821-3.675Zm27.9,63.58A6.234,6.234,0,0,1,41.655,86.9c0-1.825,2.392-6.248,6.248-11.527a.21.21,0,0,1,.16-.069.205.205,0,0,1,.16.069c3.845,5.287,6.248,9.7,6.248,11.535a6.234,6.234,0,0,1-6.408,6.019ZM92.922,80.112a8.02,8.02,0,0,1-8.011,8.011H57.581a8.777,8.777,0,0,0,.095-1.221c0-2.656-2.307-7.169-6.86-13.414a3.429,3.429,0,0,0-5.506,0c-4.552,6.245-6.859,10.758-6.859,13.414a8.775,8.775,0,0,0,.095,1.221H11.215A8.02,8.02,0,0,1,3.2,80.112V57.683a8.02,8.02,0,0,1,8.011-8.011H46.461V52.9c-11.865.207-24.032,2.724-24.032,7.99,0,5.5,13.288,8.011,25.634,8.011S73.7,66.392,73.7,60.887c0-5.266-12.166-7.783-24.032-7.99V49.672H84.912a8.02,8.02,0,0,1,8.011,8.011ZM48.063,62.489a1.6,1.6,0,0,0,1.6-1.6V56.1c13.735.234,20.827,3.4,20.827,4.784,0,1.442-7.631,4.806-22.429,4.806s-22.429-3.364-22.429-4.806c0-1.384,7.093-4.55,20.827-4.784v4.784A1.6,1.6,0,0,0,48.063,62.489Z" transform="translate(0 0)"/>
    <circle id="Elipse_5934" data-name="Elipse 5934" cx="1.602" cy="1.602" r="1.602" transform="translate(44.859 86.521)" fill="#f5f5f5"/>
  </g>
</svg>
