<svg xmlns="http://www.w3.org/2000/svg" xmlns:xlink="http://www.w3.org/1999/xlink" width="117.581" height="117.581" viewBox="0 0 117.581 117.581">
  <defs>
    <clipPath id="clip-path">
      <path id="path243" d="M0-682.665H117.581v117.581H0Z" transform="translate(0 682.665)"/>
    </clipPath>
  </defs>
  <g id="g237" transform="translate(0 682.665)">
    <g id="g239" transform="translate(0 -682.665)">
      <g id="g241" clip-path="url(#clip-path)">
        <g id="g247" transform="translate(2.297 95.534)">
          <path id="path249" d="M-248.527,0h-51.713V9.186a4.592,4.592,0,0,0,4.593,4.593s55.364,0,55.486-.014Z" transform="translate(300.239)" fill="#eefaff"/>
        </g>
        <g id="g251" transform="translate(65.218 71.45)">
          <path id="path253" d="M-90.954-93.675l3.81-3.81a9.187,9.187,0,0,0,0-12.991,9.187,9.187,0,0,0-12.991,0l-8.364,8.364-1.38,1.378,3.67,22.313a9.161,9.161,0,0,0,6.9,3.119h16.535V-93.675Z" transform="translate(109.88 113.166)" fill="#eefaff"/>
        </g>
        <g id="g255" transform="translate(2.296 49.604)">
          <path id="path257" d="M0,0V45.93H51.713L64.3,32.9V0Z" fill="#ff7d97"/>
        </g>
        <g id="g259" transform="translate(92.319 90.941)">
          <path id="path261" d="M-66.221,0a9.186,9.186,0,0,1,9.186,9.186,9.186,9.186,0,0,1-9.186,9.186H-80V0Z" transform="translate(80)" fill="#ff7d97"/>
        </g>
        <g id="g263" transform="translate(52.784 83.882)">
          <path id="path265" d="M-122.195-62.435l-9.744,9.744a9.185,9.185,0,0,1-12.991,0,9.186,9.186,0,0,1,0-12.991l9.744-9.744Z" transform="translate(147.621 75.426)" fill="#fff2a0"/>
        </g>
        <g id="g267" transform="translate(6.889 8.267)">
          <path id="path269" d="M0-88.294v-13.779a4.592,4.592,0,0,1,4.593-4.593h45.93a4.592,4.592,0,0,1,4.593,4.593v13.779Z" transform="translate(0 106.666)" fill="#ff7d97"/>
        </g>
        <g id="g271" transform="translate(2.296 26.639)">
          <path id="path273" d="M-264.883-44.147h-4.593v-9.186H-306.22v9.186h-4.593A9.186,9.186,0,0,0-320-34.961v4.593h64.3v-4.593a9.186,9.186,0,0,0-9.186-9.186" transform="translate(319.999 53.333)" fill="#eefaff"/>
        </g>
        <g id="g275" transform="translate(20.668 58.79)">
          <path id="path277" d="M-132.442-44.147v9.186h-9.186v9.186h-9.186v-9.186H-160v-9.186h9.186v-9.186h9.186v9.186Z" transform="translate(160 53.333)" fill="#eefaff"/>
        </g>
        <g id="g279" transform="translate(4.593 5.971)">
          <path id="path281" d="M-9.254-97.035H-64.37a2.3,2.3,0,0,1-2.3-2.3V-113.11A6.9,6.9,0,0,1-59.777-120h45.93a6.9,6.9,0,0,1,6.89,6.89v13.779A2.3,2.3,0,0,1-9.254-97.035Zm-52.819-4.593H-11.55V-113.11a2.3,2.3,0,0,0-2.3-2.3h-45.93a2.3,2.3,0,0,0-2.3,2.3Z" transform="translate(66.666 120)"/>
        </g>
        <g id="g283" transform="translate(50.523 24.343)">
          <path id="path285" d="M-11.037.446a2.3,2.3,0,0,1-2.3-2.3v-9.186a2.3,2.3,0,0,1,2.3-2.3,2.3,2.3,0,0,1,2.3,2.3v9.186A2.3,2.3,0,0,1-11.037.446Z" transform="translate(13.333 13.333)"/>
        </g>
        <g id="g287" transform="translate(13.779 24.343)">
          <path id="path289" d="M-11.037-52.888a2.3,2.3,0,0,1-2.3-2.3V-64.37a2.3,2.3,0,0,1,2.3-2.3,2.3,2.3,0,0,1,2.3,2.3v9.186A2.3,2.3,0,0,1-11.037-52.888Z" transform="translate(13.333 66.667)"/>
        </g>
        <g id="g291" transform="translate(66.592 88.645)">
          <path id="path293" d="M-62.4,9.632H-92.714a11.486,11.486,0,0,1-8.62-3.9,2.3,2.3,0,0,1,.207-3.241,2.3,2.3,0,0,1,3.241.207,6.892,6.892,0,0,0,5.172,2.339H-62.4a6.9,6.9,0,0,0,6.889-6.89A6.9,6.9,0,0,0-62.4-8.74H-84.354a2.3,2.3,0,0,1-2.3-2.3,2.3,2.3,0,0,1,2.3-2.3H-62.4A11.5,11.5,0,0,1-50.917-1.851,11.5,11.5,0,0,1-62.4,9.632Z" transform="translate(101.907 13.333)"/>
        </g>
        <g id="g295" transform="translate(0 33.529)">
          <path id="path297" d="M-300.14-361.838h-55.116a6.9,6.9,0,0,1-6.889-6.889v-59.709a11.5,11.5,0,0,1,11.482-11.482h45.93a11.5,11.5,0,0,1,11.483,11.482v37.493a2.3,2.3,0,0,1-2.3,2.3,2.3,2.3,0,0,1-2.3-2.3v-37.493a6.9,6.9,0,0,0-6.89-6.889h-45.93a6.9,6.9,0,0,0-6.89,6.889v59.709a2.3,2.3,0,0,0,2.3,2.3h55.116l.2-.007a2.3,2.3,0,0,1,2.463,2.117,2.3,2.3,0,0,1-2.117,2.463C-299.776-361.845-299.958-361.838-300.14-361.838Z" transform="translate(362.146 439.919)"/>
        </g>
        <g id="g299" transform="translate(0 93.238)">
          <path id="path301" d="M-259.564-8.74h-51.713a2.3,2.3,0,0,1-2.3-2.3,2.3,2.3,0,0,1,2.3-2.3h51.713a2.3,2.3,0,0,1,2.3,2.3A2.3,2.3,0,0,1-259.564-8.74Z" transform="translate(313.573 13.333)"/>
        </g>
        <g id="g303" transform="translate(18.372 56.494)">
          <path id="path305" d="M-108.517-66.667h9.186a2.3,2.3,0,0,1,2.3,2.3v6.889h6.889a2.3,2.3,0,0,1,2.3,2.3V-46a2.3,2.3,0,0,1-2.3,2.3h-6.889v6.889a2.3,2.3,0,0,1-2.3,2.3h-9.186a2.3,2.3,0,0,1-2.3-2.3V-43.7h-6.89A2.3,2.3,0,0,1-120-46v-9.186a2.3,2.3,0,0,1,2.3-2.3h6.89V-64.37A2.3,2.3,0,0,1-108.517-66.667Zm6.889,4.593h-4.593v6.889a2.3,2.3,0,0,1-2.3,2.3h-6.89v4.593h6.89a2.3,2.3,0,0,1,2.3,2.3v6.889h4.593V-46a2.3,2.3,0,0,1,2.3-2.3h6.889v-4.593h-6.889a2.3,2.3,0,0,1-2.3-2.3Z" transform="translate(120 66.667)"/>
        </g>
        <g id="g307" transform="translate(32.151 15.157)">
          <path id="path309" d="M-11.037.446a2.3,2.3,0,0,1-2.3-2.3v-9.186a2.3,2.3,0,0,1,2.3-2.3,2.3,2.3,0,0,1,2.3,2.3v9.186A2.3,2.3,0,0,1-11.037.446Z" transform="translate(13.333 13.333)"/>
        </g>
        <g id="g311" transform="translate(41.337 15.157)">
          <path id="path313" d="M-11.037.446a2.3,2.3,0,0,1-2.3-2.3v-9.186a2.3,2.3,0,0,1,2.3-2.3,2.3,2.3,0,0,1,2.3,2.3v9.186A2.3,2.3,0,0,1-11.037.446Z" transform="translate(13.333 13.333)"/>
        </g>
        <g id="g315" transform="translate(50.523 15.157)">
          <path id="path317" d="M-11.037.446a2.3,2.3,0,0,1-2.3-2.3v-9.186a2.3,2.3,0,0,1,2.3-2.3,2.3,2.3,0,0,1,2.3,2.3v9.186A2.3,2.3,0,0,1-11.037.446Z" transform="translate(13.333 13.333)"/>
        </g>
        <g id="g319" transform="translate(22.965 15.157)">
          <path id="path321" d="M-11.037.446a2.3,2.3,0,0,1-2.3-2.3v-9.186a2.3,2.3,0,0,1,2.3-2.3,2.3,2.3,0,0,1,2.3,2.3v9.186A2.3,2.3,0,0,1-11.037.446Z" transform="translate(13.333 13.333)"/>
        </g>
        <g id="g323" transform="translate(13.779 15.157)">
          <path id="path325" d="M-11.037.446a2.3,2.3,0,0,1-2.3-2.3v-9.186a2.3,2.3,0,0,1,2.3-2.3,2.3,2.3,0,0,1,2.3,2.3v9.186A2.3,2.3,0,0,1-11.037.446Z" transform="translate(13.333 13.333)"/>
        </g>
        <g id="g327" transform="translate(90.023 88.645)">
          <path id="path329" d="M-11.037,9.632a2.3,2.3,0,0,1-2.3-2.3V-11.037a2.3,2.3,0,0,1,2.3-2.3,2.3,2.3,0,0,1,2.3,2.3V7.335A2.3,2.3,0,0,1-11.037,9.632Z" transform="translate(13.333 13.333)"/>
        </g>
        <g id="g331" transform="translate(50.488 69.153)">
          <path id="path333" d="M-62.567-77.513a11.407,11.407,0,0,1,8.12,3.363,11.5,11.5,0,0,1,0,16.239L-73.935-38.425a11.448,11.448,0,0,1-7.614,3.353q-.251.011-.5.011a11.412,11.412,0,0,1-8.123-3.364A11.494,11.494,0,0,1-92-52.281a11.47,11.47,0,0,1,1.83-2.384L-70.686-74.15A11.407,11.407,0,0,1-62.567-77.513ZM-82.051-39.655l.3-.007a6.866,6.866,0,0,0,4.566-2.012l19.489-19.486a6.9,6.9,0,0,0,0-9.743,6.845,6.845,0,0,0-4.872-2.018A6.845,6.845,0,0,0-67.438-70.9L-86.926-51.417a6.881,6.881,0,0,0-1.1,1.43,6.9,6.9,0,0,0,1.1,8.313A6.849,6.849,0,0,0-82.051-39.655Z" transform="translate(93.537 77.513)"/>
        </g>
        <g id="g335" transform="translate(62.922 81.585)">
          <path id="path337" d="M1.954,4.251A2.289,2.289,0,0,1,.331,3.578L-12.661-9.413a2.3,2.3,0,0,1,0-3.248,2.3,2.3,0,0,1,3.248,0L3.578.331a2.3,2.3,0,0,1-1.624,3.92Z" transform="translate(13.333 13.333)"/>
        </g>
        <g id="g339" transform="translate(32.151 47.308)">
          <path id="path341" d="M-22.074-11.037a2.3,2.3,0,0,1-2.3,2.3,2.3,2.3,0,0,1-2.3-2.3,2.3,2.3,0,0,1,2.3-2.3,2.3,2.3,0,0,1,2.3,2.3" transform="translate(26.667 13.333)"/>
        </g>
        <g id="g343" transform="translate(0 47.308)">
          <path id="path345" d="M10.78-8.74H-11.037a2.3,2.3,0,0,1-2.3-2.3,2.3,2.3,0,0,1,2.3-2.3H10.78a2.3,2.3,0,0,1,2.3,2.3A2.3,2.3,0,0,1,10.78-8.74Z" transform="translate(13.333 13.333)"/>
        </g>
        <g id="g347" transform="translate(42.485 47.308)">
          <path id="path349" d="M10.78-8.74H-11.037a2.3,2.3,0,0,1-2.3-2.3,2.3,2.3,0,0,1,2.3-2.3H10.78a2.3,2.3,0,0,1,2.3,2.3A2.3,2.3,0,0,1,10.78-8.74Z" transform="translate(13.333 13.333)"/>
        </g>
      </g>
    </g>
  </g>
</svg>
