<svg xmlns="http://www.w3.org/2000/svg" width="95.048" height="102.767" viewBox="0 0 95.048 102.767">
  <g id="las-emisiones-de-carbono" transform="translate(-5.523 -0.936)">
    <path id="Trazado_828949" data-name="Trazado 828949" d="M28.1,54.762a5.347,5.347,0,0,0-3.291-8.88,6.463,6.463,0,0,0-12.237,0A5.386,5.386,0,0,0,7.9,51.207a5.317,5.317,0,0,0,1.373,3.555,6.464,6.464,0,1,0,9.409,8.632A6.465,6.465,0,1,0,28.1,54.762Z" transform="translate(0.854 26.516)" fill="#3ecc98"/>
    <path id="Trazado_828950" data-name="Trazado 828950" d="M23.368,53.5a2.644,2.644,0,0,1-.232-2.232,2.961,2.961,0,0,0,.149-.943,3.228,3.228,0,0,0-2.795-3.192,3.878,3.878,0,0,0-7.342,0,3.228,3.228,0,0,0-2.795,3.192,2.961,2.961,0,0,0,.149.943,2.705,2.705,0,0,1-.232,2.232,4.117,4.117,0,0,0,.2,4.448,2.407,2.407,0,0,0,.678.678,4.1,4.1,0,0,0,4.481.182,2.284,2.284,0,0,1,2.381,0,4.1,4.1,0,0,0,4.481-.182,2.407,2.407,0,0,0,.678-.678A4.085,4.085,0,0,0,23.368,53.5Z" transform="translate(2.738 28.477)" fill="#3abf8e"/>
    <path id="Trazado_828951" data-name="Trazado 828951" d="M20.247,52a1.738,1.738,0,0,1-.149-1.488,2,2,0,0,0,.1-.628,2.157,2.157,0,0,0-1.869-2.133,2.585,2.585,0,0,0-4.895,0,2.157,2.157,0,0,0-1.869,2.133,2,2,0,0,0,.1.628A1.8,1.8,0,0,1,11.516,52a2.758,2.758,0,0,0,.132,2.96,1.438,1.438,0,0,0,.446.447,2.712,2.712,0,0,0,2.993.116,1.523,1.523,0,0,1,1.588,0,2.777,2.777,0,0,0,2.993-.116,1.438,1.438,0,0,0,.446-.447A2.725,2.725,0,0,0,20.247,52Z" transform="translate(3.676 29.457)" fill="#36b385"/>
    <path id="Trazado_828952" data-name="Trazado 828952" d="M31.27,14.432l3.225-12.5,10.9,9.476Z" transform="translate(16.83 0.65)" fill="#ffba66"/>
    <path id="Trazado_828953" data-name="Trazado 828953" d="M38.312,54.51l-3.225,12.5-10.9-9.476Z" transform="translate(12.202 35.02)" fill="#ffba66"/>
    <path id="Trazado_828954" data-name="Trazado 828954" d="M57.2,36.76l-2.563-1.323a15.507,15.507,0,0,0-1.869-4.515l.876-2.745a18.816,18.816,0,0,0-3.44-3.44l-2.745.876a15.507,15.507,0,0,0-4.515-1.869l-1.323-2.563A19.551,19.551,0,0,0,39.19,21a19.55,19.55,0,0,0-2.431.182l-1.323,2.563a15.507,15.507,0,0,0-4.515,1.869l-2.745-.876a18.816,18.816,0,0,0-3.44,3.44l.876,2.745a15.507,15.507,0,0,0-1.869,4.515L21.182,36.76A19.55,19.55,0,0,0,21,39.19a19.549,19.549,0,0,0,.182,2.431l2.563,1.323a15.507,15.507,0,0,0,1.869,4.515L24.737,50.2a18.816,18.816,0,0,0,3.44,3.44l2.745-.876a15.507,15.507,0,0,0,4.515,1.869L36.76,57.2a19.55,19.55,0,0,0,2.431.182,19.55,19.55,0,0,0,2.431-.182l1.323-2.563a15.507,15.507,0,0,0,4.515-1.869l2.745.876a18.816,18.816,0,0,0,3.44-3.44l-.876-2.745a15.507,15.507,0,0,0,1.869-4.515L57.2,41.621a19.55,19.55,0,0,0,.182-2.431A19.55,19.55,0,0,0,57.2,36.76ZM39.19,45.805a6.615,6.615,0,1,1,6.615-6.615A6.613,6.613,0,0,1,39.19,45.805Z" transform="translate(10.117 13.116)" fill="#e66d67"/>
    <path id="Trazado_828955" data-name="Trazado 828955" d="M70.492,27a5.5,5.5,0,0,0,5.242-5.738,5.507,5.507,0,0,0-5.143-5.722,7.816,7.816,0,0,0,.546-2.877c0-3.952-2.927-7.16-6.549-7.16a6.813,6.813,0,0,0-6.515,6.4,6.3,6.3,0,0,0-4.63-2.1c-3.622,0-6.549,3.208-6.549,7.16v.215a4.347,4.347,0,0,0-1.323-.215,4.814,4.814,0,0,0-4.581,5.011,4.814,4.814,0,0,0,4.581,5.011h24.9Z" transform="translate(23.184 2.984)" fill="#5f96ed"/>
    <path id="Trazado_828956" data-name="Trazado 828956" d="M67.252,22.749H45.192a4.411,4.411,0,0,1-3.572-1.9A6.608,6.608,0,0,1,47.706,16.3a6.214,6.214,0,0,1,4.614,2.1A6.813,6.813,0,0,1,58.835,12c3.605,0,6.549,3.192,6.549,7.177a12.16,12.16,0,0,1-.744,3.572Z" transform="translate(23.595 7.233)" fill="#72a2ed"/>
    <path id="Trazado_828957" data-name="Trazado 828957" d="M50.55,8.1a5.563,5.563,0,0,1,1.488.182,7.189,7.189,0,0,0-2.216,4.6,6.326,6.326,0,0,0-4.382-2.1A6.347,6.347,0,0,1,50.55,8.1Z" transform="translate(26.092 4.683)" fill="#4e8ded"/>
    <path id="Trazado_828958" data-name="Trazado 828958" d="M68.426,21.276A5.51,5.51,0,0,1,63.183,27h-.943a5.775,5.775,0,0,0,.827-3.043,5.494,5.494,0,0,0-5.126-5.722,7.873,7.873,0,0,0,.529-2.877c0-3.9-2.811-7.045-6.3-7.177A6.347,6.347,0,0,1,57.28,5.5c3.605,0,6.549,3.192,6.549,7.177a7.873,7.873,0,0,1-.529,2.877A5.494,5.494,0,0,1,68.426,21.276Z" transform="translate(30.492 2.984)" fill="#4e8ded"/>
    <path id="Trazado_828959" data-name="Trazado 828959" d="M63.826,12.469a1.663,1.663,0,0,0-.513-1.654L52.416,1.34a1.646,1.646,0,0,0-2.679.843L48.331,7.64A42,42,0,0,0,7.651,62.873a1.655,1.655,0,0,0,3.125-1.091A38.73,38.73,0,0,1,47.5,10.915l-.959,3.754a1.592,1.592,0,0,0,.413,1.554,1.64,1.64,0,0,0,1.191.513A1.238,1.238,0,0,0,48.5,16.7L62.619,13.66a1.668,1.668,0,0,0,1.257-1.207Zm-13.444.446L52.267,5.59l6.383,5.54Z" transform="translate(0 0)"/>
    <path id="Trazado_828960" data-name="Trazado 828960" d="M39.6,79.427l.959-3.754a1.592,1.592,0,0,0-.413-1.554,1.677,1.677,0,0,0-1.538-.48L24.486,76.682a1.653,1.653,0,0,0-.744,2.861l10.9,9.476a1.66,1.66,0,0,0,1.091.413,1.707,1.707,0,0,0,.5-.066,1.654,1.654,0,0,0,1.108-1.174l1.406-5.457c.265,0,.513.017.777.017a42.016,42.016,0,0,0,38.464-59.02,1.667,1.667,0,0,0-2.249-.794,1.645,1.645,0,0,0-.761,2.166,38.726,38.726,0,0,1-35.389,54.34Zm-4.779,5.325-6.383-5.54,8.268-1.786Z" transform="translate(11.542 14.27)"/>
    <path id="Trazado_828961" data-name="Trazado 828961" d="M55.614,27.845a19.858,19.858,0,0,0-3.77-3.77,1.642,1.642,0,0,0-1.5-.265l-2.034.645a17.728,17.728,0,0,0-3.572-1.488l-.976-1.9a1.632,1.632,0,0,0-1.24-.876,17.959,17.959,0,0,0-5.325,0,1.6,1.6,0,0,0-1.24.876l-.976,1.9A17.727,17.727,0,0,0,31.4,24.455L29.37,23.81a1.642,1.642,0,0,0-1.5.265,19.858,19.858,0,0,0-3.77,3.77,1.642,1.642,0,0,0-.265,1.5l.645,2.034a17.728,17.728,0,0,0-1.488,3.572l-1.9.976a1.632,1.632,0,0,0-.876,1.24,17.959,17.959,0,0,0,0,5.325,1.6,1.6,0,0,0,.876,1.24l1.9.976a17.728,17.728,0,0,0,1.488,3.572l-.645,2.034a1.642,1.642,0,0,0,.265,1.5,19.858,19.858,0,0,0,3.77,3.77,1.642,1.642,0,0,0,1.5.265l2.034-.645A17.728,17.728,0,0,0,34.976,56.7l.976,1.9a1.632,1.632,0,0,0,1.24.876,17.96,17.96,0,0,0,5.325,0,1.6,1.6,0,0,0,1.24-.876l.976-1.9A17.728,17.728,0,0,0,48.3,55.213l2.034.645a1.642,1.642,0,0,0,1.5-.265,19.858,19.858,0,0,0,3.77-3.77,1.642,1.642,0,0,0,.265-1.5l-.645-2.034a17.728,17.728,0,0,0,1.488-3.572l1.9-.976A1.632,1.632,0,0,0,59.5,42.5a17.96,17.96,0,0,0,0-5.325,1.6,1.6,0,0,0-.876-1.24l-1.9-.976a17.728,17.728,0,0,0-1.488-3.572l.645-2.034a1.642,1.642,0,0,0-.265-1.5Zm.695,10.633a14.273,14.273,0,0,1,0,2.745l-1.769.91a1.583,1.583,0,0,0-.843,1.075,14.361,14.361,0,0,1-1.67,4.035,1.668,1.668,0,0,0-.165,1.373l.612,1.9a16.728,16.728,0,0,1-1.951,1.951l-1.9-.612a1.668,1.668,0,0,0-1.373.165,14.361,14.361,0,0,1-4.035,1.67,1.679,1.679,0,0,0-1.075.843l-.91,1.769a12.7,12.7,0,0,1-2.745,0l-.91-1.769a1.583,1.583,0,0,0-1.075-.843,14.361,14.361,0,0,1-4.035-1.67,1.668,1.668,0,0,0-1.373-.165l-1.9.612a16.728,16.728,0,0,1-1.951-1.951l.612-1.9a1.668,1.668,0,0,0-.165-1.373,14.361,14.361,0,0,1-1.67-4.035,1.679,1.679,0,0,0-.843-1.075l-1.769-.91a14.273,14.273,0,0,1,0-2.745l1.769-.91a1.583,1.583,0,0,0,.843-1.075,14.361,14.361,0,0,1,1.67-4.035,1.668,1.668,0,0,0,.165-1.373l-.612-1.9a16.728,16.728,0,0,1,1.951-1.951l1.9.612a1.668,1.668,0,0,0,1.373-.165,14.361,14.361,0,0,1,4.035-1.67,1.679,1.679,0,0,0,1.075-.843l.91-1.769a12.7,12.7,0,0,1,2.745,0l.91,1.769a1.583,1.583,0,0,0,1.075.843,14.361,14.361,0,0,1,4.035,1.67,1.668,1.668,0,0,0,1.373.165l1.9-.612a16.728,16.728,0,0,1,1.951,1.951l-.612,1.9a1.668,1.668,0,0,0,.165,1.373,14.361,14.361,0,0,1,1.67,4.035,1.679,1.679,0,0,0,.843,1.075Z" transform="translate(9.47 12.455)"/>
    <path id="Trazado_828962" data-name="Trazado 828962" d="M35.268,27a8.268,8.268,0,1,0,8.268,8.268A8.271,8.271,0,0,0,35.268,27Zm0,13.229a4.961,4.961,0,1,1,4.961-4.961A4.976,4.976,0,0,1,35.268,40.229Z" transform="translate(14.039 17.038)"/>
    <path id="Trazado_828963" data-name="Trazado 828963" d="M73.224,14.918a10.325,10.325,0,0,0,.132-1.6C73.356,8.452,69.7,4.5,65.22,4.5A8.1,8.1,0,0,0,57.8,9.709,7.575,7.575,0,0,0,54.19,8.8a8.361,8.361,0,0,0-8,7.177A6.465,6.465,0,0,0,40.2,22.641a6.5,6.5,0,0,0,6.2,6.664H71.058A7.14,7.14,0,0,0,77.9,21.913a7.4,7.4,0,0,0-4.68-7ZM71.058,26H46.4a3.16,3.16,0,0,1-2.894-3.357A3.149,3.149,0,0,1,46.4,19.284a2.661,2.661,0,0,1,.794.132,1.68,1.68,0,0,0,1.5-.331,1.764,1.764,0,0,0,.661-1.455c0-3.043,2.166-5.507,4.829-5.507a4.5,4.5,0,0,1,3.357,1.554,1.665,1.665,0,0,0,1.736.463,1.639,1.639,0,0,0,1.124-1.406A5.093,5.093,0,0,1,65.22,7.84c2.662,0,4.829,2.481,4.829,5.507a6.263,6.263,0,0,1-.43,2.266,1.665,1.665,0,0,0,1.5,2.266A3.869,3.869,0,0,1,74.6,21.946a3.88,3.88,0,0,1-3.539,4.085Z" transform="translate(22.667 2.33)"/>
    <path id="Trazado_828964" data-name="Trazado 828964" d="M24.758,68.612a8.123,8.123,0,0,0,8.12-8.12,8.027,8.027,0,0,0-1.951-5.275,7,7,0,0,0-4.266-10.1,8.123,8.123,0,0,0-14.652,0,7,7,0,0,0-4.266,10.1A8.027,8.027,0,0,0,5.79,60.493,8.072,8.072,0,0,0,17.647,67.67V74.4H15.993a1.654,1.654,0,0,0,0,3.307h6.615a1.654,1.654,0,0,0,0-3.307H20.954V67.67a8.081,8.081,0,0,0,3.737.943ZM13.976,65.305a4.814,4.814,0,0,1-2.993-8.583,1.643,1.643,0,0,0,.612-1.158,1.692,1.692,0,0,0-.413-1.24,3.684,3.684,0,0,1,2.266-6.135,1.631,1.631,0,0,0,1.339-1.108,4.818,4.818,0,0,1,9.128,0,1.653,1.653,0,0,0,1.339,1.108,3.735,3.735,0,0,1,3.225,3.671,3.655,3.655,0,0,1-.959,2.464,1.715,1.715,0,0,0-.413,1.24,1.676,1.676,0,0,0,.612,1.158,4.8,4.8,0,1,1-6.73,6.747V60.2l3.324-3.39a1.649,1.649,0,0,0-2.348-2.315l-.976.992V54.474a1.654,1.654,0,1,0-3.307,0v1.009L16.7,54.49a1.649,1.649,0,0,0-2.348,2.315L17.68,60.2V63.47a4.782,4.782,0,0,1-3.737,1.836Z" transform="translate(0.174 25.862)"/>
  </g>
</svg>
