<svg xmlns="http://www.w3.org/2000/svg" xmlns:xlink="http://www.w3.org/1999/xlink" width="620" height="339.398" viewBox="0 0 620 339.398">
  <defs>
    <clipPath id="clip-path">
      <rect id="BG" width="620" height="339.398" transform="translate(285 2886)" fill="#c1e29a" opacity="0.949"/>
    </clipPath>
  </defs>
  <g id="Grupo_1075642" data-name="Grupo 1075642" transform="translate(-800 -3635)">
    <g id="Grupo_1075516" data-name="Grupo 1075516" transform="translate(0 1143)">
      <g id="Enmascarar_grupo_67" data-name="Enmascarar grupo 67" transform="translate(515 -394)" clip-path="url(#clip-path)">
        <rect id="dylan-shaw-UxyWwU6n_ts-unsplash" width="660.034" height="378.783" transform="translate(267.161 2866.308)" fill="#c1e29a"/>
      </g>
    </g>
    <g id="hoja" transform="translate(1019.998 3687.141)">
      <path id="Trazado_828805" data-name="Trazado 828805" d="M205.322,88.162a20.142,20.142,0,0,1-3.945-39.626,5.681,5.681,0,0,0,4.18-6.926q-2.056-7.751-4.928-15.78A19.533,19.533,0,0,0,168.28,18.8a61.962,61.962,0,0,1-25.174,15.645,5.81,5.81,0,0,0-3.892,5.153A17.259,17.259,0,0,1,105.6,43.69a5.781,5.781,0,0,0-5.675-4.036c-9.841.326-19.734.791-29.426,2.78A5.742,5.742,0,0,0,65.909,48.4,15.349,15.349,0,0,1,41.089,61.4a5.814,5.814,0,0,0-7.688.369,86.514,86.514,0,0,0-6.979,7.722,5.76,5.76,0,0,0,3.461,9.232,20.86,20.86,0,1,1-13.555,39.013,5.744,5.744,0,0,0-8.312,5.517c3.71,62.342,82.047,122.028,161.209,53.958,22.327-19.2,38.639-47.526,41.534-82.819a5.76,5.76,0,0,0-5.436-6.227ZM89.89,86.26a11.5,11.5,0,1,1,11.5-11.5A11.507,11.507,0,0,1,89.89,86.26Zm32.594,59.916a7.669,7.669,0,1,1,7.669-7.669A7.679,7.679,0,0,1,122.484,146.176Z" transform="translate(-4.167 -4.169)" fill="#befa91"/>
      <path id="Trazado_828806" data-name="Trazado 828806" d="M65.918,220.374a20.757,20.757,0,0,1-19.85,21.161c-10.638.5-18.928,10.927-15.314,22.706a3.234,3.234,0,0,1-5.717,2.841c-9.93-13.739-16.048-29.927-17.022-46.3a5.744,5.744,0,0,1,8.312-5.517,20.867,20.867,0,0,0,29.6-12.71,3.219,3.219,0,0,1,4.176-2.12C55.667,202.425,65.718,206.979,65.918,220.374Z" transform="translate(-4.167 -101.706)" fill="#daffbf"/>
      <path id="Trazado_828807" data-name="Trazado 828807" d="M219.311,25.944a9.5,9.5,0,0,1-5.863,12.092,19.692,19.692,0,0,0-7.354,4.728,61.962,61.962,0,0,1-25.174,15.645,5.81,5.81,0,0,0-3.892,5.153,17.259,17.259,0,0,1-33.615,4.093,5.781,5.781,0,0,0-5.675-4.036c-6.787.223-13.6.516-20.36,1.332a7.426,7.426,0,0,1-4.03-.648A11.51,11.51,0,0,0,97.64,78.47a7.487,7.487,0,0,1-5.079,9.62A15.392,15.392,0,0,1,78.9,85.362a5.811,5.811,0,0,0-7.688.369,7.558,7.558,0,0,1-11.065-.352,21.057,21.057,0,0,0-11.626-6.66,5.76,5.76,0,0,1-3.461-9.232,86.515,86.515,0,0,1,6.979-7.722,5.814,5.814,0,0,1,7.688-.369A15.349,15.349,0,0,0,84.549,48.4a5.742,5.742,0,0,1,4.587-5.968c9.692-1.989,19.585-2.454,29.426-2.78a5.781,5.781,0,0,1,5.675,4.036A17.259,17.259,0,0,0,157.853,39.6a5.81,5.81,0,0,1,3.892-5.153A61.962,61.962,0,0,0,186.919,18.8a19.53,19.53,0,0,1,32.391,7.146Z" transform="translate(-22.807 -4.168)" fill="#daffbf"/>
      <path id="Trazado_828808" data-name="Trazado 828808" d="M360.729,298.015h-4.314v-4.793a16.3,16.3,0,1,0-32.595,0v4.793h-4.314a7.667,7.667,0,0,0-7.669,7.669v34.033a28.281,28.281,0,1,0,56.561,0V305.684A7.667,7.667,0,0,0,360.729,298.015Z" transform="translate(-162.363 -141.628)" fill="#585966"/>
      <path id="Trazado_828809" data-name="Trazado 828809" d="M360.915,327.155H330.53a7.669,7.669,0,0,0-7.669,7.669v34.032a28.221,28.221,0,0,0,1.746,9.805,3.111,3.111,0,0,1-5.155,3.269,28.178,28.178,0,0,1-7.616-19.305V328.593a7.669,7.669,0,0,1,7.669-7.669h41.222q.234,0,.465.014c3.965.236,3.694,6.217-.278,6.217Z" transform="translate(-162.363 -164.537)" fill="#6e6f80"/>
      <path id="Trazado_828810" data-name="Trazado 828810" d="M354.679,281.9c-6.644,2.866-8.489,10.154-9.008,13.867a2.6,2.6,0,0,1-2.571,2.248h-6.263v-4.458a16.555,16.555,0,0,1,16.9-16.622,2.594,2.594,0,0,1,.944,4.965Z" transform="translate(-175.38 -141.628)" fill="#6e6f80"/>
      <g id="Grupo_1075517" data-name="Grupo 1075517" transform="translate(0.002 4.913)">
        <path id="Trazado_828811" data-name="Trazado 828811" d="M116.172,196.154c-33.683,9.351-66.31-2.174-87.631-27.267A192.039,192.039,0,0,1,46.757,147.7a41.231,41.231,0,0,0,27.874,12.086,24.75,24.75,0,0,0,25.077,18.841,3.835,3.835,0,0,0-.3-7.664A17.068,17.068,0,0,1,82.464,159.27a41.977,41.977,0,0,0,9.48-2.682,3.835,3.835,0,0,0-2.968-7.072,33.559,33.559,0,0,1-36.729-7.173A160.829,160.829,0,0,1,86.26,117.9c17.12-9.139,26.906-10.191,39.285-16.506a47.439,47.439,0,0,0,23.467,8.425c.531.041,1.628.105,1.964.105a3.834,3.834,0,0,0,.138-7.666,39.239,39.239,0,0,1-18.077-5.2,110.953,110.953,0,0,0,30.541-30.168,3.835,3.835,0,0,0-6.321-4.343C147.08,77.363,132.7,90.587,115.506,97.539a42.867,42.867,0,0,1,4.062-21.132,3.835,3.835,0,1,0-6.924-3.3,50.639,50.639,0,0,0-4.6,27.213c-9.087,3.227-15.913,5.753-25.4,10.816a164.318,164.318,0,0,0-15.778,9.608,43.941,43.941,0,0,1,2.416-23.11,3.835,3.835,0,0,0-7.146-2.784A51.671,51.671,0,0,0,60.051,125.7a199.031,199.031,0,0,0-36.389,36.91c-9.308-13.093-15.075-28.439-15.987-43.754a1.911,1.911,0,0,1,2.723-1.885c16.308,8.441,36.308-3.367,36.017-22.326A24.84,24.84,0,0,0,26.457,70.786a1.921,1.921,0,0,1-1.21-3.065,83.027,83.027,0,0,1,6.67-7.383,1.975,1.975,0,0,1,2.63-.1,18.98,18.98,0,0,0,11.872,4.116,19.206,19.206,0,0,0,19.15-20.36A1.912,1.912,0,0,1,67.1,42.023c9.407-1.931,18.983-2.383,28.783-2.708a1.973,1.973,0,0,1,1.9,1.4A21.092,21.092,0,0,0,138.871,35.7a1.977,1.977,0,0,1,1.275-1.787,65.782,65.782,0,0,0,26.7-16.593,15.7,15.7,0,0,1,26.012,5.63c1.858,5.189,3.484,10.395,4.833,15.472a1.849,1.849,0,0,1-1.425,2.224,23.979,23.979,0,0,0,4.7,47.175,1.92,1.92,0,0,1,1.806,2.083,125.874,125.874,0,0,1-3.363,20.427,3.835,3.835,0,1,0,7.437,1.874,133.576,133.576,0,0,0,3.571-21.675,9.582,9.582,0,0,0-9.058-10.368,16.31,16.31,0,0,1-3.192-32.085A9.51,9.51,0,0,0,205.1,36.456c-1.4-5.285-3.095-10.7-5.025-16.088a23.369,23.369,0,0,0-38.688-8.434,58.29,58.29,0,0,1-23.653,14.7,9.618,9.618,0,0,0-6.511,8.511,13.423,13.423,0,0,1-26.144,3.182,9.655,9.655,0,0,0-9.448-6.679c-10.144.336-20.076.809-30.071,2.86a9.617,9.617,0,0,0-7.646,9.963,11.537,11.537,0,0,1-11.5,12.212A11.379,11.379,0,0,1,39.3,54.219a9.685,9.685,0,0,0-12.743.634,90.653,90.653,0,0,0-7.291,8.067,9.59,9.59,0,0,0,5.709,15.391,17.025,17.025,0,1,1-11.051,31.845,9.581,9.581,0,0,0-13.9,9.152c1,16.744,7.255,34.4,18.9,49.857A192.489,192.489,0,0,0,4.076,194.6a3.835,3.835,0,0,0,6.9,3.348,184.92,184.92,0,0,1,13.006-22.593c23.17,26.1,57.965,38.259,94.243,28.188a3.835,3.835,0,1,0-2.052-7.39Z" transform="translate(-0.002 -4.913)"/>
        <circle id="Elipse_5931" data-name="Elipse 5931" cx="7.669" cy="7.669" r="7.669" transform="translate(110.646 121.755)"/>
        <path id="Trazado_828812" data-name="Trazado 828812" d="M162.176,117.593a7.678,7.678,0,0,1,7.669,7.669,3.835,3.835,0,0,0,7.669,0A15.339,15.339,0,1,0,162.176,140.6a3.835,3.835,0,0,0,0-7.669,7.669,7.669,0,1,1,0-15.339Z" transform="translate(-76.454 -59.589)"/>
        <path id="Trazado_828813" data-name="Trazado 828813" d="M365.677,309.806a3.835,3.835,0,0,0-5.323-1.038,25.63,25.63,0,0,1-14.155,4.363v-8.952a19.123,19.123,0,0,0,14.837-16.74,3.835,3.835,0,0,0-7.624-.834,11.365,11.365,0,0,1-7.212,9.549v-1.462a11.517,11.517,0,0,0-11.5-11.5,3.835,3.835,0,1,0,0,7.669,3.839,3.839,0,0,1,3.835,3.835v34.032a24.446,24.446,0,1,1-48.892,0V294.693a3.839,3.839,0,0,1,3.835-3.835H310.25v46.974a3.835,3.835,0,1,0,7.669,0V287.024a3.835,3.835,0,0,0-3.835-3.835H301.622v-.959a12.463,12.463,0,0,1,21.712-8.353,3.835,3.835,0,0,0,5.689-5.144,20.054,20.054,0,0,0-2.792-2.547A7.462,7.462,0,0,1,329,262.859a3.835,3.835,0,1,0-4.2-6.417,15.036,15.036,0,0,0-5.457,6.36,20.047,20.047,0,0,0-10.523,0,15.04,15.04,0,0,0-5.456-6.359,3.835,3.835,0,1,0-4.2,6.417,7.47,7.47,0,0,1,2.773,3.33,20.11,20.11,0,0,0-7.986,16.042v.959h-.479a11.517,11.517,0,0,0-11.5,11.5v1.462a11.365,11.365,0,0,1-7.212-9.549,3.835,3.835,0,0,0-7.624.834,19.121,19.121,0,0,0,14.837,16.74v8.951a25.633,25.633,0,0,1-14.155-4.363,3.835,3.835,0,1,0-4.285,6.36,33.3,33.3,0,0,0,18.44,5.671v6.424a23.646,23.646,0,0,0-16.3,22.025,3.835,3.835,0,1,0,7.667.174,15.951,15.951,0,0,1,9.285-14.222,32.119,32.119,0,0,0,62.918,0,15.958,15.958,0,0,1,9.285,14.221,3.835,3.835,0,0,0,7.667-.173,23.639,23.639,0,0,0-16.3-22.025V320.8a33.3,33.3,0,0,0,18.44-5.671,3.835,3.835,0,0,0,1.036-5.323Z" transform="translate(-136.332 -135.55)"/>
      </g>
    </g>
  </g>
</svg>
