<svg xmlns="http://www.w3.org/2000/svg" width="827" height="514" viewBox="0 0 827 514">
  <g id="Grupo_1075638" data-name="Grupo 1075638" transform="translate(-390 -5296)">
    <rect id="Rectángulo_378735" data-name="Rectángulo 378735" width="820" height="514" transform="translate(397 5296)" fill="#d5fff5"/>
    <g id="Grupo_1075637" data-name="Grupo 1075637">
      <rect id="Rectángulo_378752" data-name="Rectángulo 378752" width="820" height="514" transform="translate(390 5296)" fill="#d5fff5"/>
    </g>
    <text id="Identificar_impactos_ambientales" data-name="Identificar impactos ambientales" transform="translate(482.046 5418.277)" fill="#12263f" font-size="16" font-family="Roboto-Regular, Roboto"><tspan x="0" y="15">Identificar </tspan><tspan x="0" y="39">impactos </tspan><tspan x="0" y="63">ambientales</tspan></text>
    <text id="Solución_del_impacto_ambiental" data-name="Solución del impacto ambiental" transform="translate(1023.258 5418.277)" fill="#12263f" font-size="16" font-family="Roboto-Regular, Roboto"><tspan x="0" y="15">Solución del </tspan><tspan x="0" y="39">impacto </tspan><tspan x="0" y="63">ambiental</tspan></text>
    <text id="Análisis_del_riesgo" data-name="Análisis del riesgo" transform="translate(730.159 5418.277)" fill="#12263f" font-size="16" font-family="Roboto-Regular, Roboto"><tspan x="0" y="15">Análisis del riesgo</tspan></text>
    <rect id="Rectángulo_378736" data-name="Rectángulo 378736" width="114.04" height="65.166" transform="translate(673.139 5466.517)" fill="#c1e29a"/>
    <rect id="Rectángulo_378738" data-name="Rectángulo 378738" width="114.04" height="92.318" transform="translate(673.139 5571.868)" fill="#c1e29a"/>
    <rect id="Rectángulo_378742" data-name="Rectángulo 378742" width="114.04" height="69.51" transform="translate(673.139 5704.695)" fill="#c1e29a"/>
    <rect id="Rectángulo_378737" data-name="Rectángulo 378737" width="114.04" height="65.166" transform="translate(823.02 5466.517)" fill="#c1e29a"/>
    <rect id="Rectángulo_378739" data-name="Rectángulo 378739" width="114.04" height="65.166" transform="translate(823.02 5571.868)" fill="#c1e29a"/>
    <text id="Listas_de_chequeo" data-name="Listas de chequeo" transform="translate(694.861 5475.967)" fill="#12263f" font-size="16" font-family="Roboto-Regular, Roboto"><tspan x="0" y="15">Listas de </tspan><tspan x="0" y="39">chequeo</tspan></text>
    <text id="Matriz_de_impactos_ambientales" data-name="Matriz de impactos ambientales" transform="translate(686.172 5581.318)" fill="#12263f" font-size="16" font-family="Roboto-Regular, Roboto"><tspan x="0" y="15">Matriz de </tspan><tspan x="0" y="39">impactos </tspan><tspan x="0" y="63">ambientales</tspan></text>
    <text id="Aprobación_matriz" data-name="Aprobación matriz" transform="translate(686.172 5714.146)" fill="#12263f" font-size="16" font-family="Roboto-Regular, Roboto"><tspan x="0" y="15">Aprobación </tspan><tspan x="0" y="39">matriz</tspan></text>
    <text id="Listas_de_chequeo-2" data-name="Listas de chequeo" transform="translate(844.742 5475.967)" fill="#12263f" font-size="16" font-family="Roboto-Regular, Roboto"><tspan x="0" y="15">Listas de </tspan><tspan x="0" y="39">chequeo</tspan></text>
    <text id="Revisar_información" data-name="Revisar información" transform="translate(836.053 5581.318)" fill="#12263f" font-size="16" font-family="Roboto-Regular, Roboto"><tspan x="0" y="15">Revisar </tspan><tspan x="0" y="39">información</tspan></text>
    <rect id="Rectángulo_378740" data-name="Rectángulo 378740" width="99.921" height="30.411" transform="translate(472.814 5331.841)" fill="#ffae7e"/>
    <rect id="Rectángulo_378743" data-name="Rectángulo 378743" width="99.921" height="30.411" transform="translate(1023.258 5331.841)" fill="#ffae7e"/>
    <rect id="Rectángulo_378741" data-name="Rectángulo 378741" width="99.921" height="30.411" transform="translate(744.821 5331.841)" fill="#ffae7e"/>
    <text id="Fase_1" data-name="Fase 1" transform="translate(496.708 5352.186)" fill="#12263f" font-size="17" font-family="Roboto-Bold, Roboto" font-weight="700"><tspan x="0" y="0">Fase 1</tspan></text>
    <text id="Fase_3" data-name="Fase 3" transform="translate(1047.152 5352.186)" fill="#12263f" font-size="17" font-family="Roboto-Bold, Roboto" font-weight="700"><tspan x="0" y="0">Fase 3</tspan></text>
    <text id="Fase_2" data-name="Fase 2" transform="translate(768.715 5352.186)" fill="#12263f" font-size="17" font-family="Roboto-Bold, Roboto" font-weight="700"><tspan x="0" y="0">Fase 2</tspan></text>
    <g id="Grupo_1075486" data-name="Grupo 1075486" transform="translate(795.053 5494.212)">
      <line id="Línea_1199" data-name="Línea 1199" x2="16.291" transform="translate(0 3.258)" fill="none" stroke="#49612b" stroke-width="1"/>
      <path id="Polígono_11" data-name="Polígono 11" d="M3.258,0,6.517,5.43H0Z" transform="translate(21.722 0) rotate(90)" fill="#49612b"/>
    </g>
    <g id="Grupo_1075487" data-name="Grupo 1075487" transform="translate(883.569 5539.285) rotate(90)">
      <line id="Línea_1199-2" data-name="Línea 1199" x2="16.291" transform="translate(0 3.258)" fill="none" stroke="#49612b" stroke-width="1"/>
      <path id="Polígono_11-2" data-name="Polígono 11" d="M3.5,0,7,5H0Z" transform="translate(21.715 -0.431) rotate(90)" fill="#49612b"/>
    </g>
    <g id="Grupo_1075488" data-name="Grupo 1075488" transform="translate(816.232 5608.795) rotate(180)">
      <line id="Línea_1199-3" data-name="Línea 1199" x2="16.291" transform="translate(0 3.258)" fill="none" stroke="#49612b" stroke-width="1"/>
      <path id="Polígono_11-3" data-name="Polígono 11" d="M3.5,0,7,5H0Z" transform="translate(21.232 -0.205) rotate(90)" fill="#49612b"/>
    </g>
    <g id="Grupo_1075489" data-name="Grupo 1075489" transform="translate(733.688 5673.96) rotate(90)">
      <line id="Línea_1199-4" data-name="Línea 1199" x2="16.291" transform="translate(0 3.258)" fill="none" stroke="#49612b" stroke-width="1"/>
      <path id="Polígono_11-4" data-name="Polígono 11" d="M3.5,0,7,6H0Z" transform="translate(22.04 -0.311) rotate(90)" fill="#49612b"/>
    </g>
    <circle id="Elipse_5923" data-name="Elipse 5923" cx="51" cy="51" r="51" transform="translate(473 5515)" fill="#ffae7e"/>
    <circle id="Elipse_5924" data-name="Elipse 5924" cx="51" cy="51" r="51" transform="translate(1023 5515)" fill="#ffae7e"/>
    <path id="planta" d="M55.144,37.221a7.342,7.342,0,0,0-7.205-3.387,13.718,13.718,0,0,0-11.7-10.264V19.8h2.38a9.748,9.748,0,0,0,9.737-9.737V7.789a1.623,1.623,0,0,0-1.623-1.623h-4a9.7,9.7,0,0,0-6.491,2.486V1.623a1.623,1.623,0,0,0-3.246,0V5.191A9.7,9.7,0,0,0,26.505,2.7h-4A1.623,1.623,0,0,0,20.88,4.327V6.6a9.748,9.748,0,0,0,9.737,9.737H33v7.239a13.8,13.8,0,0,0-9.769,5.96H16.754a4.878,4.878,0,0,0-3.117,1.128l-2.068,1.723A4.874,4.874,0,0,0,7.14,29.534H4.868A4.874,4.874,0,0,0,0,34.4v16.12a4.874,4.874,0,0,0,4.868,4.868H7.14a4.873,4.873,0,0,0,4.359-2.7h4.7l7.946,2.483a4.864,4.864,0,0,0,1.452.222H35.1a4.86,4.86,0,0,0,3.258-1.251L54.854,39.287A1.623,1.623,0,0,0,55.144,37.221ZM42.733,9.412h2.38v.649a6.5,6.5,0,0,1-6.491,6.491h-2.38V15.9A6.5,6.5,0,0,1,42.733,9.412ZM24.125,6.6V5.95h2.38A6.5,6.5,0,0,1,33,12.441v.649h-2.38A6.5,6.5,0,0,1,24.125,6.6ZM34.619,26.722a10.475,10.475,0,0,1,10.238,8.19l-9.2,4.379A6.5,6.5,0,0,0,32.1,32.846L26.817,30.2a10.533,10.533,0,0,1,7.8-3.48ZM7.14,52.145H4.868a1.625,1.625,0,0,1-1.623-1.623V34.4A1.625,1.625,0,0,1,4.868,32.78H7.14A1.625,1.625,0,0,1,8.763,34.4v16.12A1.625,1.625,0,0,1,7.14,52.145Zm29.05-.417a1.621,1.621,0,0,1-1.086.417h-9.51a1.618,1.618,0,0,1-.484-.074l-8.182-2.557a1.622,1.622,0,0,0-.484-.074H12.009v-13.2l3.706-3.089a1.626,1.626,0,0,1,1.039-.376h7.579a1.632,1.632,0,0,1,.726.171l5.595,2.8a3.249,3.249,0,0,1,1.532,4.181l-.178.415-5.473-2.052a1.623,1.623,0,0,0-1.14,3.039l6.924,2.6a1.632,1.632,0,0,0,1.26-.051l13.575-6.464a4.1,4.1,0,0,1,4.352.522Z" transform="translate(1044.708 5536.026)"/>
    <g id="Artboard491" transform="translate(479 5509.72)">
      <path id="Trazado_828772" data-name="Trazado 828772" d="M17.181,51.486q-.607-.263-1.188-.585l-1.81.8a1.13,1.13,0,0,1-1.257-.234l-2.754-2.754a1.13,1.13,0,0,1-.234-1.258l.8-1.808a13.458,13.458,0,0,1-1.171-2.821l-1.846-.711A1.13,1.13,0,0,1,7,41.062v-3.9a1.13,1.13,0,0,1,.724-1.055L9.57,35.4a13.459,13.459,0,0,1,1.172-2.825l-.8-1.809a1.13,1.13,0,0,1,.234-1.258l2.754-2.754a1.13,1.13,0,0,1,1.258-.234l1.809.8a13.373,13.373,0,0,1,2.822-1.169l.714-1.849a1.13,1.13,0,0,1,1.055-.723h3.9a1.13,1.13,0,0,1,1.055.725l.71,1.848a13.377,13.377,0,0,1,2.821,1.169l1.809-.8a1.13,1.13,0,0,1,1.258.234l2.754,2.754a1.13,1.13,0,0,1,.234,1.257l-.8,1.809a13.354,13.354,0,0,1,.738,1.556,22.974,22.974,0,0,1,26.031,14.6,3.985,3.985,0,0,1,.464-.027,3.944,3.944,0,0,1,3.514,2.151h2.858a1.13,1.13,0,0,1,1.13,1.13v.971h5.24a2.793,2.793,0,0,1,2.786,2.786V86.192a2.791,2.791,0,0,1-2.786,2.784H48.81a2.791,2.791,0,0,1-2.786-2.784V78.648A22.96,22.96,0,0,1,17.181,51.486ZM38.014,36.859a1.127,1.127,0,0,1,.043.307v3.9a1.13,1.13,0,0,1-.724,1.055l-1.845.71q-.183.638-.428,1.254c1.1.14,2.226.227,3.352.263V36.578Q38.212,36.717,38.014,36.859ZM34.607,46.3l.512,1.157a1.13,1.13,0,0,1-.234,1.257l-2.754,2.754a1.13,1.13,0,0,1-1.257.234l-1.808-.8q-.28.156-.568.3a24.222,24.222,0,0,0-.579,4.3H38.412V46.6A37.767,37.767,0,0,1,34.607,46.3Zm-8.735,6.735-.339.881a1.13,1.13,0,0,1-1.055.724h-3.9a1.13,1.13,0,0,1-1.055-.724l-.35-.909a20.733,20.733,0,0,0-.287,2.5h6.766Q25.707,54.255,25.872,53.036Zm33.137-3.4a20.67,20.67,0,0,0-3.954-6.677,24.642,24.642,0,0,1-4.327,1.916,26.366,26.366,0,0,1,2.482,8.085h.84v-.971a1.13,1.13,0,0,1,1.13-1.13h2.858A3.964,3.964,0,0,1,59.009,49.635ZM53.4,41.288a20.633,20.633,0,0,0-9.157-4.8,26.863,26.863,0,0,1,5.379,6.376A23.284,23.284,0,0,0,53.4,41.288ZM69.052,55.22v1.071a1.13,1.13,0,0,1-1.13,1.13H55.18a1.13,1.13,0,0,1-1.13-1.13V55.22H48.81a.527.527,0,0,0-.525.525V86.192a.525.525,0,0,0,.525.523H74.292a.525.525,0,0,0,.525-.523V55.745a.527.527,0,0,0-.525-.525ZM46.024,76.281V75.106q-.838.87-1.758,1.669Q45.161,76.566,46.024,76.281Zm0-4.618V69.51a35.069,35.069,0,0,0-5.352-.577V76.7A24.479,24.479,0,0,0,46.024,71.663Zm0-4.45V57.765H40.673v8.913A37.257,37.257,0,0,1,46.024,67.212Zm.01-11.708a2.794,2.794,0,0,1,2.776-2.546h2.115a24.125,24.125,0,0,0-2.4-7.435A36.381,36.381,0,0,1,40.673,46.6V55.5ZM18.891,57.765A20.6,20.6,0,0,0,24.037,70.32,24.6,24.6,0,0,1,28.365,68.4,26.712,26.712,0,0,1,25.66,57.765Zm6.8,14.224a20.633,20.633,0,0,0,9.137,4.787,26.574,26.574,0,0,1-5.364-6.365A23.258,23.258,0,0,0,25.688,71.989ZM40.673,36.573v7.772a34.089,34.089,0,0,0,6.682-.851,24.612,24.612,0,0,0-6.682-6.922ZM38.412,57.765H27.923a24.445,24.445,0,0,0,2.647,9.988,36.386,36.386,0,0,1,7.843-1.074Zm0,18.935V68.93a34.041,34.041,0,0,0-6.679.852A24.393,24.393,0,0,0,38.412,76.7ZM24.341,27.509,23.7,25.845H21.358l-.643,1.666a1.131,1.131,0,0,1-.793.693,11.122,11.122,0,0,0-3.266,1.353,1.13,1.13,0,0,1-1.052.071L13.975,28.9l-1.656,1.656.724,1.629a1.13,1.13,0,0,1-.071,1.052,11.218,11.218,0,0,0-1.358,3.272,1.13,1.13,0,0,1-.693.791l-1.661.639v2.344l1.661.639a1.13,1.13,0,0,1,.693.79,11.193,11.193,0,0,0,1.357,3.268,1.13,1.13,0,0,1,.071,1.054l-.724,1.629,1.657,1.657,1.629-.722a1.13,1.13,0,0,1,1.048.07,11.21,11.21,0,0,0,3.271,1.355,1.13,1.13,0,0,1,.794.694l.639,1.661H23.7l.639-1.661a1.13,1.13,0,0,1,.794-.694A11.077,11.077,0,0,0,28.4,48.673a1.13,1.13,0,0,1,1.052-.072l1.629.722,1.658-1.658-.722-1.629a1.13,1.13,0,0,1,.07-1.048,11.232,11.232,0,0,0,1.355-3.268,1.13,1.13,0,0,1,.694-.793l1.661-.639V37.943L34.135,37.3a1.13,1.13,0,0,1-.694-.794,11.1,11.1,0,0,0-1.353-3.269,1.13,1.13,0,0,1-.071-1.051l.722-1.629L31.082,28.9l-1.629.724a1.13,1.13,0,0,1-1.052-.071A11.124,11.124,0,0,0,25.135,28.2a1.13,1.13,0,0,1-.794-.694Zm-1.813,3.678A7.927,7.927,0,1,1,14.6,39.112a7.926,7.926,0,0,1,7.925-7.925Zm0,2.261A5.667,5.667,0,1,0,28.2,39.112a5.663,5.663,0,0,0-5.669-5.665Zm33.782,19.67V55.16H66.792V53.118H64.286a1.13,1.13,0,0,1-1.1-.865,1.683,1.683,0,0,0-3.272,0,1.13,1.13,0,0,1-1.1.865Zm5.24-.232a.744.744,0,1,1,.745-.742A.744.744,0,0,1,61.55,52.886Zm.476,9.179a1.13,1.13,0,0,1,0-2.261h7.72a1.13,1.13,0,0,1,0,2.261ZM53.372,58.9h2.859a2.078,2.078,0,0,1,2.074,2.074v2.859a2.081,2.081,0,0,1-2.074,2.074H53.372A2.081,2.081,0,0,1,51.3,63.836V60.977A2.078,2.078,0,0,1,53.372,58.9Zm.188,2.261V63.65h2.484V61.164Zm8.465,12.094a1.13,1.13,0,0,1,0-2.261h3.86a1.13,1.13,0,0,1,0,2.261Zm0,7.175a1.13,1.13,0,0,1,0-2.261h7.72a1.13,1.13,0,0,1,0,2.261ZM53.372,68.086h2.86a2.078,2.078,0,0,1,2.075,2.075v2.86a2.079,2.079,0,0,1-2.075,2.073h-2.86A2.079,2.079,0,0,1,51.3,73.021v-2.86A2.079,2.079,0,0,1,53.372,68.086Zm.188,2.261v2.486h2.487V70.346Zm8.466-5.34a1.13,1.13,0,1,1,0-2.261h3.86a1.13,1.13,0,0,1,0,2.261Zm0,5.31a1.13,1.13,0,0,1,0-2.261h7.72a1.13,1.13,0,0,1,0,2.261ZM53.372,77.27h2.86a2.079,2.079,0,0,1,2.075,2.073V82.2a2.078,2.078,0,0,1-2.075,2.075h-2.86A2.079,2.079,0,0,1,51.3,82.2v-2.86A2.079,2.079,0,0,1,53.372,77.27Zm.188,2.261v2.486h2.487V79.53Zm8.466,3.844a1.13,1.13,0,1,1,0-2.261h3.86a1.13,1.13,0,0,1,0,2.261Z" fill-rule="evenodd"/>
    </g>
    <line id="Línea_1238" data-name="Línea 1238" y2="438" transform="translate(637.5 5336.5)" fill="none" stroke="#ffae7e" stroke-width="1"/>
    <line id="Línea_1239" data-name="Línea 1239" y2="438" transform="translate(967.792 5336.5)" fill="none" stroke="#ffae7e" stroke-width="1"/>
  </g>
</svg>
