<svg xmlns="http://www.w3.org/2000/svg" width="107" height="107" viewBox="0 0 107 107">
  <g id="Grupo_156312" data-name="Grupo 156312" transform="translate(0)">
    <circle id="Elipse_5845" data-name="Elipse 5845" cx="53.5" cy="53.5" r="53.5" transform="translate(0)" fill="#ffae7e"/>
    <g id="dom" transform="translate(17.897 17.897)">
      <g id="Grupo_1075528" data-name="Grupo 1075528" transform="translate(0 33.281)">
        <g id="Grupo_1075527" data-name="Grupo 1075527">
          <path id="Trazado_828814" data-name="Trazado 828814" d="M6.966,239.3H2.322a2.322,2.322,0,0,0,0,4.644H6.966a2.322,2.322,0,0,0,0-4.644Z" transform="translate(0 -239.304)"/>
        </g>
      </g>
      <g id="Grupo_1075530" data-name="Grupo 1075530" transform="translate(61.918 33.281)">
        <g id="Grupo_1075529" data-name="Grupo 1075529">
          <path id="Trazado_828815" data-name="Trazado 828815" d="M452.183,239.3h-4.644a2.322,2.322,0,1,0,0,4.644h4.644a2.322,2.322,0,0,0,0-4.644Z" transform="translate(-445.217 -239.304)"/>
        </g>
      </g>
      <g id="Grupo_1075532" data-name="Grupo 1075532" transform="translate(33.281 61.918)">
        <g id="Grupo_1075531" data-name="Grupo 1075531">
          <path id="Trazado_828816" data-name="Trazado 828816" d="M241.626,445.217a2.322,2.322,0,0,0-2.322,2.322v4.644a2.322,2.322,0,1,0,4.644,0v-4.644A2.322,2.322,0,0,0,241.626,445.217Z" transform="translate(-239.304 -445.217)"/>
        </g>
      </g>
      <g id="Grupo_1075534" data-name="Grupo 1075534" transform="translate(33.281)">
        <g id="Grupo_1075533" data-name="Grupo 1075533">
          <path id="Trazado_828817" data-name="Trazado 828817" d="M241.626,0A2.322,2.322,0,0,0,239.3,2.322V6.966a2.322,2.322,0,0,0,4.644,0V2.322A2.322,2.322,0,0,0,241.626,0Z" transform="translate(-239.304)"/>
        </g>
      </g>
      <g id="Grupo_1075536" data-name="Grupo 1075536" transform="translate(47.599 58.081)">
        <g id="Grupo_1075535" data-name="Grupo 1075535">
          <path id="Trazado_828818" data-name="Trazado 828818" d="M348.914,422.81l-2.322-4.022a2.322,2.322,0,1,0-4.022,2.322l2.322,4.022a2.322,2.322,0,1,0,4.022-2.322Z" transform="translate(-342.259 -417.627)"/>
        </g>
      </g>
      <g id="Grupo_1075538" data-name="Grupo 1075538" transform="translate(16.64 4.458)">
        <g id="Grupo_1075537" data-name="Grupo 1075537">
          <path id="Trazado_828819" data-name="Trazado 828819" d="M126.3,37.241l-2.322-4.022a2.322,2.322,0,1,0-4.022,2.322l2.322,4.022a2.322,2.322,0,0,0,4.022-2.322Z" transform="translate(-119.65 -32.058)"/>
        </g>
      </g>
      <g id="Grupo_1075540" data-name="Grupo 1075540" transform="translate(58.081 47.599)">
        <g id="Grupo_1075539" data-name="Grupo 1075539">
          <path id="Trazado_828820" data-name="Trazado 828820" d="M425.133,344.891l-4.022-2.322a2.322,2.322,0,0,0-2.322,4.022l4.022,2.322a2.322,2.322,0,1,0,2.322-4.022Z" transform="translate(-417.629 -342.258)"/>
        </g>
      </g>
      <g id="Grupo_1075542" data-name="Grupo 1075542" transform="translate(4.459 16.64)">
        <g id="Grupo_1075541" data-name="Grupo 1075541">
          <path id="Trazado_828821" data-name="Trazado 828821" d="M39.564,122.282l-4.022-2.322a2.322,2.322,0,0,0-2.322,4.022l4.022,2.322a2.322,2.322,0,0,0,2.322-4.022Z" transform="translate(-32.06 -119.649)"/>
        </g>
      </g>
      <g id="Grupo_1075544" data-name="Grupo 1075544" transform="translate(58.081 16.64)">
        <g id="Grupo_1075543" data-name="Grupo 1075543">
          <path id="Trazado_828822" data-name="Trazado 828822" d="M425.983,120.811a2.322,2.322,0,0,0-3.172-.85l-4.022,2.322a2.322,2.322,0,1,0,2.322,4.022l4.022-2.322A2.322,2.322,0,0,0,425.983,120.811Z" transform="translate(-417.629 -119.649)"/>
        </g>
      </g>
      <g id="Grupo_1075546" data-name="Grupo 1075546" transform="translate(4.459 47.599)">
        <g id="Grupo_1075545" data-name="Grupo 1075545">
          <path id="Trazado_828823" data-name="Trazado 828823" d="M40.413,343.42a2.322,2.322,0,0,0-3.172-.85l-4.022,2.322a2.322,2.322,0,1,0,2.322,4.022l4.022-2.322A2.322,2.322,0,0,0,40.413,343.42Z" transform="translate(-32.059 -342.259)"/>
        </g>
      </g>
      <g id="Grupo_1075548" data-name="Grupo 1075548" transform="translate(47.599 4.458)">
        <g id="Grupo_1075547" data-name="Grupo 1075547">
          <path id="Trazado_828824" data-name="Trazado 828824" d="M348.064,32.369a2.322,2.322,0,0,0-3.172.85l-2.322,4.022a2.322,2.322,0,1,0,4.022,2.322l2.322-4.022A2.322,2.322,0,0,0,348.064,32.369Z" transform="translate(-342.259 -32.058)"/>
        </g>
      </g>
      <g id="Grupo_1075550" data-name="Grupo 1075550" transform="translate(16.64 58.081)">
        <g id="Grupo_1075549" data-name="Grupo 1075549">
          <path id="Trazado_828825" data-name="Trazado 828825" d="M125.455,417.939a2.321,2.321,0,0,0-3.172.85l-2.322,4.022a2.322,2.322,0,0,0,4.022,2.322l2.322-4.022A2.322,2.322,0,0,0,125.455,417.939Z" transform="translate(-119.65 -417.628)"/>
        </g>
      </g>
      <g id="Grupo_1075552" data-name="Grupo 1075552" transform="translate(13.932 13.932)">
        <g id="Grupo_1075551" data-name="Grupo 1075551">
          <path id="Trazado_828826" data-name="Trazado 828826" d="M121.845,100.174a21.671,21.671,0,1,0,21.671,21.671A21.7,21.7,0,0,0,121.845,100.174Zm0,38.7a17.028,17.028,0,1,1,17.028-17.028A17.047,17.047,0,0,1,121.845,138.873Z" transform="translate(-100.174 -100.174)"/>
        </g>
      </g>
      <g id="Grupo_1075554" data-name="Grupo 1075554" transform="translate(23.219 23.219)">
        <g id="Grupo_1075553" data-name="Grupo 1075553">
          <path id="Trazado_828827" data-name="Trazado 828827" d="M179.341,166.957a12.4,12.4,0,0,0-12.384,12.384,2.322,2.322,0,0,0,4.644,0,7.749,7.749,0,0,1,7.74-7.74,2.322,2.322,0,1,0,0-4.644Z" transform="translate(-166.957 -166.957)"/>
        </g>
      </g>
    </g>
  </g>
</svg>
