<svg xmlns="http://www.w3.org/2000/svg" width="107" height="107" viewBox="0 0 107 107">
  <g id="Grupo_156312" data-name="Grupo 156312" transform="translate(0)">
    <circle id="Elipse_5845" data-name="Elipse 5845" cx="53.5" cy="53.5" r="53.5" transform="translate(0)" fill="#ffae7e"/>
    <g id="ola" transform="translate(18.808 31.439)">
      <path id="Trazado_828828" data-name="Trazado 828828" d="M55.506,265.449a12.528,12.528,0,0,0-8.107,2.809,9.078,9.078,0,0,1-11.539,0,12.525,12.525,0,0,0-8.107-2.809,12.527,12.527,0,0,0-8.107,2.809,8.637,8.637,0,0,1-5.769,2.069,8.637,8.637,0,0,1-5.769-2.069A12.53,12.53,0,0,0,0,265.449v4.065a8.633,8.633,0,0,1,5.769,2.07,12.53,12.53,0,0,0,8.107,2.809,12.528,12.528,0,0,0,8.107-2.809,8.634,8.634,0,0,1,5.769-2.07,8.636,8.636,0,0,1,5.769,2.07,13.106,13.106,0,0,0,16.215,0,9.076,9.076,0,0,1,11.539,0,12.528,12.528,0,0,0,8.107,2.809v-4.065a8.637,8.637,0,0,1-5.769-2.069A12.53,12.53,0,0,0,55.506,265.449Zm0,0" transform="translate(0 -229.477)"/>
      <path id="Trazado_828829" data-name="Trazado 828829" d="M55.506,88.484A12.528,12.528,0,0,0,47.4,91.293a9.076,9.076,0,0,1-11.539,0,12.528,12.528,0,0,0-8.107-2.809,12.528,12.528,0,0,0-8.107,2.809,8.637,8.637,0,0,1-5.769,2.07,8.637,8.637,0,0,1-5.769-2.07A12.531,12.531,0,0,0,0,88.484V92.55a8.636,8.636,0,0,1,5.769,2.069,12.526,12.526,0,0,0,8.107,2.809,12.528,12.528,0,0,0,8.107-2.809,8.637,8.637,0,0,1,5.769-2.069,8.638,8.638,0,0,1,5.769,2.069,13.1,13.1,0,0,0,16.215,0,9.078,9.078,0,0,1,11.539,0,12.525,12.525,0,0,0,8.107,2.809V93.363a8.637,8.637,0,0,1-5.769-2.07,12.531,12.531,0,0,0-8.107-2.809Zm0,0" transform="translate(0 -76.494)"/>
      <path id="Trazado_828830" data-name="Trazado 828830" d="M55.506,176.969a12.528,12.528,0,0,0-8.107,2.809,9.076,9.076,0,0,1-11.539,0,12.528,12.528,0,0,0-8.107-2.809,12.528,12.528,0,0,0-8.107,2.809,8.637,8.637,0,0,1-5.769,2.07,8.637,8.637,0,0,1-5.769-2.07A12.531,12.531,0,0,0,0,176.969v4.065A8.636,8.636,0,0,1,5.769,183.1a12.529,12.529,0,0,0,8.107,2.809,12.528,12.528,0,0,0,8.107-2.809,8.637,8.637,0,0,1,5.769-2.069,8.638,8.638,0,0,1,5.769,2.069,13.1,13.1,0,0,0,16.215,0,9.078,9.078,0,0,1,11.539,0,12.528,12.528,0,0,0,8.107,2.809v-4.065a8.637,8.637,0,0,1-5.769-2.07A12.531,12.531,0,0,0,55.506,176.969Zm0,0" transform="translate(0 -152.987)"/>
      <path id="Trazado_828831" data-name="Trazado 828831" d="M63.614,2.809a13.1,13.1,0,0,0-16.215,0,8.64,8.64,0,0,1-5.77,2.069A8.637,8.637,0,0,1,35.86,2.809,12.525,12.525,0,0,0,27.752,0a12.525,12.525,0,0,0-8.107,2.809,8.637,8.637,0,0,1-5.769,2.069A8.637,8.637,0,0,1,8.108,2.809,12.528,12.528,0,0,0,0,0V4.065A8.636,8.636,0,0,1,5.769,6.135a12.526,12.526,0,0,0,8.107,2.809,12.525,12.525,0,0,0,8.107-2.809,8.637,8.637,0,0,1,5.769-2.069,8.638,8.638,0,0,1,5.769,2.069,12.525,12.525,0,0,0,8.107,2.809,12.528,12.528,0,0,0,8.108-2.809,9.078,9.078,0,0,1,11.539,0,12.525,12.525,0,0,0,8.107,2.809V4.878A8.637,8.637,0,0,1,63.614,2.809Zm0,0"/>
    </g>
  </g>
</svg>
