<svg xmlns="http://www.w3.org/2000/svg" xmlns:xlink="http://www.w3.org/1999/xlink" width="224.899" height="225.093" viewBox="0 0 224.899 225.093">
  <defs>
    <clipPath id="clip-path">
      <path id="Trazado_828886" data-name="Trazado 828886" d="M1485.629,1619.849h-67.995l-1.131-25.827h69.125Z" transform="translate(-1416.504 -1594.022)" fill="none"/>
    </clipPath>
    <clipPath id="clip-path-2">
      <rect id="Rectángulo_378819" data-name="Rectángulo 378819" width="42.21" height="25.108" fill="none"/>
    </clipPath>
    <clipPath id="clip-path-3">
      <rect id="Rectángulo_378820" data-name="Rectángulo 378820" width="30.408" height="20.789" fill="none"/>
    </clipPath>
    <clipPath id="clip-path-4">
      <rect id="Rectángulo_378821" data-name="Rectángulo 378821" width="39.194" height="11.871" fill="none"/>
    </clipPath>
  </defs>
  <g id="Water_pollution" data-name="Water pollution" transform="translate(-335.787 -335)">
    <path id="Trazado_828839" data-name="Trazado 828839" d="M560.854,447.474q0,1.159-.024,2.309-.065,3.252-.314,6.459A112.323,112.323,0,0,1,460.7,559.285q-4.035.439-8.155.588h-.016q-1.471.053-2.956.07c-.274.005-.55.005-.824.005h-.165c-.331,0-.661,0-.992-.005q-1.565-.008-3.121-.065a112.9,112.9,0,0,1-16.167-1.726q-1.764-.317-3.5-.694c-.293-.06-.585-.125-.878-.19A112.314,112.314,0,0,1,336.385,457.09c-.024-.282-.046-.566-.068-.848q-.248-3.207-.314-6.459-.024-1.151-.024-2.309a112.438,112.438,0,1,1,224.875,0Z" transform="translate(-0.168)" fill="#d5fff5"/>
    <g id="Grupo_1075576" data-name="Grupo 1075576" transform="translate(365.385 335)">
      <path id="Trazado_828840" data-name="Trazado 828840" d="M908.733,408.3c5.151,4.613,15.259-8.748,23.259,8.472,4.721,10.162,11.083,2.214,16.895,6.688,3.777,2.908,6.847,8.6,5.41,18.22-2.169-.626-6.017-.14-8.186-.767-.232-2.192-.484-8.294-5.6-9.363-6.245-1.3-12.745,9.7-20.9,6.729-6.871-2.506-5.662-12.227-12.339-15.574-8.011-4.015-15.3.868-26.4,4.83-4.166,1.486-12.651,2.07-15.831,2.07-6.156,0-22.089-2.768-15.587-13.753,3.626-6.128-8.767-6.733-8.14-10.31C843.226,394.592,867.358,371.246,908.733,408.3Z" transform="translate(-808.705 -381.625)" fill="#fff" opacity="0.4"/>
      <g id="Grupo_1075574" data-name="Grupo 1075574" transform="translate(59.355 18.734)">
        <g id="Grupo_1075573" data-name="Grupo 1075573">
          <g id="Grupo_1075564" data-name="Grupo 1075564" transform="translate(41.635 38.39)">
            <g id="Grupo_1075562" data-name="Grupo 1075562" transform="translate(28.118)">
              <path id="Trazado_828841" data-name="Trazado 828841" d="M1649.2,841.478h-23.15l1.106-17.38,5.775-6.6-4.935-6.6.73-11.471h17.795l.73,11.471-4.935,6.6,5.775,6.6Z" transform="translate(-1626.055 -799.418)" fill="#d3bba3"/>
              <path id="Trazado_828842" data-name="Trazado 828842" d="M1635.05,905.886h20.937l-.841-13.209h-19.255Z" transform="translate(-1633.943 -881.206)" fill="#fff"/>
            </g>
            <g id="Grupo_1075563" data-name="Grupo 1075563">
              <path id="Trazado_828843" data-name="Trazado 828843" d="M1420.609,841.478h-23.15l1.106-17.38,5.775-6.6-4.935-6.6.73-11.471h17.795l.73,11.471-4.935,6.6,5.776,6.6Z" transform="translate(-1397.459 -799.418)" fill="#d3bba3"/>
              <path id="Trazado_828844" data-name="Trazado 828844" d="M1406.454,905.886h20.937l-.841-13.209h-19.255Z" transform="translate(-1405.348 -881.206)" fill="#fff"/>
            </g>
          </g>
          <g id="Grupo_1075565" data-name="Grupo 1075565" transform="translate(35.686 80.355)">
            <rect id="Rectángulo_378792" data-name="Rectángulo 378792" width="60.333" height="12.896" fill="#e6d0be"/>
            <rect id="Rectángulo_378793" data-name="Rectángulo 378793" width="57.16" height="2.16" transform="translate(1.552 2.916)" fill="#f7f1eb"/>
            <rect id="Rectángulo_378794" data-name="Rectángulo 378794" width="57.16" height="2.16" transform="translate(1.552 7.623)" fill="#f7f1eb"/>
          </g>
          <g id="Grupo_1075568" data-name="Grupo 1075568" transform="translate(3.71)">
            <g id="Grupo_1075566" data-name="Grupo 1075566" transform="translate(18.626)">
              <path id="Trazado_828845" data-name="Trazado 828845" d="M1240.553,584.215h11.421l-2.07-96.909h-7.282Z" transform="translate(-1240.553 -487.306)" fill="#fff"/>
              <path id="Trazado_828846" data-name="Trazado 828846" d="M1245.671,584.214h-5.118l2.07-96.909h3.048Z" transform="translate(-1240.553 -487.305)" fill="#f7f1eb"/>
              <path id="Trazado_828847" data-name="Trazado 828847" d="M1256.365,493.55l.125-6.245h7.282l.125,6.245Z" transform="translate(-1254.42 -487.305)" fill="#d3bba3"/>
              <path id="Trazado_828848" data-name="Trazado 828848" d="M1262.383,594.121h-8.025l.125-6.245h7.776Z" transform="translate(-1252.66 -575.506)" fill="#d3bba3"/>
              <path id="Trazado_828849" data-name="Trazado 828849" d="M1260.87,694.693h-8.518l.125-6.245h8.269Z" transform="translate(-1250.901 -663.707)" fill="#d3bba3"/>
              <path id="Trazado_828850" data-name="Trazado 828850" d="M1259.357,795.264h-9.012l.125-6.245h8.763Z" transform="translate(-1249.141 -751.908)" fill="#d3bba3"/>
            </g>
            <g id="Grupo_1075567" data-name="Grupo 1075567">
              <path id="Trazado_828851" data-name="Trazado 828851" d="M1089.125,584.215h11.421l-2.069-96.909h-7.282Z" transform="translate(-1089.125 -487.306)" fill="#fff"/>
              <path id="Trazado_828852" data-name="Trazado 828852" d="M1094.243,584.451h-5.118l2.069-96.876,3.049,0Z" transform="translate(-1089.125 -487.542)" fill="#f7f1eb"/>
              <path id="Trazado_828853" data-name="Trazado 828853" d="M1104.938,493.55l.125-6.245h7.282l.125,6.245Z" transform="translate(-1102.993 -487.305)" fill="#d3bba3"/>
              <path id="Trazado_828854" data-name="Trazado 828854" d="M1110.77,594.121h-8.051l.133-6.245h7.793Z" transform="translate(-1101.047 -575.506)" fill="#d3bba3"/>
              <path id="Trazado_828855" data-name="Trazado 828855" d="M1109.133,694.62h-8.562l.134-6.255,8.3.01Z" transform="translate(-1099.163 -663.635)" fill="#d3bba3"/>
              <path id="Trazado_828856" data-name="Trazado 828856" d="M1107.5,795.264h-9.073l.133-6.245h8.815Z" transform="translate(-1097.28 -751.908)" fill="#d3bba3"/>
            </g>
          </g>
          <g id="Grupo_1075570" data-name="Grupo 1075570" transform="translate(0 57.061)">
            <path id="Trazado_828857" data-name="Trazado 828857" d="M1091.783,963.126V951.209l-7.876,11.917V951.209l-7.876,11.917V951.209L1060.637,974.5h39.022V951.209Z" transform="translate(-1060.431 -951.209)" fill="#d3bba3"/>
            <rect id="Rectángulo_378795" data-name="Rectángulo 378795" width="35.686" height="19.171" transform="translate(0 17.019)" fill="#f7f1eb"/>
            <g id="Grupo_1075569" data-name="Grupo 1075569" transform="translate(5.472 20.699)">
              <rect id="Rectángulo_378796" data-name="Rectángulo 378796" width="4.373" height="8.168" transform="translate(25.719 8.168) rotate(180)" fill="#e6d0be"/>
              <rect id="Rectángulo_378797" data-name="Rectángulo 378797" width="4.373" height="8.168" transform="translate(15.046 8.168) rotate(180)" fill="#e6d0be"/>
              <rect id="Rectángulo_378798" data-name="Rectángulo 378798" width="4.373" height="8.168" transform="translate(4.373 8.168) rotate(180)" fill="#e6d0be"/>
            </g>
          </g>
          <g id="Grupo_1075572" data-name="Grupo 1075572" transform="translate(96.02 73.075)">
            <rect id="Rectángulo_378799" data-name="Rectángulo 378799" width="25.618" height="19.992" transform="translate(10.791)" fill="#d3bba3"/>
            <rect id="Rectángulo_378800" data-name="Rectángulo 378800" width="25.618" height="19.992" fill="#f7f1eb"/>
            <g id="Grupo_1075571" data-name="Grupo 1075571" transform="translate(2.631 2.779)">
              <rect id="Rectángulo_378801" data-name="Rectángulo 378801" width="4.012" height="4.011" fill="#e6d0be"/>
              <rect id="Rectángulo_378802" data-name="Rectángulo 378802" width="4.012" height="4.011" transform="translate(0 8.007)" fill="#e6d0be"/>
              <rect id="Rectángulo_378803" data-name="Rectángulo 378803" width="4.012" height="4.011" transform="translate(8.009)" fill="#e6d0be"/>
              <rect id="Rectángulo_378804" data-name="Rectángulo 378804" width="4.012" height="4.011" transform="translate(8.009 8.007)" fill="#e6d0be"/>
              <rect id="Rectángulo_378805" data-name="Rectángulo 378805" width="4.012" height="4.011" transform="translate(16.019)" fill="#e6d0be"/>
              <rect id="Rectángulo_378806" data-name="Rectángulo 378806" width="4.012" height="4.011" transform="translate(16.019 8.007)" fill="#e6d0be"/>
            </g>
          </g>
        </g>
      </g>
      <g id="Grupo_1075575" data-name="Grupo 1075575" transform="translate(0 0)">
        <path id="Trazado_828858" data-name="Trazado 828858" d="M634.33,337.865a4.653,4.653,0,0,0-2.272.589,6.238,6.238,0,0,0-11.621,1.222,4.536,4.536,0,0,0-6.35,4.076,5.645,5.645,0,1,0,3.136,7.64,4.67,4.67,0,0,0,8.342-.63,4.654,4.654,0,0,0,8.149-3.648,4.71,4.71,0,0,0,.616.042,4.645,4.645,0,1,0,0-9.29Z" transform="translate(-602.715 -335)" fill="#363e44" opacity="0.3"/>
        <path id="Trazado_828859" data-name="Trazado 828859" d="M609.833,399.363a5.569,5.569,0,0,0-2.719.705,7.465,7.465,0,0,0-13.907,1.462,5.429,5.429,0,0,0-7.6,4.878,6.755,6.755,0,1,0,3.753,9.142,5.589,5.589,0,0,0,9.983-.755,5.57,5.57,0,0,0,9.752-4.366,5.656,5.656,0,0,0,.738.05,5.559,5.559,0,1,0,0-11.117Z" transform="translate(-576.413 -388.44)" fill="#363e44" opacity="0.3"/>
        <path id="Trazado_828860" data-name="Trazado 828860" d="M1094.554,376.495a4.747,4.747,0,0,0,2.294.055,6.014,6.014,0,0,0,11.292,1.9,5.53,5.53,0,0,0,1.625.81c5.406,1.851,7.833-3.505,4.154-6.355,2.356-4.837-.812-6.978-2.429-7.419a5.766,5.766,0,0,0-5.458,1.661,4.654,4.654,0,0,0-2.938-2.36,4.469,4.469,0,0,0-5.558,2.98,4.213,4.213,0,0,0-.112.564,4.864,4.864,0,0,0-.572-.2,4.343,4.343,0,1,0-2.3,8.364Z" transform="translate(-1027.833 -360.971)" fill="#363e44" opacity="0.3"/>
        <path id="Trazado_828861" data-name="Trazado 828861" d="M1255.395,424.1a4.447,4.447,0,0,0-2.275-.335,6.052,6.052,0,0,0-3.618-5.358,6.144,6.144,0,0,0-7.3,1.986,4.3,4.3,0,0,0-1.478-1.055,4.507,4.507,0,0,0-5.859,2.364,5.38,5.38,0,0,0-1.658-1.121,5.7,5.7,0,0,0-4.546,10.446,5.551,5.551,0,0,0,5.942-1.045,4.516,4.516,0,0,0,2.682,3.669,4.576,4.576,0,0,0,5.055-1.02,4.48,4.48,0,0,0,2.517,2.857,4.637,4.637,0,0,0,6.052-2.49,4.829,4.829,0,0,0,.209-.584,4.484,4.484,0,0,0,.536.277,4.687,4.687,0,0,0,3.739-8.592Z" transform="translate(-1145.542 -407.716)" fill="#363e44" opacity="0.3"/>
        <path id="Trazado_828862" data-name="Trazado 828862" d="M881.995,359.019a5.053,5.053,0,0,0-2.524-.867,6.994,6.994,0,0,0-2.877-6.971,7.165,7.165,0,0,0-8.819.767,4.877,4.877,0,0,0-1.443-1.533,5.3,5.3,0,0,0-7.261,1.509,6.093,6.093,0,0,0-1.633-1.648,6.776,6.776,0,0,0-7.664,11.153,6.434,6.434,0,0,0,7.045.039,5.206,5.206,0,0,0,2.2,4.817,5.312,5.312,0,0,0,6.024-.119A5.135,5.135,0,0,0,867.253,370a5.45,5.45,0,0,0,7.512-1.613,5.915,5.915,0,0,0,.378-.633,5.051,5.051,0,0,0,.548.434,5.573,5.573,0,0,0,6.3-9.174Z" transform="translate(-813.774 -347.457)" fill="#363e44" opacity="0.3"/>
        <path id="Trazado_828863" data-name="Trazado 828863" d="M991.407,474.22a4.23,4.23,0,0,0,2.119.255,5.666,5.666,0,0,0,10.237,2.819,4.128,4.128,0,0,0,6.732-1.343,5.14,5.14,0,1,0,5.353-8.574c-1.932-.757-3.764-.8-5.171.542-.23-1.425-1.469-2.165-2.915-2.732a4.243,4.243,0,0,1-7.08-1.5,4.239,4.239,0,0,1-6.172,2.677,4.224,4.224,0,1,0-3.1,7.857Z" transform="translate(-938.005 -447.6)" fill="#363e44" opacity="0.3"/>
      </g>
    </g>
    <path id="Trazado_828864" data-name="Trazado 828864" d="M560.614,1245.111a101.59,101.59,0,0,1-1.415,18.618,112.508,112.508,0,0,1-91.774,92.891q-3.457.6-6.946.974-4.035.439-8.155.588h-.016q-1.471.053-2.956.07c-.274.005-.55.005-.824.005h-.165c-.331,0-.661,0-.992-.005-.992-.011-1.98-.032-2.967-.07a115.773,115.773,0,0,1-16.879-1.832q-1.479-.273-2.945-.583c-.293-.059-.585-.125-.878-.19a112.534,112.534,0,0,1-68.516-46.589q-19.469-28.619-19.4-63.878S560.614,1245.108,560.614,1245.111Z" transform="translate(0 -798.165)" fill="#c1e29a"/>
    <g id="Grupo_1075578" data-name="Grupo 1075578" transform="translate(505.805 356.754)">
      <path id="Trazado_828865" data-name="Trazado 828865" d="M1721.5,942.677a.123.123,0,0,1-.034,0l-3.346-.969a.123.123,0,0,1-.083-.155l19.578-61.742a.123.123,0,0,1,.061-.072.121.121,0,0,1,.094-.008l3.319,1.053a.123.123,0,0,1,.08.154l-19.552,61.658A.123.123,0,0,1,1721.5,942.677Zm-3.19-1.175,3.109.9,19.479-61.427-3.085-.979Z" transform="translate(-1718.03 -834.472)" fill="#363e44"/>
      <g id="Grupo_1075577" data-name="Grupo 1075577" transform="translate(2.836 0)">
        <path id="Trazado_828866" data-name="Trazado 828866" d="M1771.748,512.19l-29.073,15.134a2.953,2.953,0,0,0-1.255,3.982l15.129,29.082a2.951,2.951,0,0,0,3.98,1.256L1789.6,546.51a2.953,2.953,0,0,0,1.256-3.982l-15.129-29.082A2.951,2.951,0,0,0,1771.748,512.19Z" transform="translate(-1741.086 -511.856)" fill="#d87355"/>
        <path id="Trazado_828867" data-name="Trazado 828867" d="M1792.964,591.731a.777.777,0,0,1-.458-.384l-13.423-25.8a.781.781,0,0,1,.332-1.053l25.794-13.428a.781.781,0,0,1,1.053.332l13.423,25.8a.781.781,0,0,1-.332,1.053l-25.794,13.428A.778.778,0,0,1,1792.964,591.731Z" transform="translate(-1774.332 -546.163)" fill="#fff"/>
        <path id="Trazado_828868" data-name="Trazado 828868" d="M1881.639,621.12h0a8.386,8.386,0,0,0-10.521,5.477l-2.189,6.941a2.275,2.275,0,0,0,1.484,2.854l1.013.32-1.615,5.12,1.668.53.809-2.564.965.3-.809,2.564,1.718.55.808-2.564,1,.319-.808,2.564,1.648.509.808-2.564.965.34-.809,2.564,1.668.491,1.615-5.121,1.013.32a2.274,2.274,0,0,0,2.853-1.485l2.189-6.941A8.39,8.39,0,0,0,1881.639,621.12Zm-7.723,11.7a1.993,1.993,0,1,1,2.5-1.3A1.993,1.993,0,0,1,1873.916,632.824Zm7.335,2.315a1.993,1.993,0,1,1,2.5-1.3A1.993,1.993,0,0,1,1881.251,635.139Z" transform="translate(-1853.112 -607.338)" fill="#363e44"/>
      </g>
    </g>
    <path id="Trazado_828869" data-name="Trazado 828869" d="M1291.057,1292.473a3.417,3.417,0,0,0-3.031,1.635,4.432,4.432,0,0,0-3.425-1.508,4.9,4.9,0,0,0-1.227.155,3.212,3.212,0,0,0,.03-.431c0-2.085-2.013-3.776-4.5-3.776a5.105,5.105,0,0,0-2.468.62c-.48-2.506-3.067-4.421-6.187-4.421-3.359,0-6.1,2.219-6.261,5.007a5.458,5.458,0,0,0-2.557-.621,5.517,5.517,0,0,0-2.273.48,3.917,3.917,0,0,0,.149-1.066c0-2.548-2.46-4.614-5.495-4.614s-5.724,1.872-5.724,4.42c0,.1-.021.317-.013.419a3.837,3.837,0,0,0-1.529-.225,4.489,4.489,0,0,0-4.282,2.621,5.322,5.322,0,0,0-4.552-2.318,5.2,5.2,0,0,0-4.784,2.746,4.781,4.781,0,0,0-2.89-.937,4.386,4.386,0,0,0-3.991,2.245,4.182,4.182,0,0,0-4.241-2.963c-2.384,0-4.316,1.623-4.316,3.624a3.077,3.077,0,0,0,.155.952,4.707,4.707,0,0,0-3.171-1.171,4.135,4.135,0,0,0-4.272,3.134h83.861a2.413,2.413,0,0,0,.328-1.206A3.1,3.1,0,0,0,1291.057,1292.473Zm-65.442,2.8a3.37,3.37,0,0,0,.184-.328,3.079,3.079,0,0,0,.092.328Z" transform="translate(-766.862 -832.214)" fill="#f7f1eb"/>
    <path id="Trazado_828870" data-name="Trazado 828870" d="M538.393,1307.125a2.537,2.537,0,0,0-2.381,1.656,2.912,2.912,0,0,0-3.34-1.286h0a3.573,3.573,0,0,0-5.485-3.534,4.843,4.843,0,0,0-9.483.989l0,0a4.172,4.172,0,0,0-5.807-.031l0,0a3.492,3.492,0,0,0-6.977-.023,3.305,3.305,0,0,0-4.33.65,3.282,3.282,0,0,0-6.355.821,2.991,2.991,0,0,0-4.95,1.582,2.1,2.1,0,0,0-1.562.136,2.011,2.011,0,0,0-.641.5,2.069,2.069,0,0,0-.417.762,2.4,2.4,0,0,0-3.841.266,2.359,2.359,0,0,0-.37,1.106,1.856,1.856,0,0,0,.141.235H502.65a2.985,2.985,0,0,0,.932,0h32.624c.031.055.068.109.1.162.018-.055.031-.107.045-.162h4.227a2.538,2.538,0,0,0-2.185-3.832Zm-31.98.877c0-.017,0-.033,0-.05l.075.05h-.077Zm3.926-.018c.092-.062.182-.128.268-.2,0,.047,0,.1,0,.146v.052Z" transform="translate(-128.618 -846.709)" fill="#f7f1eb"/>
    <g id="Grupo_1075583" data-name="Grupo 1075583" transform="translate(336.044 393.11)">
      <g id="Grupo_1075579" data-name="Grupo 1075579" transform="translate(34.906 29.011)">
        <rect id="Rectángulo_378807" data-name="Rectángulo 378807" width="30.082" height="4.625" rx="2.313" transform="translate(39.623 80.658)" fill="#363e44"/>
        <path id="Trazado_828871" data-name="Trazado 828871" d="M777.22,1385.933H641.382a2.312,2.312,0,0,0-2.312,2.313h0a2.312,2.312,0,0,0,2.312,2.313H661.95a2.253,2.253,0,0,1,1.907,2.414v.211a2.308,2.308,0,0,1-1.908,2.414H623.974a2.313,2.313,0,0,0,0,4.625h29.412a2.406,2.406,0,0,1,2.177,2.414v.211a2.4,2.4,0,0,1-2.177,2.414h-16.08a2.312,2.312,0,0,0-2.312,2.313h0a2.312,2.312,0,0,0,2.312,2.313h47.407a2.421,2.421,0,0,1,2.213,2.415v.211a2.419,2.419,0,0,1-2.213,2.412H668.5a2.312,2.312,0,0,0-2.312,2.313h0a2.312,2.312,0,0,0,2.312,2.312h42.231a2.312,2.312,0,0,0,2.312-2.312h0a2.312,2.312,0,0,0-2.312-2.313H701.6a2.413,2.413,0,0,1-2.365-2.412v-.211a2.415,2.415,0,0,1,2.414-2.415h41.912a2.313,2.313,0,0,0,2.312-2.313h0a2.312,2.312,0,0,0-2.312-2.313H705.5a2.414,2.414,0,0,1-2.388-2.414v-.211a2.414,2.414,0,0,1,2.391-2.414h24.433a2.313,2.313,0,0,0,0-4.625H694.172a2.28,2.28,0,0,1-2.115-2.414v-.211a2.283,2.283,0,0,1,2.092-2.413H777.22a2.312,2.312,0,0,0,2.312-2.313h0A2.312,2.312,0,0,0,777.22,1385.933Zm-83.138,16.7v.211a2.42,2.42,0,0,1-2.213,2.414H666.823a2.4,2.4,0,0,1-2.375-2.414v-.211a2.4,2.4,0,0,1,2.375-2.414h25.045A2.42,2.42,0,0,1,694.082,1402.636Zm-12.807-9.664v.211a2.318,2.318,0,0,1-1.939,2.414h-2.788a2.266,2.266,0,0,1-2.081-2.414v-.211a2.266,2.266,0,0,1,2.081-2.414h2.782A2.322,2.322,0,0,1,681.274,1392.971Z" transform="translate(-621.662 -1343.788)" fill="#363e44"/>
        <path id="Trazado_828872" data-name="Trazado 828872" d="M910.386,1085.441a3.088,3.088,0,0,1-1.451-.295,2.193,2.193,0,0,1-.869-.843,4.413,4.413,0,0,1-.493-1.481c-1.868-10.187-6.447-19.853-13.917-27.115a45.08,45.08,0,0,0-3.446-3.026c-6.111-4.836-14.073-8.649-21.914-9.384h-.012s-9.643,8.6,1.336,13.656c3.039,1.4,4.879,4.324,5.885,7.411,1.658,5.086,1.43,10.35,1.108,15.608-.132,2.149-.257,5.494-3.163,5.47l14.084,1.9Z" transform="translate(-834.515 -1043.296)" fill="#363e44"/>
      </g>
      <g id="Grupo_1075582" data-name="Grupo 1075582" transform="translate(0)">
        <g id="Grupo_1075580" data-name="Grupo 1075580" transform="translate(0 13.187)">
          <rect id="Rectángulo_378808" data-name="Rectángulo 378808" width="68.784" height="28.83" transform="translate(0 1.734)" fill="#84524d"/>
          <rect id="Rectángulo_378809" data-name="Rectángulo 378809" width="2.817" height="31.648" transform="translate(67.267)" fill="#bc8271"/>
          <rect id="Rectángulo_378810" data-name="Rectángulo 378810" width="13.869" height="33.093" rx="6.934" transform="translate(24.794)" fill="#bc8271"/>
        </g>
        <g id="Grupo_1075581" data-name="Grupo 1075581" transform="translate(22.735)">
          <ellipse id="Elipse_5932" data-name="Elipse 5932" cx="5.119" cy="5.121" rx="5.119" ry="5.121" transform="translate(4.002 2.944)" fill="#bc8271"/>
          <rect id="Rectángulo_378811" data-name="Rectángulo 378811" width="18.203" height="5.636" transform="translate(0 7.551)" fill="#84524d"/>
          <rect id="Rectángulo_378812" data-name="Rectángulo 378812" width="1.968" height="1.617" transform="translate(8.126 1.526)" fill="#bc8271"/>
          <rect id="Rectángulo_378813" data-name="Rectángulo 378813" width="15.024" height="1.526" transform="translate(1.463)" fill="#84524d"/>
        </g>
      </g>
    </g>
    <g id="Grupo_1075589" data-name="Grupo 1075589" transform="translate(468.717 489.862)">
      <path id="Trazado_828873" data-name="Trazado 828873" d="M1438.639,1790.137h-9.009a.123.123,0,1,1,0-.246h9.009a.123.123,0,1,1,0,.246Z" transform="translate(-1427.908 -1765.799)" fill="#f7f1eb"/>
      <g id="Grupo_1075584" data-name="Grupo 1075584" transform="translate(6.737 25.973)">
        <path id="Trazado_828874" data-name="Trazado 828874" d="M1604.2,1826.687h-30.249a.123.123,0,0,1,0-.246H1604.2a.123.123,0,0,1,0,.246Z" transform="translate(-1561.218 -1823.826)" fill="#f7f1eb"/>
        <path id="Trazado_828875" data-name="Trazado 828875" d="M1801.781,1845.87h-9.371a.123.123,0,1,1,0-.246h9.371a.123.123,0,1,1,0,.246Z" transform="translate(-1752.802 -1840.65)" fill="#f7f1eb"/>
        <path id="Trazado_828876" data-name="Trazado 828876" d="M1530.886,1805.431H1471.4a.123.123,0,1,1,0-.246h59.486a.123.123,0,1,1,0,.246Z" transform="translate(-1471.277 -1805.185)" fill="#f7f1eb"/>
      </g>
      <g id="Grupo_1075588" data-name="Grupo 1075588" transform="translate(0 0)">
        <g id="Grupo_1075587" data-name="Grupo 1075587" clip-path="url(#clip-path)">
          <g id="Grupo_1075586" data-name="Grupo 1075586" transform="translate(6.728 2.436)">
            <rect id="Rectángulo_378814" data-name="Rectángulo 378814" width="54.813" height="33.034" transform="translate(49.675 56.843) rotate(-150.582)" fill="#f7f1eb"/>
            <rect id="Rectángulo_378815" data-name="Rectángulo 378815" width="51.006" height="29.818" transform="translate(48.714 54.316) rotate(-150.582)" fill="#776e42"/>
            <path id="Trazado_828877" data-name="Trazado 828877" d="M1519.073,1669.775a.12.12,0,0,1-.06-.016l-47.746-26.922a.123.123,0,0,1-.047-.167l16.217-28.779a.122.122,0,0,1,.167-.047l47.745,26.922a.123.123,0,0,1,.047.167l-16.217,28.779a.124.124,0,0,1-.074.058A.126.126,0,0,1,1519.073,1669.775Zm-47.578-27.092,47.531,26.8,16.1-28.565-47.531-26.8Z" transform="translate(-1471.205 -1613.828)" fill="#363e44"/>
            <rect id="Rectángulo_378816" data-name="Rectángulo 378816" width="10.847" height="6.537" transform="translate(46.804 17.201) rotate(-150.582)" fill="#f7f1eb"/>
            <path id="Trazado_828878" data-name="Trazado 828878" d="M1771.752,1625.123l16.662,9.4h0a4.512,4.512,0,0,1-4.621.112l-9.744-5.494a4.515,4.515,0,0,1-2.3-4.013Z" transform="translate(-1734.784 -1623.734)" fill="#f7f1eb"/>
            <path id="Trazado_828879" data-name="Trazado 828879" d="M1774.417,1669.213a.12.12,0,0,1-.06-.016l-9.449-5.328a.123.123,0,0,1-.047-.167l3.209-5.7a.123.123,0,0,1,.168-.047l9.448,5.328a.123.123,0,0,1,.047.167l-3.209,5.7a.123.123,0,0,1-.074.058A.128.128,0,0,1,1774.417,1669.213Zm-9.281-5.5,9.234,5.207,3.088-5.481-9.234-5.207Z" transform="translate(-1728.727 -1652.518)" fill="#363e44"/>
            <path id="Trazado_828880" data-name="Trazado 828880" d="M1785.132,1634.458a4.632,4.632,0,0,1-2.277-.6l-9.744-5.494a4.634,4.634,0,0,1-2.359-4.122.123.123,0,0,1,.183-.1l16.662,9.4a.123.123,0,0,1,.005.211A4.633,4.633,0,0,1,1785.132,1634.458Zm-14.133-10a4.388,4.388,0,0,0,2.233,3.694l9.744,5.494a4.384,4.384,0,0,0,4.315,0Z" transform="translate(-1733.906 -1622.856)" fill="#363e44"/>
            <g id="Grupo_1075585" data-name="Grupo 1075585" transform="translate(15.285 2.871)">
              <path id="Trazado_828881" data-name="Trazado 828881" d="M1633.041,1652.38a.123.123,0,0,1-.088-.037l-3.772-3.855a.123.123,0,0,1-.023-.139l1.538-3.195-1.351-.651a.123.123,0,0,1-.07-.111l.006-3.191-2.5-.661a.123.123,0,0,1-.079-.065l-1.531-3.131a.123.123,0,0,1,.221-.108l1.507,3.081,2.542.671a.123.123,0,0,1,.092.119l-.006,3.209,1.392.671a.123.123,0,0,1,.057.164l-1.554,3.228,3.711,3.793a.123.123,0,0,1-.088.209Z" transform="translate(-1621.503 -1637.167)" fill="#f2e6dc"/>
              <path id="Trazado_828882" data-name="Trazado 828882" d="M1657.726,1711.433a.123.123,0,0,1-.02-.244l3.045-.507,1.458-1.74a.123.123,0,0,1,.093-.044.118.118,0,0,1,.094.042l1.354,1.549,2.089.11a.123.123,0,0,1,.116.129.121.121,0,0,1-.129.116l-2.141-.113a.122.122,0,0,1-.086-.042l-1.294-1.48-1.4,1.664a.125.125,0,0,1-.074.042l-3.09.515Z" transform="translate(-1649.961 -1700.075)" fill="#f2e6dc"/>
              <path id="Trazado_828883" data-name="Trazado 828883" d="M1645,1712.761a.12.12,0,0,1-.036-.005l-1.469-.455a.123.123,0,0,1-.083-.089l-.277-1.181-1.579-.761-2.05-.443a.123.123,0,0,1-.08-.183l1.061-1.779-2.022-3.372a.123.123,0,0,1,.022-.153l3.948-3.671a.123.123,0,0,1,.167.18l-3.875,3.6,2.009,3.349a.124.124,0,0,1,0,.126l-1.011,1.7,1.9.41a.117.117,0,0,1,.027.009l1.645.792a.123.123,0,0,1,.066.083l.274,1.169,1.4.434a.123.123,0,0,1-.036.24Z" transform="translate(-1633.158 -1692.829)" fill="#f2e6dc"/>
              <path id="Trazado_828884" data-name="Trazado 828884" d="M1602.059,1690.4a.123.123,0,0,1-.11-.067l-1.237-2.433-1.536-.173a.123.123,0,0,1-.071-.033l-1.679-1.587-1.841-.113a.123.123,0,0,1-.115-.13.121.121,0,0,1,.13-.115l1.886.116a.123.123,0,0,1,.077.033l1.682,1.589,1.561.176a.123.123,0,0,1,.1.067l1.267,2.492a.123.123,0,0,1-.11.179Z" transform="translate(-1595.471 -1679.77)" fill="#f2e6dc"/>
              <path id="Trazado_828885" data-name="Trazado 828885" d="M1597.161,1728.531a.124.124,0,0,1-.081-.031l-1.2-1.052a.123.123,0,1,1,.163-.185l1.151,1.014,1.857-.312.577-2.061a.123.123,0,0,1,.164-.081l1.455.574a.123.123,0,0,1-.09.229l-1.328-.524-.561,2.005a.123.123,0,0,1-.1.088l-1.992.335Z" transform="translate(-1595.797 -1714.911)" fill="#f2e6dc"/>
            </g>
          </g>
        </g>
      </g>
    </g>
    <g id="Grupo_1075593" data-name="Grupo 1075593" transform="translate(438.907 520.932)">
      <g id="Grupo_1075592" data-name="Grupo 1075592" transform="translate(0 0)">
        <g id="Grupo_1075591" data-name="Grupo 1075591" clip-path="url(#clip-path-2)">
          <g id="Grupo_1075590" data-name="Grupo 1075590" transform="translate(5.236 0.254)">
            <path id="Trazado_828887" data-name="Trazado 828887" d="M1268.852,1904.035l-13.09,5.468-9.954-23.845-2.04-13.451,7-2.925,8.128,10.908Z" transform="translate(-1240.441 -1866.75)" fill="#f7f1eb"/>
            <rect id="Rectángulo_378817" data-name="Rectángulo 378817" width="14.246" height="8.57" transform="translate(5.773 22.795) rotate(-22.671)" fill="#d87355"/>
            <path id="Trazado_828888" data-name="Trazado 828888" d="M1246.637,1912.194a.123.123,0,0,1-.114-.076l-7.864-18.839a44.24,44.24,0,0,1-2.911-10.4l-1.227-8.087a.123.123,0,0,1,.074-.132l7-2.925a.123.123,0,0,1,.146.04l4.887,6.558a44.227,44.227,0,0,1,5.345,9.381l7.864,18.839a.123.123,0,0,1-.066.161l-13.09,5.468A.125.125,0,0,1,1246.637,1912.194Zm-11.858-37.342,1.212,7.992a43.984,43.984,0,0,0,2.9,10.34l7.817,18.726,12.863-5.373-7.817-18.726a43.98,43.98,0,0,0-5.316-9.329L1241.6,1872Z" transform="translate(-1232.33 -1868.895)" fill="#363e44"/>
            <rect id="Rectángulo_378818" data-name="Rectángulo 378818" width="10.209" height="2.978" rx="1.489" transform="translate(0 3.935) rotate(-22.671)" fill="#d87355"/>
          </g>
        </g>
      </g>
      <path id="Trazado_828889" data-name="Trazado 828889" d="M1267.418,2050H1243.99a.123.123,0,1,1,0-.246h23.428a.123.123,0,1,1,0,.246Z" transform="translate(-1235.292 -2024.766)" fill="#f7f1eb"/>
      <path id="Trazado_828890" data-name="Trazado 828890" d="M1402.394,2036.338h-7.2a.123.123,0,1,1,0-.246h7.2a.123.123,0,1,1,0,.246Z" transform="translate(-1367.901 -2012.787)" fill="#f7f1eb"/>
    </g>
    <g id="Grupo_1075598" data-name="Grupo 1075598" transform="translate(386.336 512.697)">
      <g id="Grupo_1075596" data-name="Grupo 1075596" transform="translate(1.484)">
        <g id="Grupo_1075595" data-name="Grupo 1075595" clip-path="url(#clip-path-3)">
          <g id="Grupo_1075594" data-name="Grupo 1075594" transform="translate(5.953 2.514)">
            <path id="Trazado_828891" data-name="Trazado 828891" d="M813.923,1838.555a8.93,8.93,0,1,0,15-3.978l.561-2.744a4.4,4.4,0,0,0-3.181-5.132h0a4.4,4.4,0,0,0-5.3,2.884l-.87,2.662A8.925,8.925,0,0,0,813.923,1838.555Z" transform="translate(-812.834 -1823.302)" fill="#f7f1eb"/>
            <path id="Trazado_828892" data-name="Trazado 828892" d="M886.147,1800.225h0a3.3,3.3,0,0,1,2.345,4.036l-.247.934-6.38-1.691.247-.934A3.3,3.3,0,0,1,886.147,1800.225Z" transform="translate(-872.681 -1800.114)" fill="#d87355"/>
            <path id="Trazado_828893" data-name="Trazado 828893" d="M816.253,1842.635a9.055,9.055,0,0,1-8.737-11.374,9.1,9.1,0,0,1,6.225-6.377l.85-2.6a4.519,4.519,0,0,1,8.722,2.311l-.548,2.68a9.065,9.065,0,0,1-6.512,15.36Zm-8.618-11.343.119.031a8.81,8.81,0,0,0,6.6,10.855,8.585,8.585,0,0,0,1.876.207,8.894,8.894,0,0,0,8.39-6,8.8,8.8,0,0,0-2.073-8.981.124.124,0,0,1-.033-.111l.561-2.744a4.273,4.273,0,0,0-8.248-2.185l-.87,2.662a.123.123,0,0,1-.083.08,8.854,8.854,0,0,0-6.117,6.221Z" transform="translate(-807.209 -1816.824)" fill="#363e44"/>
            <path id="Trazado_828894" data-name="Trazado 828894" d="M858.931,1849.785a.123.123,0,0,1-.073-.024l-1.791-1.318-1.83.808a.124.124,0,0,1-.147-.037l-1.2-1.539-2.08.546a.123.123,0,0,1-.145-.165l4.358-10.9a.123.123,0,1,1,.229.091l-4.268,10.672,1.922-.5a.122.122,0,0,1,.128.043l1.19,1.528,1.807-.8a.123.123,0,0,1,.123.013l1.677,1.234,1.247-11.161a.123.123,0,1,1,.245.027l-1.271,11.372a.123.123,0,0,1-.122.109Z" transform="translate(-846.189 -1832.534)" fill="#363e44"/>
          </g>
        </g>
      </g>
      <g id="Grupo_1075597" data-name="Grupo 1075597" transform="translate(0 20.666)">
        <path id="Trazado_828895" data-name="Trazado 828895" d="M802.776,1947.934H778.488a.123.123,0,1,1,0-.246h24.289a.123.123,0,1,1,0,.246Z" transform="translate(-774.476 -1947.688)" fill="#f7f1eb"/>
        <path id="Trazado_828896" data-name="Trazado 828896" d="M761.854,1965.287H746.873a.123.123,0,0,1,0-.246h14.981a.123.123,0,0,1,0,.246Z" transform="translate(-746.75 -1962.906)" fill="#f7f1eb"/>
      </g>
    </g>
    <g id="Grupo_1075604" data-name="Grupo 1075604" transform="translate(361.42 497.586)">
      <path id="Trazado_828897" data-name="Trazado 828897" d="M674.6,1742.733H651.168a.123.123,0,0,1,0-.246H674.6a.123.123,0,0,1,0,.246Z" transform="translate(-637.9 -1731.95)" fill="#f7f1eb"/>
      <path id="Trazado_828898" data-name="Trazado 828898" d="M712.469,1769.784h-9.846a.123.123,0,1,1,0-.246h9.846a.123.123,0,1,1,0,.246Z" transform="translate(-683.026 -1755.674)" fill="#f7f1eb"/>
      <path id="Trazado_828899" data-name="Trazado 828899" d="M569.7,1754.786H546.269a.123.123,0,1,1,0-.246H569.7a.123.123,0,1,1,0,.246Z" transform="translate(-545.904 -1742.521)" fill="#f7f1eb"/>
      <g id="Grupo_1075603" data-name="Grupo 1075603" transform="translate(0 0)">
        <g id="Grupo_1075602" data-name="Grupo 1075602" clip-path="url(#clip-path-4)">
          <g id="Grupo_1075601" data-name="Grupo 1075601" transform="translate(1.188 0.971)">
            <path id="Trazado_828900" data-name="Trazado 828900" d="M592.47,1715.583a5.261,5.261,0,0,1-1.526-.2.123.123,0,1,1,.072-.235c2.307.7,6.108-.679,8.883-1.688.787-.286,1.53-.556,2.131-.739a49.565,49.565,0,0,1,11.965-1.338.123.123,0,0,1-.008.246,49.231,49.231,0,0,0-11.885,1.328c-.594.181-1.335.45-2.118.735C597.717,1714.513,594.775,1715.583,592.47,1715.583Z" transform="translate(-586.303 -1705.629)" fill="#363e44"/>
            <path id="Trazado_828901" data-name="Trazado 828901" d="M554.023,1697.455a.124.124,0,0,1-.051-.011.123.123,0,0,1-.072-.108,5.57,5.57,0,0,1,.688-2.533c.629-1.2,2.75-2.062,3.565-2.355-3.283-1.447-4.278-6.712-4.32-6.942a.123.123,0,0,1,.222-.091,4.487,4.487,0,0,0,2.062,1.407c2.044.76,3.229,3.284,3.417,4.833a3.287,3.287,0,0,1-2.209,3.917,15.054,15.054,0,0,0-3.225,1.855A.123.123,0,0,1,554.023,1697.455Zm.155-11.533c.336,1.377,1.548,5.43,4.372,6.418a.123.123,0,0,1,0,.233c-.03.009-3.019.967-3.74,2.344a5.757,5.757,0,0,0-.649,2.156,16.375,16.375,0,0,1,3.07-1.727,3.045,3.045,0,0,0,2.064-3.662c-.175-1.445-1.332-3.916-3.258-4.632A5.284,5.284,0,0,1,554.178,1685.922Z" transform="translate(-553.832 -1682.821)" fill="#363e44"/>
            <path id="Trazado_828902" data-name="Trazado 828902" d="M624.129,1713.852a.121.121,0,0,1-.063-.018.123.123,0,0,1-.042-.169c1.74-2.907-1.168-6.35-1.2-6.384a.123.123,0,0,1,.187-.161c.031.036,3.052,3.613,1.222,6.671A.123.123,0,0,1,624.129,1713.852Z" transform="translate(-614.314 -1701.868)" fill="#363e44"/>
            <path id="Trazado_828903" data-name="Trazado 828903" d="M645.35,1707.6a.123.123,0,0,1-.1-.192c2-2.972-1.561-7.194-1.6-7.237a.123.123,0,1,1,.187-.16c.153.178,3.719,4.406,1.615,7.534A.123.123,0,0,1,645.35,1707.6Z" transform="translate(-632.577 -1695.637)" fill="#363e44"/>
            <path id="Trazado_828904" data-name="Trazado 828904" d="M665.094,1698.138a.123.123,0,0,1-.1-.188c1.909-3.037-2.212-8.218-2.254-8.27a.123.123,0,0,1,.192-.154c.175.218,4.271,5.371,2.27,8.555A.123.123,0,0,1,665.094,1698.138Z" transform="translate(-649.317 -1686.434)" fill="#363e44"/>
            <path id="Trazado_828905" data-name="Trazado 828905" d="M688.693,1690.138a.123.123,0,0,1-.11-.178c2.112-4.21-2.208-10.007-2.252-10.065a.123.123,0,0,1,.2-.148c.045.059,4.456,5.977,2.276,10.324A.123.123,0,0,1,688.693,1690.138Z" transform="translate(-670.011 -1677.855)" fill="#363e44"/>
            <path id="Trazado_828906" data-name="Trazado 828906" d="M713.454,1683.9a.121.121,0,0,1-.054-.013.123.123,0,0,1-.056-.165c2.189-4.457-2.306-11.01-2.352-11.075a.123.123,0,1,1,.2-.141c.047.067,4.623,6.738,2.371,11.324A.123.123,0,0,1,713.454,1683.9Z" transform="translate(-691.642 -1671.503)" fill="#363e44"/>
            <path id="Trazado_828907" data-name="Trazado 828907" d="M740.527,1678.09a.119.119,0,0,1-.049-.01.123.123,0,0,1-.064-.162c2.61-6.041-1.827-12.062-1.872-12.122a.123.123,0,1,1,.2-.148c.046.061,4.568,6.194,1.9,12.367A.123.123,0,0,1,740.527,1678.09Z" transform="translate(-715.8 -1665.49)" fill="#363e44"/>
            <g id="Grupo_1075599" data-name="Grupo 1075599" transform="translate(26.882 0.123)">
              <path id="Trazado_828908" data-name="Trazado 828908" d="M780.694,1671.4c-.2-1.186,2.487-.2,2.12-.75s-9.087-5.969-10.133-4.753,1.047,3.189.874,6.314c-.131,2.367-.281,6.734,1.276,6.044.994-.443,8.164-5.706,8.164-5.706C782.822,1671.493,780.867,1672.4,780.694,1671.4Zm-3.511,3.489c-.683.146-1.189-.537-1.4-1.5s.177-1.872.863-2.022,1.407.521,1.613,1.489A1.718,1.718,0,0,1,777.183,1674.884Z" transform="translate(-772.385 -1665.714)" fill="#e0aa63"/>
            </g>
            <g id="Grupo_1075600" data-name="Grupo 1075600" transform="translate(26.759)">
              <path id="Trazado_828909" data-name="Trazado 828909" d="M773.639,1677.57a.649.649,0,0,1-.376-.119c-.9-.62-.851-3.6-.711-6.128a9.154,9.154,0,0,0-.72-3.717c-.4-1.111-.714-1.988-.124-2.671a.868.868,0,0,1,.739-.216c1.339.08,4.046,1.506,5.54,2.349a25.735,25.735,0,0,1,4.05,2.632.224.224,0,0,1,.031.25c-.089.154-.352.134-.786.1-.455-.034-1.077-.081-1.282.143a.343.343,0,0,0-.062.3c.064.372.427.419,1.016.453.553.031,1.18.068,1.283.7a.123.123,0,0,1-.048.119c-.293.215-7.192,5.276-8.186,5.719A.892.892,0,0,1,773.639,1677.57Zm-1.31-12.609a.562.562,0,0,0-.435.134c-.5.575-.217,1.352.169,2.427a9.356,9.356,0,0,1,.735,3.813c-.073,1.309-.293,5.291.605,5.912a.48.48,0,0,0,.5.013c.921-.41,7.357-5.119,8.076-5.646-.1-.339-.465-.386-1.039-.419-.536-.031-1.143-.065-1.245-.657h0a.58.58,0,0,1,.123-.511c.286-.313.95-.263,1.483-.223a3.576,3.576,0,0,0,.522.017c-.424-.51-7.136-4.723-9.389-4.858C772.4,1664.962,772.361,1664.961,772.329,1664.961Zm3.791,9.19a1.034,1.034,0,0,1-.786-.4,2.749,2.749,0,0,1-.547-1.225,1.723,1.723,0,0,1,.957-2.168,1.229,1.229,0,0,1,1.095.357,2.331,2.331,0,0,1,.665,1.227,1.832,1.832,0,0,1-1.174,2.183h0A1,1,0,0,1,776.119,1674.151Zm.183-.143h0Zm-.342-3.424a.78.78,0,0,0-.165.017c-.618.135-.963.977-.768,1.876a2.508,2.508,0,0,0,.492,1.116.757.757,0,0,0,.758.295,1.6,1.6,0,0,0,.986-1.891,2.086,2.086,0,0,0-.591-1.1A1.065,1.065,0,0,0,775.96,1670.584Z" transform="translate(-771.381 -1664.715)" fill="#363e44"/>
            </g>
          </g>
        </g>
      </g>
    </g>
  </g>
</svg>
