<svg xmlns="http://www.w3.org/2000/svg" width="87.176" height="111.17" viewBox="0 0 87.176 111.17">
  <g id="gota-de-agua" transform="translate(-55.111)">
    <g id="Grupo_1075633" data-name="Grupo 1075633" transform="translate(57.288 2.177)">
      <g id="Grupo_1075631" data-name="Grupo 1075631" transform="translate(0)">
        <path id="Trazado_828982" data-name="Trazado 828982" d="M141.223,72.294A38.309,38.309,0,1,1,72.581,55.778l0,0L103.418,10l19.76,29.332" transform="translate(-65.111 -10)" fill="#a3e0fb"/>
      </g>
      <g id="Grupo_1075632" data-name="Grupo 1075632" transform="translate(48.535 18.031)">
        <path id="Trazado_828983" data-name="Trazado 828983" d="M288.068,123.492a17.066,17.066,0,0,1,3.343-10.173v0l13.8-20.485,13.8,20.485v0a17.144,17.144,0,1,1-30.944,10.173Z" transform="translate(-288.068 -92.831)" fill="#4696e6"/>
      </g>
    </g>
    <g id="Grupo_1075634" data-name="Grupo 1075634" transform="translate(55.111 0)">
      <path id="Trazado_828984" data-name="Trazado 828984" d="M119.172,285.047a25.521,25.521,0,0,1-12.953-39.5,2.219,2.219,0,0,0,.2-.322,2.177,2.177,0,0,0-3.723-2.232,29.874,29.874,0,0,0,.133,35.563A30.116,30.116,0,0,0,117.879,289.2a2.177,2.177,0,0,0,1.293-4.157Z" transform="translate(-87.796 -189.376)"/>
      <path id="Trazado_828985" data-name="Trazado 828985" d="M142.287,50.869a19.167,19.167,0,0,0-3.735-11.421l-13.78-20.456a2.177,2.177,0,0,0-3.611,0l-5.807,8.62L97.4.961a2.177,2.177,0,0,0-3.611,0L62.971,46.711A40.485,40.485,0,1,0,136.08,70.685a40.865,40.865,0,0,0-.35-5.325A19.279,19.279,0,0,0,142.287,50.869ZM122.966,24.1,134.94,41.88q.036.056.076.109a14.967,14.967,0,1,1-24.1,0c.025-.034.049-.069.073-.1l6.166-9.153.034-.05Zm8.759,46.581A36.131,36.131,0,1,1,66.509,49.247c.026-.035.052-.073.076-.111L95.6,6.073,112.73,31.508l-5.349,7.94a19.318,19.318,0,0,0,24.253,28.684q.089,1.273.091,2.553Z" transform="translate(-55.111 0)"/>
      <path id="Trazado_828986" data-name="Trazado 828986" d="M315.915,209.365a7.4,7.4,0,0,1,.638-3.025,2.177,2.177,0,0,0-3.978-1.769,11.822,11.822,0,0,0,4.236,14.617,2.177,2.177,0,0,0,2.421-3.619A7.453,7.453,0,0,1,315.915,209.365Z" transform="translate(-255.735 -159.027)"/>
      <path id="Trazado_828987" data-name="Trazado 828987" d="M221.316,448.547a2.176,2.176,0,1,0-2.436,2.967A2.194,2.194,0,0,0,221.316,448.547Z" transform="translate(-181.864 -349.861)"/>
      <path id="Trazado_828988" data-name="Trazado 828988" d="M358.119,271.147a2.176,2.176,0,1,0,0-3.62A2.186,2.186,0,0,0,358.119,271.147Z" transform="translate(-291.41 -209.002)"/>
    </g>
  </g>
</svg>
