<svg id="Page-1" xmlns="http://www.w3.org/2000/svg" width="96.587" height="115.904" viewBox="0 0 96.587 115.904">
  <g id="_070---Pesticide" data-name="070---Pesticide" transform="translate(0 0)">
    <path id="Shape" d="M32.181,1V6.8a5.8,5.8,0,0,1-5.8,5.8H14.8A5.8,5.8,0,0,1,9,6.8V1Z" transform="translate(8.386 0.932)" fill="#7f8e94"/>
    <path id="Shape-2" data-name="Shape" d="M32.181,14.863V22.59H9V14.863A3.875,3.875,0,0,1,12.863,11H28.317A3.875,3.875,0,0,1,32.181,14.863Z" transform="translate(8.386 10.249)" fill="#60a917"/>
    <path id="Shape-3" data-name="Shape" d="M55.089,53v5.8a5.8,5.8,0,0,1-5.8,5.8H6.8A5.8,5.8,0,0,1,1,58.8V53Z" transform="translate(0.932 49.382)" fill="#008a00"/>
    <path id="Shape-4" data-name="Shape" d="M55.089,35.661V86.543H1V35.661a7.727,7.727,0,0,1,2.26-5.467L16.454,17H39.635L52.829,30.194a7.727,7.727,0,0,1,2.26,5.467Z" transform="translate(0.932 15.84)" fill="#a4c400"/>
    <path id="Shape-5" data-name="Shape" d="M39.249,35.661V86.543h-5.8V35.661a7.727,7.727,0,0,0-2.26-5.467L18,17h5.8L36.989,30.194a7.727,7.727,0,0,1,2.26,5.467Z" transform="translate(16.771 15.84)" fill="#90ac00"/>
    <path id="Shape-6" data-name="Shape" d="M34.59,53v5.8a5.8,5.8,0,0,1-5.8,5.8H23a5.8,5.8,0,0,0,5.8-5.8V53Z" transform="translate(21.43 49.382)" fill="#007900"/>
    <ellipse id="Oval" cx="19.5" cy="19" rx="19.5" ry="19" transform="translate(9.295 54.55)" fill="#f5f5f5"/>
    <path id="Shape-7" data-name="Shape" d="M16.4,28a19.352,19.352,0,0,0-2.9.241,19.29,19.29,0,0,1,0,38.152A19.308,19.308,0,1,0,16.4,28Z" transform="translate(12.579 26.089)" fill="#cfd8dc"/>
    <path id="Shape-8" data-name="Shape" d="M35.245,30.93,7.93,58.245" transform="translate(7.389 28.819)" fill="none" stroke="#000" stroke-linejoin="round" stroke-width="2" fill-rule="evenodd"/>
    <g id="Grupo_1075605" data-name="Grupo 1075605">
      <path id="Shape-9" data-name="Shape" d="M22.434,45.432c-1.918,1.916-5.556,1.393-8.113-1.159s-3.091-6.2-1.159-8.113,5.556-1.41,8.113,1.159S24.352,43.5,22.434,45.432Z" transform="translate(11.179 32.61)" fill="#ff9801"/>
      <path id="Rectangle-path" d="M13,7h7.727v7.727H13Z" transform="translate(12.113 6.522)" fill="#37474f"/>
      <path id="Shape-10" data-name="Shape" d="M48.317,40.863V54.386a3.875,3.875,0,0,1-3.863,3.863H29V37H44.454A3.875,3.875,0,0,1,48.317,40.863Z" transform="translate(27.02 34.474)" fill="#607d8b"/>
      <path id="Shape-11" data-name="Shape" d="M39.8,37H34a3.875,3.875,0,0,1,3.863,3.863V54.386A3.875,3.875,0,0,1,34,58.249h5.8a3.875,3.875,0,0,0,3.863-3.863V40.863A3.875,3.875,0,0,0,39.8,37Z" transform="translate(31.679 34.474)" fill="#37474f"/>
      <path id="Shape-12" data-name="Shape" d="M44.454,35.727v9.659H36.727V37.659A1.932,1.932,0,0,0,34.8,35.727H29V28h7.727A7.727,7.727,0,0,1,44.454,35.727Z" transform="translate(27.02 26.089)" fill="#ffdc00"/>
      <path id="Shape-13" data-name="Shape" d="M61.976,25V76.191a14.488,14.488,0,1,1-28.976,0V69.43h7.727v6.761a6.761,6.761,0,0,0,13.522,0V25Z" transform="translate(30.747 23.294)" fill="#ffdc00"/>
      <rect id="Rectangle-path-2" data-name="Rectangle-path" width="12" height="16" rx="1" transform="translate(83.295 32.55)" fill="#607d8b"/>
      <path id="Shape-14" data-name="Shape" d="M54.59,7.932v9.929a13.523,13.523,0,0,1-.406,3.284l-1.526,6.1H44.932l-1.526-6.1A13.522,13.522,0,0,1,43,17.861V7.932A1.932,1.932,0,0,1,44.932,6h7.727A1.932,1.932,0,0,1,54.59,7.932Z" transform="translate(40.065 5.59)" fill="#cfd8dc"/>
      <path id="Shape-15" data-name="Shape" d="M21.249,19.317a5.8,5.8,0,0,0-5.8,5.8V32.04L2.83,44.664A9.6,9.6,0,0,0,0,51.494v56.683A7.727,7.727,0,0,0,7.727,115.9h42.5a7.727,7.727,0,0,0,7.727-7.727V94.655h3.863v4.829a16.42,16.42,0,1,0,32.84,0v-49.8a3.85,3.85,0,0,0,1.932-3.326V34.771a3.864,3.864,0,0,0-1.58-3.1L96.125,27.2a15.405,15.405,0,0,0,.462-3.746V13.522a3.863,3.863,0,0,0-3.863-3.863H90.792V1.932a1.932,1.932,0,1,0-3.863,0V9.659H85a3.863,3.863,0,0,0-3.863,3.863v9.927a15.406,15.406,0,0,0,.462,3.746l1.118,4.476a3.863,3.863,0,0,0-1.58,3.1v11.59a3.85,3.85,0,0,0,1.932,3.326v49.8a4.829,4.829,0,1,1-9.659,0V94.3a5.8,5.8,0,0,0,3.863-5.44V75.338a5.8,5.8,0,0,0-3.863-5.44V61.816a9.67,9.67,0,0,0-9.659-9.659h-5.8v-.663a9.6,9.6,0,0,0-2.83-6.831L42.5,32.04V25.113a5.8,5.8,0,0,0-5.8-5.8H34.771V15.454A7.727,7.727,0,0,0,42.5,7.727v-5.8A1.932,1.932,0,0,0,40.567,0H17.386a1.932,1.932,0,0,0-1.932,1.932v5.8a7.727,7.727,0,0,0,7.727,7.727v3.863ZM61.816,69.543H57.952v-5.8h3.863ZM85,46.362V34.771h7.727v11.59Zm0-32.84h7.727v9.927a11.689,11.689,0,0,1-.346,2.811l-1.161,4.648H86.5L85.344,26.26A11.689,11.689,0,0,1,85,23.449Zm-6.761,94.655a8.7,8.7,0,0,0,8.693-8.693V50.225h3.863V99.485a12.556,12.556,0,1,1-25.113,0V94.655h3.863v4.829A8.7,8.7,0,0,0,78.235,108.177ZM73.406,88.86a1.932,1.932,0,0,1-1.932,1.932H57.952V73.406H71.474a1.932,1.932,0,0,1,1.932,1.932ZM63.747,56.02a5.8,5.8,0,0,1,5.8,5.8v7.727H65.679v-5.8a3.863,3.863,0,0,0-3.863-3.863H57.952V56.02Zm-9.659-4.526V100.45h-5.8a1.932,1.932,0,1,0,0,3.863h5.8v3.863a3.863,3.863,0,0,1-3.863,3.863H7.727a3.863,3.863,0,0,1-3.863-3.863v-3.863h36.7a1.932,1.932,0,1,0,0-3.863H3.863V51.494a5.764,5.764,0,0,1,1.7-4.1L18.185,34.771H39.767L52.391,47.4a5.757,5.757,0,0,1,1.7,4.1ZM38.635,25.113v5.8H19.317v-5.8a1.932,1.932,0,0,1,1.932-1.932H36.7A1.932,1.932,0,0,1,38.635,25.113ZM19.317,7.727V3.863H38.635V7.727a3.863,3.863,0,0,1-3.863,3.863H23.181A3.863,3.863,0,0,1,19.317,7.727Zm7.727,7.727h3.863v3.863H27.044Z" transform="translate(0 0)"/>
      <path id="Shape-16" data-name="Shape" d="M30.249,21H10.932a1.932,1.932,0,0,0,0,3.863H30.249a1.932,1.932,0,1,0,0-3.863Z" transform="translate(8.386 19.567)"/>
      <path id="Shape-17" data-name="Shape" d="M30.249,41.659H27.481a10.416,10.416,0,0,0-4.959-4.953V33.932a1.932,1.932,0,1,0-3.863,0v1.959a6.414,6.414,0,0,0-2.444.593L14.229,34.5A1.932,1.932,0,0,0,11.5,37.229l2,2a6.375,6.375,0,0,0-.6,2.432H10.932a1.932,1.932,0,1,0,0,3.863h2.789a10.279,10.279,0,0,0,2.028,2.911,10.122,10.122,0,0,0,2.909,2.023v2.793a1.932,1.932,0,1,0,3.863,0V51.275A5.778,5.778,0,0,0,28.3,45.522h1.951a1.932,1.932,0,1,0,0-3.863Zm-6.39,5.216c-1.122,1.118-3.632.58-5.378-1.159a5.919,5.919,0,0,1-1.713-3.2,2.577,2.577,0,0,1,.552-2.175,2.3,2.3,0,0,1,1.646-.608,5.548,5.548,0,0,1,3.73,1.758c1.769,1.766,2.3,4.231,1.163,5.39Z" transform="translate(8.386 29.816)"/>
      <path id="Shape-18" data-name="Shape" d="M25.249,27A21.249,21.249,0,1,0,46.5,48.249,21.249,21.249,0,0,0,25.249,27Zm0,3.863a17.285,17.285,0,0,1,10.839,3.815L11.679,59.088a17.364,17.364,0,0,1,13.57-28.225Zm0,34.771A17.285,17.285,0,0,1,14.41,61.82L38.82,37.41a17.364,17.364,0,0,1-13.57,28.225Z" transform="translate(3.727 25.157)" fill="#f44335"/>
    </g>
  </g>
</svg>
