<svg xmlns="http://www.w3.org/2000/svg" width="106.966" height="106.56" viewBox="0 0 106.966 106.56">
  <g id="viento_1_" data-name="viento (1)" transform="translate(-1 -1)">
    <g id="Grupo_1075612" data-name="Grupo 1075612" transform="translate(1 2.719)">
      <g id="Grupo_1075606" data-name="Grupo 1075606" transform="translate(0 30.937)">
        <path id="Trazado_828910" data-name="Trazado 828910" d="M76.623,57.812A18.875,18.875,0,0,1,61.7,50.524c-3.42-6.342-3.987-8.92-3.987-11.618,0-.619.034-1.237.086-1.839h.017A18.9,18.9,0,0,1,76.623,20h3.437A25.781,25.781,0,0,1,95.529,66.405S85.217,71.561,74.9,71.561H1V64.686H24.168v-.017a5.143,5.143,0,0,0,2.011-.533l5.758-2.887-5.758-2.887a5.4,5.4,0,0,0-2.372-.55Z" transform="translate(-1 -20)" fill="#ccd1d9"/>
      </g>
      <g id="Grupo_1075607" data-name="Grupo 1075607" transform="translate(1.719 24.062)">
        <path id="Trazado_828911" data-name="Trazado 828911" d="M57,41.781c0,2.7.567,5.276,3.987,11.618l-.533.412H20.906a18.906,18.906,0,0,1,0-37.812h3.437a11.96,11.96,0,0,1,8.508,3.523,12.124,12.124,0,0,1,3.523,8.508A12.022,12.022,0,0,1,24.343,40.062l32.741-.12c-.052.6-.086,1.22-.086,1.839Z" transform="translate(-2 -16)" fill="#e6e9ed"/>
      </g>
      <g id="Grupo_1075608" data-name="Grupo 1075608" transform="translate(20.625 0)">
        <path id="Trazado_828912" data-name="Trazado 828912" d="M13,8.875l.756-1.5A9.687,9.687,0,0,1,22.453,2a14.133,14.133,0,0,1,7.872,2.389l6.737,4.486-6.737,4.486a14.133,14.133,0,0,1-7.872,2.389,9.646,9.646,0,0,1-8.7-5.38Z" transform="translate(-13 -2)" fill="#b4dd7f"/>
      </g>
      <g id="Grupo_1075609" data-name="Grupo 1075609" transform="translate(29.218 89.373)">
        <path id="Trazado_828913" data-name="Trazado 828913" d="M35.187,59.156l-4.761,3.575a7.929,7.929,0,0,1-11.343-1.942L18,59.156l1.083-1.633a7.929,7.929,0,0,1,11.343-1.942Z" transform="translate(-18 -54)" fill="#b4dd7f"/>
      </g>
      <g id="Grupo_1075610" data-name="Grupo 1075610" transform="translate(17.187 68.748)">
        <path id="Trazado_828914" data-name="Trazado 828914" d="M24.75,45.437l-5.758,2.887a5.143,5.143,0,0,1-2.011.533,2.538,2.538,0,0,1-.361.017,5.269,5.269,0,0,1-3.73-1.547L11,45.437l1.891-1.891A5.269,5.269,0,0,1,16.62,42a5.4,5.4,0,0,1,2.372.55Z" transform="translate(-11 -42)" fill="#a0d468"/>
      </g>
      <g id="Grupo_1075611" data-name="Grupo 1075611" transform="translate(89.373 20.625)">
        <path id="Trazado_828915" data-name="Trazado 828915" d="M66.75,17.437l-5.758,2.887a5.4,5.4,0,0,1-2.372.55,5.269,5.269,0,0,1-3.73-1.547L53,17.437l1.891-1.891A5.269,5.269,0,0,1,58.62,14a5.4,5.4,0,0,1,2.372.55Z" transform="translate(-53 -14)" fill="#a0d468"/>
      </g>
    </g>
    <g id="Grupo_1075613" data-name="Grupo 1075613" transform="translate(1 1)">
      <path id="Trazado_828916" data-name="Trazado 828916" d="M58.5,60.812H31v3.437H58.5A20.625,20.625,0,0,0,58.5,23H55.062a13.75,13.75,0,1,0,0,27.5h5.156a8.594,8.594,0,1,0,0-17.187H56.781a5.156,5.156,0,1,0,0,10.312h5.156V40.187H56.781a1.719,1.719,0,0,1,0-3.437h3.437a5.156,5.156,0,1,1,0,10.312H55.062a10.312,10.312,0,0,1,0-20.625H58.5a17.187,17.187,0,0,1,0,34.374Z" transform="translate(20.561 14.812)"/>
      <path id="Trazado_828917" data-name="Trazado 828917" d="M1,49H18.187v3.437H1Z" transform="translate(-1 33.498)"/>
      <path id="Trazado_828918" data-name="Trazado 828918" d="M15,49h6.875v3.437H15Z" transform="translate(9.062 33.498)"/>
      <path id="Trazado_828919" data-name="Trazado 828919" d="M72.843,49H23v3.437H72.843a8.594,8.594,0,0,1,0,17.187H71.124a5.156,5.156,0,1,1,0-10.312,1.719,1.719,0,0,1,0,3.437H69.405v3.437h1.719a5.156,5.156,0,1,0,0-10.312,8.594,8.594,0,0,0,0,17.187h1.719a12.031,12.031,0,0,0,0-24.062Z" transform="translate(14.812 33.498)"/>
      <path id="Trazado_828920" data-name="Trazado 828920" d="M29.268,53a9.615,9.615,0,0,0-8.016,4.29l-.577.866H13v3.437h7.674l.577.866a9.634,9.634,0,0,0,13.8,2.363l6.6-4.948-6.6-4.948A9.7,9.7,0,0,0,29.268,53Zm3.718,9.073a6.2,6.2,0,0,1-8.874-1.519l-.452-.679.452-.679a6.2,6.2,0,0,1,8.874-1.519l2.93,2.2Z" transform="translate(7.625 36.373)"/>
      <path id="Trazado_828921" data-name="Trazado 828921" d="M16.525,11.861A11.379,11.379,0,0,0,26.76,18.187a15.878,15.878,0,0,0,8.834-2.674l8.879-5.919L35.594,3.674A15.874,15.874,0,0,0,26.76,1,11.383,11.383,0,0,0,16.523,7.327l-.273.548H7v3.437h9.25Zm3.075-3a7.962,7.962,0,0,1,7.16-4.426,12.459,12.459,0,0,1,6.928,2.1l4.587,3.059-4.587,3.059a12.451,12.451,0,0,1-6.928,2.1A7.964,7.964,0,0,1,19.6,10.324l-.364-.73Z" transform="translate(3.312 -1)"/>
      <path id="Trazado_828922" data-name="Trazado 828922" d="M24.073,50.559,32.9,46.142l-8.834-4.419a7.179,7.179,0,0,0-8.083,1.315L14.6,44.423H5v3.437h9.6l1.385,1.387a7.009,7.009,0,0,0,8.087,1.311Zm-6.33-4.417.674-.675a3.67,3.67,0,0,1,4.118-.669l2.686,1.344-2.683,1.341a3.655,3.655,0,0,1-4.12-.667Z" transform="translate(1.875 27.762)"/>
      <path id="Trazado_828923" data-name="Trazado 828923" d="M80.061,29.062H76.623l-.046,0a17.31,17.31,0,0,0,3.451-3.439h9.633l1.385,1.385a7.007,7.007,0,0,0,8.087,1.313l8.832-4.417-8.834-4.417A7.174,7.174,0,0,0,91.047,20.8l-1.385,1.385H82.053A17.066,17.066,0,0,0,83.5,15.312a10.312,10.312,0,0,0-20.625,0,6.875,6.875,0,1,0,13.75,0H73.186a3.437,3.437,0,1,1-6.875,0,6.875,6.875,0,0,1,13.75,0,13.766,13.766,0,0,1-13.75,13.75H36.952a13.747,13.747,0,0,0-11.89-6.875H21.625a20.625,20.625,0,0,0,0,41.249h27.5V60h-27.5a17.187,17.187,0,1,1,0-34.374h3.437a10.312,10.312,0,0,1,0,20.625H19.906a5.156,5.156,0,1,1,0-10.312h3.437a1.719,1.719,0,1,1,0,3.437H18.187v3.437h5.156a5.156,5.156,0,0,0,0-10.312H19.906a8.594,8.594,0,1,0,0,17.187h5.156A13.7,13.7,0,0,0,38.36,32.5H65.249A20.384,20.384,0,0,0,56.31,53.124H28.5v3.437H57.2a20.642,20.642,0,0,0,19.421,13.75h3.437V66.874H76.623a17.187,17.187,0,0,1,0-34.374h3.437A24.063,24.063,0,0,1,94.5,75.811l2.064,2.75a27.5,27.5,0,0,0-16.5-49.5Zm13.416-5.83a3.656,3.656,0,0,1,4.118-.669l2.685,1.342-2.685,1.342a3.648,3.648,0,0,1-4.118-.669l-.674-.674Z" transform="translate(-1 1.875)"/>
      <path id="Trazado_828924" data-name="Trazado 828924" d="M25,15H42.187v3.437H25Z" transform="translate(16.249 9.062)"/>
    </g>
  </g>
</svg>
