<svg xmlns="http://www.w3.org/2000/svg" xmlns:xlink="http://www.w3.org/1999/xlink" width="105.759" height="105.759" viewBox="0 0 105.759 105.759">
  <defs>
    <clipPath id="clip-path">
      <path id="path1566" d="M0-682.665H105.759v105.759H0Z" transform="translate(0 682.665)"/>
    </clipPath>
  </defs>
  <g id="g1560" transform="translate(0 0)">
    <g id="g1562">
      <g id="g1564" clip-path="url(#clip-path)">
        <g id="g1570" transform="translate(2.066 2.066)">
          <path id="path1572" d="M-157.748,0a28.918,28.918,0,0,0-28.918,28.918,28.918,28.918,0,0,0,28.918,28.918,28.918,28.918,0,0,0,28.918-28.918A28.918,28.918,0,0,0-157.748,0" transform="translate(186.666)" fill="#b3f1ff"/>
        </g>
        <path id="path1574" d="M13.333-148.546H114.961v-24.787H13.333Z" transform="translate(-11.268 252.239)" fill="#ffda8f"/>
        <g id="g1576" transform="translate(87.169 39.246)">
          <path id="path1578" d="M-90.142,0V4.131a16.526,16.526,0,0,1-16.525,16.525V16.525A16.526,16.526,0,0,1-90.142,0" transform="translate(106.666)" fill="#d8ec84"/>
        </g>
        <g id="g1580" transform="translate(62.381 51.64)">
          <path id="path1582" d="M-90.142-67.606h-4.131A12.393,12.393,0,0,1-106.666-80h4.131A12.393,12.393,0,0,1-90.142-67.606" transform="translate(106.666 80)" fill="#d8ec84"/>
        </g>
        <g id="g1584" transform="translate(26.853 87.169)">
          <path id="path1586" d="M-22.535,0A4.13,4.13,0,0,1-18.4,4.131a4.13,4.13,0,0,1-4.131,4.131,4.13,4.13,0,0,1-4.131-4.131A4.13,4.13,0,0,1-22.535,0" transform="translate(26.667)" fill="#eefaff"/>
        </g>
        <g id="g1588" transform="translate(10.741 10.328)">
          <path id="path1590" d="M-110.423,0a20.667,20.667,0,0,0-20.243,16.525h8.554a12.4,12.4,0,0,1,11.689-8.262,12.4,12.4,0,0,1,11.689,8.262h8.554A20.665,20.665,0,0,0-110.423,0" transform="translate(130.666)" fill="#eefaff"/>
        </g>
        <g id="g1592" transform="translate(93.365 93.365)">
          <path id="path1594" d="M-11.268,0A2.066,2.066,0,0,1-9.2,2.066a2.066,2.066,0,0,1-2.066,2.066,2.066,2.066,0,0,1-2.066-2.066A2.066,2.066,0,0,1-11.268,0" transform="translate(13.333 0)"/>
        </g>
        <g id="g1596" transform="translate(68.578 85.103)">
          <path id="path1598" d="M-11.268,0A2.066,2.066,0,0,1-9.2,2.066a2.066,2.066,0,0,1-2.066,2.066,2.066,2.066,0,0,1-2.066-2.066A2.066,2.066,0,0,1-11.268,0" transform="translate(13.333 0)"/>
        </g>
        <g id="g1600" transform="translate(0 0)">
          <path id="path1602" d="M-355.682-200A31.019,31.019,0,0,1-324.7-169.016a31.019,31.019,0,0,1-30.984,30.984,31.019,31.019,0,0,1-30.984-30.984A31.019,31.019,0,0,1-355.682-200Zm0,57.837a26.883,26.883,0,0,0,26.853-26.853,26.883,26.883,0,0,0-26.853-26.853,26.883,26.883,0,0,0-26.853,26.853A26.883,26.883,0,0,0-355.682-142.163Z" transform="translate(386.666 200)"/>
        </g>
        <g id="g1604" transform="translate(8.675 8.262)">
          <path id="path1606" d="M-59.8-57.69h-8.554A2.066,2.066,0,0,1-70.3-59.067a10.349,10.349,0,0,0-9.742-6.886,10.323,10.323,0,0,0-5.377,1.507,10.392,10.392,0,0,0-4.364,5.378,2.066,2.066,0,0,1-1.947,1.377h-8.554a2.066,2.066,0,0,1-1.6-.759,2.066,2.066,0,0,1-.425-1.719A22.7,22.7,0,0,1-93.672-73.8a22.529,22.529,0,0,1,13.634-4.545A22.785,22.785,0,0,1-57.771-60.167a2.066,2.066,0,0,1-.425,1.718A2.066,2.066,0,0,1-59.8-57.69Zm-7.175-4.131h4.465A18.66,18.66,0,0,0-80.038-74.215,18.429,18.429,0,0,0-91.191-70.5a18.6,18.6,0,0,0-6.38,8.676h4.466a14.56,14.56,0,0,1,5.536-6.149,14.456,14.456,0,0,1,7.531-2.113A14.492,14.492,0,0,1-66.97-61.822Z" transform="translate(102.346 78.346)"/>
        </g>
        <g id="g1608" transform="translate(16.525 41.312)">
          <path id="path1610" d="M-11.268-5.071a2.066,2.066,0,0,1-2.066-2.066v-4.131a2.066,2.066,0,0,1,2.066-2.066A2.066,2.066,0,0,1-9.2-11.268v4.131A2.066,2.066,0,0,1-11.268-5.071Z" transform="translate(13.333 13.333)"/>
        </g>
        <g id="g1612" transform="translate(16.525 33.05)">
          <path id="path1614" d="M-7.136-54.273h-4.131a2.066,2.066,0,0,1-2.066-2.066V-64.6a2.066,2.066,0,0,1,2.066-2.066h4.131a6.2,6.2,0,0,1,6.2,6.2A6.2,6.2,0,0,1-7.136-54.273ZM-9.2-58.4h2.066A2.068,2.068,0,0,0-5.071-60.47a2.068,2.068,0,0,0-2.066-2.066H-9.2Z" transform="translate(13.333 66.666)"/>
        </g>
        <g id="g1616" transform="translate(33.05 33.05)">
          <path id="path1618" d="M-11.268,3.192a2.066,2.066,0,0,1-2.066-2.066V-11.268a2.066,2.066,0,0,1,2.066-2.066A2.066,2.066,0,0,1-9.2-11.268V1.126A2.066,2.066,0,0,1-11.268,3.192Z" transform="translate(13.333 13.333)"/>
        </g>
        <g id="g1620" transform="translate(41.312 33.05)">
          <path id="path1622" d="M-11.268,3.192a2.066,2.066,0,0,1-2.066-2.066V-11.268a2.066,2.066,0,0,1,2.066-2.066A2.066,2.066,0,0,1-9.2-11.268V1.126A2.066,2.066,0,0,1-11.268,3.192Z" transform="translate(13.333 13.333)"/>
        </g>
        <g id="g1624" transform="translate(33.05 37.181)">
          <path id="path1626" d="M-3.005-9.2h-8.262a2.066,2.066,0,0,1-2.066-2.066,2.066,2.066,0,0,1,2.066-2.066h8.262A2.066,2.066,0,0,1-.94-11.268,2.066,2.066,0,0,1-3.005-9.2Z" transform="translate(13.333 13.333)"/>
        </g>
        <g id="g1628" transform="translate(16.525 12.394)">
          <path id="path1630" d="M-78.874-76.808a2.059,2.059,0,0,1-1.461-.605L-92.728-89.807a2.066,2.066,0,0,1,0-2.921,2.066,2.066,0,0,1,2.921,0l12.394,12.394a2.066,2.066,0,0,1,0,2.921A2.059,2.059,0,0,1-78.874-76.808Z" transform="translate(93.333 93.333)"/>
        </g>
        <g id="g1632" transform="translate(28.918 57.837)">
          <path id="path1634" d="M-11.268,18.064A2.066,2.066,0,0,1-13.333,16V-11.268a2.066,2.066,0,0,1,2.066-2.066A2.066,2.066,0,0,1-9.2-11.268V16A2.066,2.066,0,0,1-11.268,18.064Z" transform="translate(13.333 13.333)"/>
        </g>
        <g id="g1636" transform="translate(24.787 85.103)">
          <path id="path1638" d="M-60.47-40a6.2,6.2,0,0,1,6.2,6.2,6.2,6.2,0,0,1-6.2,6.2,6.2,6.2,0,0,1-6.2-6.2A6.2,6.2,0,0,1-60.47-40Zm0,8.262A2.068,2.068,0,0,0-58.4-33.8a2.068,2.068,0,0,0-2.066-2.066A2.068,2.068,0,0,0-62.535-33.8,2.068,2.068,0,0,0-60.47-31.737Z" transform="translate(66.666 40)"/>
        </g>
        <g id="g1640" transform="translate(85.103 37.181)">
          <path id="path1642" d="M-11.268-121.879a2.066,2.066,0,0,1-2.066-2.066v-4.131a18.612,18.612,0,0,1,18.59-18.59A2.066,2.066,0,0,1,7.323-144.6v4.131A18.611,18.611,0,0,1-11.268-121.879ZM3.192-142.388A14.482,14.482,0,0,0-9.2-128.076v1.919A14.482,14.482,0,0,0,3.192-140.469Z" transform="translate(13.333 146.666)"/>
        </g>
        <g id="g1644" transform="translate(80.972 57.837)">
          <path id="path1646" d="M-37.934,2.483A2.066,2.066,0,0,1-40,.417V-1.295a16.064,16.064,0,0,1,4.736-11.433,2.066,2.066,0,0,1,2.921,0,2.066,2.066,0,0,1,0,2.921,11.959,11.959,0,0,0-3.526,8.512V.417A2.066,2.066,0,0,1-37.934,2.483Z" transform="translate(40 13.333)"/>
        </g>
        <g id="g1648" transform="translate(60.316 49.575)">
          <path id="path1650" d="M-74.743-76.808h-4.131A14.476,14.476,0,0,1-93.333-91.268a2.066,2.066,0,0,1,2.066-2.066h4.131A14.476,14.476,0,0,1-72.677-78.874,2.066,2.066,0,0,1-74.743-76.808ZM-88.994-89.2a10.346,10.346,0,0,0,10.121,8.262h1.858A10.346,10.346,0,0,0-87.136-89.2Z" transform="translate(93.333 93.333)"/>
        </g>
        <g id="g1652" transform="translate(76.84 61.968)">
          <path id="path1654" d="M-7.136,13.933A2.066,2.066,0,0,1-9.2,11.867V-3.714A6.158,6.158,0,0,0-11.018-8.1l-1.71-1.71a2.066,2.066,0,0,1,0-2.921,2.066,2.066,0,0,1,2.921,0l1.71,1.71a10.262,10.262,0,0,1,3.026,7.3V11.867A2.066,2.066,0,0,1-7.136,13.933Z" transform="translate(13.333 13.333)"/>
        </g>
        <g id="g1656" transform="translate(76.84 85.103)">
          <path id="path1658" d="M-3.006-54.272a2.065,2.065,0,0,1-1.849-1.142l-2.284-4.567-2.284,4.567a2.066,2.066,0,0,1-2.771.924,2.066,2.066,0,0,1-.924-2.771l4.131-8.262a2.066,2.066,0,0,1,1.848-1.142,2.066,2.066,0,0,1,1.848,1.142l4.131,8.262a2.066,2.066,0,0,1-.924,2.771A2.058,2.058,0,0,1-3.006-54.272Z" transform="translate(13.336 66.667)"/>
        </g>
        <g id="g1660" transform="translate(12.394 85.103)">
          <path id="path1662" d="M-7.136-9.2h-4.131a2.066,2.066,0,0,1-2.066-2.066,2.066,2.066,0,0,1,2.066-2.066h4.131a2.066,2.066,0,0,1,2.066,2.066A2.066,2.066,0,0,1-7.136-9.2Z" transform="translate(13.333 13.333)"/>
        </g>
        <g id="g1664" transform="translate(0 93.365)">
          <path id="path1666" d="M1.126-9.2H-11.268a2.066,2.066,0,0,1-2.066-2.066,2.066,2.066,0,0,1,2.066-2.066H1.126a2.066,2.066,0,0,1,2.066,2.066A2.066,2.066,0,0,1,1.126-9.2Z" transform="translate(13.333 13.333)"/>
        </g>
        <g id="g1668" transform="translate(45.443 85.103)">
          <path id="path1670" d="M3.6-9.2H-11.268a2.066,2.066,0,0,1-2.066-2.066,2.066,2.066,0,0,1,2.066-2.066H3.6A2.066,2.066,0,0,1,5.67-11.268,2.066,2.066,0,0,1,3.6-9.2Z" transform="translate(13.333 13.333)"/>
        </g>
        <g id="g1672" transform="translate(41.312 93.365)">
          <path id="path1674" d="M-1.766-9.2h-9.5a2.066,2.066,0,0,1-2.066-2.066,2.066,2.066,0,0,1,2.066-2.066h9.5A2.066,2.066,0,0,1,.3-11.268,2.066,2.066,0,0,1-1.766-9.2Z" transform="translate(13.333 13.333)"/>
        </g>
        <g id="g1676" transform="translate(89.234 85.103)">
          <path id="path1678" d="M1.126-9.2H-11.268a2.066,2.066,0,0,1-2.066-2.066,2.066,2.066,0,0,1,2.066-2.066H1.126a2.066,2.066,0,0,1,2.066,2.066A2.066,2.066,0,0,1,1.126-9.2Z" transform="translate(13.333 13.333)"/>
        </g>
        <g id="g1680" transform="translate(59.076 93.365)">
          <path id="path1682" d="M-5.9-9.2h-5.371a2.066,2.066,0,0,1-2.066-2.066,2.066,2.066,0,0,1,2.066-2.066H-5.9a2.066,2.066,0,0,1,2.066,2.066A2.066,2.066,0,0,1-5.9-9.2Z" transform="translate(13.333 13.333)"/>
        </g>
        <g id="g1684" transform="translate(0 76.841)">
          <path id="path1686" d="M-177.639-144.414h-41.519a2.066,2.066,0,0,1-2.066-2.066,2.066,2.066,0,0,1,2.066-2.066H-179.7V-169.2h-97.5v20.656h39.453a2.066,2.066,0,0,1,2.066,2.066,2.066,2.066,0,0,1-2.066,2.066h-41.519a2.066,2.066,0,0,1-2.066-2.066v-24.787a2.066,2.066,0,0,1,2.066-2.066h101.628a2.066,2.066,0,0,1,2.066,2.066v24.787A2.066,2.066,0,0,1-177.639-144.414Z" transform="translate(281.333 173.333)"/>
        </g>
        <g id="g1688" transform="translate(50.814 101.628)">
          <path id="path1690" d="M0-11.268A2.066,2.066,0,0,0,2.066-9.2a2.066,2.066,0,0,0,2.066-2.066,2.066,2.066,0,0,0-2.066-2.066A2.066,2.066,0,0,0,0-11.268" transform="translate(0 13.333)"/>
        </g>
      </g>
    </g>
  </g>
</svg>
