<svg xmlns="http://www.w3.org/2000/svg" width="84.806" height="109.541" viewBox="0 0 84.806 109.541">
  <g id="envenenamiento" transform="translate(-8 -1)">
    <g id="Grupo_1075626" data-name="Grupo 1075626" transform="translate(9.767 2.767)">
      <g id="Grupo_1075614" data-name="Grupo 1075614" transform="translate(19.435 0)">
        <path id="Trazado_828935" data-name="Trazado 828935" d="M62.4,5.534V9.067H20V5.534A3.544,3.544,0,0,1,23.534,2H58.869A3.544,3.544,0,0,1,62.4,5.534Z" transform="translate(-20 -2)" fill="#aab2bd"/>
      </g>
      <g id="Grupo_1075615" data-name="Grupo 1075615" transform="translate(12.368 7.067)">
        <path id="Trazado_828936" data-name="Trazado 828936" d="M69,6a3.544,3.544,0,0,1,3.534,3.534A3.559,3.559,0,0,1,69,13.067H19.534A3.544,3.544,0,0,1,16,9.534,3.559,3.559,0,0,1,19.534,6H69Z" transform="translate(-16 -6)" fill="#ccd1d9"/>
      </g>
      <g id="Grupo_1075616" data-name="Grupo 1075616" transform="translate(1.519 14.134)">
        <path id="Trazado_828937" data-name="Trazado 828937" d="M88.094,27.668H9.86a14.1,14.1,0,0,1,7.792-6.908l10.124-3.693V10h42.4v7.067L80.3,20.76A14.1,14.1,0,0,1,88.094,27.668Z" transform="translate(-9.86 -10)" fill="#fcd770"/>
      </g>
      <g id="Grupo_1075617" data-name="Grupo 1075617" transform="translate(0 91.873)">
        <path id="Trazado_828938" data-name="Trazado 828938" d="M90.273,54v3.534a10.609,10.609,0,0,1-10.6,10.6H19.6A10.609,10.609,0,0,1,9,57.534V54a12.794,12.794,0,0,0,11.431,7.067h58.41A12.794,12.794,0,0,0,90.273,54Z" transform="translate(-9 -54)" fill="#fcd770"/>
      </g>
      <g id="Grupo_1075618" data-name="Grupo 1075618" transform="translate(0 31.802)">
        <path id="Trazado_828939" data-name="Trazado 828939" d="M90.273,26.36V80.071a12.794,12.794,0,0,1-11.431,7.067H20.431A12.794,12.794,0,0,1,9,80.071V26.36A13.9,13.9,0,0,1,10.519,20H88.753a13.9,13.9,0,0,1,1.519,6.36Z" transform="translate(-9 -20)" fill="#ffeaa7"/>
      </g>
      <g id="Grupo_1075619" data-name="Grupo 1075619" transform="translate(22.968 45.937)">
        <path id="Trazado_828940" data-name="Trazado 828940" d="M57.3,42.152c.018.389.035.777.035,1.166a15.381,15.381,0,0,1-1.608,6.837,13.106,13.106,0,0,1-1.237,2.014,14.938,14.938,0,0,1-3.286,3.392l-.936.707v5.3A3.544,3.544,0,0,1,46.735,65.1,3.559,3.559,0,0,1,43.2,61.569,3.544,3.544,0,0,1,39.668,65.1a3.559,3.559,0,0,1-3.534-3.534A3.544,3.544,0,0,1,32.6,65.1a3.559,3.559,0,0,1-3.534-3.534v-5.3l-.936-.707a14.938,14.938,0,0,1-3.286-3.392A15.187,15.187,0,0,1,22,43.318c0-.389.018-.777.035-1.166a15.28,15.28,0,0,1,2.155-6.714,14.874,14.874,0,0,1,2.3-2.951A15.277,15.277,0,0,1,37.318,28h4.7A15.367,15.367,0,0,1,57.3,42.152Z" transform="translate(-22 -28)" fill="#969faa"/>
      </g>
      <g id="Grupo_1075620" data-name="Grupo 1075620" transform="translate(7.067 42.403)">
        <path id="Trazado_828941" data-name="Trazado 828941" d="M26.216,34.286l4.876,2.686a15.28,15.28,0,0,0-2.155,6.714l-6.608-3.675a5.282,5.282,0,1,1-5.76-8.392,1.947,1.947,0,0,1-.035-.318,5.3,5.3,0,1,1,10.6,0A5.239,5.239,0,0,1,26.216,34.286Z" transform="translate(-13 -26)" fill="#e6e9ed"/>
      </g>
      <g id="Grupo_1075621" data-name="Grupo 1075621" transform="translate(7.067 70.106)">
        <path id="Trazado_828942" data-name="Trazado 828942" d="M31.746,41.68a14.938,14.938,0,0,0,3.286,3.392l.936.707v1.449l-9.346,5.159a5.213,5.213,0,0,1,.512,2.226,5.3,5.3,0,1,1-10.6,0,1.947,1.947,0,0,1,.035-.318,5.284,5.284,0,1,1,6.254-7.7Z" transform="translate(-13 -41.68)" fill="#e6e9ed"/>
      </g>
      <g id="Grupo_1075622" data-name="Grupo 1075622" transform="translate(51.237 70.106)">
        <path id="Trazado_828943" data-name="Trazado 828943" d="M38.936,45.072a14.938,14.938,0,0,0,3.286-3.392l8.922,4.912a5.284,5.284,0,1,1,6.254,7.7,1.947,1.947,0,0,1,.035.318,5.3,5.3,0,0,1-10.6,0,5.213,5.213,0,0,1,.512-2.226L38,47.228V45.779Z" transform="translate(-38 -41.68)" fill="#e6e9ed"/>
      </g>
      <g id="Grupo_1075623" data-name="Grupo 1075623" transform="translate(56.113 42.403)">
        <path id="Trazado_828944" data-name="Trazado 828944" d="M58.852,36.6a5.28,5.28,0,0,1-9.329,3.41l-6.608,3.675a15.28,15.28,0,0,0-2.155-6.714l4.876-2.686a5.239,5.239,0,0,1-.919-2.986,5.3,5.3,0,1,1,10.6,0,1.947,1.947,0,0,1-.035.318A5.292,5.292,0,0,1,58.852,36.6Z" transform="translate(-40.76 -26)" fill="#e6e9ed"/>
      </g>
      <g id="Grupo_1075624" data-name="Grupo 1075624" transform="translate(44.17 58.304)">
        <circle id="Elipse_5935" data-name="Elipse 5935" cx="3.5" cy="3.5" r="3.5" transform="translate(-0.131 0.47)" fill="#e6e9ed"/>
      </g>
      <g id="Grupo_1075625" data-name="Grupo 1075625" transform="translate(30.036 58.304)">
        <circle id="Elipse_5936" data-name="Elipse 5936" cx="3.5" cy="3.5" r="3.5" transform="translate(0.004 0.47)" fill="#e6e9ed"/>
      </g>
    </g>
    <g id="Grupo_1075627" data-name="Grupo 1075627" transform="translate(8 1)">
      <path id="Trazado_828945" data-name="Trazado 828945" d="M38.3,44.6A5.3,5.3,0,1,0,33,39.3,5.307,5.307,0,0,0,38.3,44.6Zm0-7.067A1.767,1.767,0,1,1,36.534,39.3,1.769,1.769,0,0,1,38.3,37.534Z" transform="translate(11.17 24.304)"/>
      <path id="Trazado_828946" data-name="Trazado 828946" d="M30.3,44.6A5.3,5.3,0,1,0,25,39.3,5.307,5.307,0,0,0,30.3,44.6Zm0-7.067A1.767,1.767,0,1,1,28.534,39.3,1.769,1.769,0,0,1,30.3,37.534Z" transform="translate(5.036 24.304)"/>
      <path id="Trazado_828947" data-name="Trazado 828947" d="M19.067,55.036a7.053,7.053,0,0,0-3.486,13.193A7.068,7.068,0,0,0,29.668,67.4a6.82,6.82,0,0,0-.143-1.392l5.443-3v.862A5.278,5.278,0,0,0,43.8,67.792a5.219,5.219,0,0,0,7.067,0A5.278,5.278,0,0,0,59.7,63.869v-.862l5.444,3A6.82,6.82,0,0,0,65,67.4a7.068,7.068,0,0,0,14.087.825A7.053,7.053,0,0,0,75.6,55.036a6.975,6.975,0,0,0-4.986,2.078l-5.982-3.3a17.069,17.069,0,0,0,2.134-8.2c0-.051-.007-.1-.007-.15l4.546-2.509a7,7,0,0,0,4.3,1.481A7.053,7.053,0,0,0,79.09,31.242,7.068,7.068,0,0,0,65,32.067a6.984,6.984,0,0,0,.368,2.247l-2.005,1.106a17.055,17.055,0,0,0-13.675-6.887H44.979a17.048,17.048,0,0,0-13.673,6.889L29.3,34.316a7,7,0,0,0,.367-2.249,7.068,7.068,0,0,0-14.087-.825,7.05,7.05,0,1,0,7.783,11.712l4.546,2.509c0,.051-.007.1-.007.15a17.094,17.094,0,0,0,2.134,8.2l-5.982,3.3A6.982,6.982,0,0,0,19.067,55.036Zm52.647,6.717.878-1.458A3.5,3.5,0,0,1,75.6,58.569a3.521,3.521,0,0,1,1.154,6.852l-1.27.442.088,1.343.028.2a3.534,3.534,0,1,1-6.724-1.488l.7-1.5-9.516-5.251a16.961,16.961,0,0,0,2.562-2.431ZM70.248,35.661l-1.1-1.6A3.533,3.533,0,1,1,75.6,32.005l-.117,1.6,1.27.442A3.521,3.521,0,0,1,75.6,40.9,3.473,3.473,0,0,1,72.93,39.64l-.936-1.1-5.7,3.147a16.921,16.921,0,0,0-1.118-3.228ZM44.981,32.067h4.712a13.545,13.545,0,0,1,8.125,24.382L56.17,57.686v6.184a1.767,1.767,0,1,1-3.534,0v-5.3H49.1v5.3a1.767,1.767,0,0,1-3.534,0v-5.3H42.036v5.3a1.767,1.767,0,1,1-3.534,0V57.686l-1.648-1.237a13.545,13.545,0,0,1,8.127-24.382Zm-22.3,6.472-.936,1.1A3.467,3.467,0,0,1,19.067,40.9a3.521,3.521,0,0,1-1.154-6.852l1.27-.442L19.1,32.265l-.028-.2a3.534,3.534,0,1,1,6.452,1.989l-1.1,1.6,5.069,2.8a17.044,17.044,0,0,0-1.118,3.228ZM34.608,59.17l-9.514,5.251.7,1.5a3.529,3.529,0,1,1-6.726,1.548l.117-1.6-1.27-.442A3.52,3.52,0,1,1,22.081,60.3l.878,1.458,9.088-5.014A16.783,16.783,0,0,0,34.608,59.17Z" transform="translate(-4.933 17.403)"/>
      <path id="Trazado_828948" data-name="Trazado 828948" d="M82.34,25.993l-8.968-3.262V18.668h1.767a5.3,5.3,0,1,0,0-10.6H73.371V6.3a5.307,5.307,0,0,0-5.3-5.3H32.735a5.307,5.307,0,0,0-5.3,5.3V8.067H25.668a5.3,5.3,0,0,0,0,10.6h1.767v4.064l-8.968,3.262A15.948,15.948,0,0,0,8,40.937V98.174a12.382,12.382,0,0,0,12.368,12.368H80.439A12.382,12.382,0,0,0,92.806,98.174V40.937A15.948,15.948,0,0,0,82.34,25.993ZM11.534,40.937a12.25,12.25,0,0,1,.931-4.6H88.341a12.243,12.243,0,0,1,.931,4.6v53.23A10.944,10.944,0,0,1,79.6,99.941H21.2a10.944,10.944,0,0,1-9.668-5.774ZM30.968,6.3a1.769,1.769,0,0,1,1.767-1.767H68.071A1.769,1.769,0,0,1,69.838,6.3V8.067H30.968ZM23.9,13.368A1.769,1.769,0,0,1,25.668,11.6h49.47a1.767,1.767,0,0,1,0,3.534H25.668A1.769,1.769,0,0,1,23.9,13.368ZM19.675,29.311l11.293-4.106V18.668H69.838v6.537l11.293,4.106A12.308,12.308,0,0,1,86.175,32.8H14.631a12.3,12.3,0,0,1,5.044-3.491Zm60.764,77.7H20.368a8.849,8.849,0,0,1-8.654-7.06,14.461,14.461,0,0,0,9.488,3.527H79.6a14.469,14.469,0,0,0,9.489-3.527A8.852,8.852,0,0,1,80.439,107.008Z" transform="translate(-8 -1)"/>
    </g>
  </g>
</svg>
