<svg xmlns="http://www.w3.org/2000/svg" width="610" height="491" viewBox="0 0 610 491">
  <g id="Grupo_1075640" data-name="Grupo 1075640" transform="translate(1958 9155.141)">
    <rect id="Rectángulo_378764" data-name="Rectángulo 378764" width="610" height="491" rx="46" transform="translate(-1958 -9155.141)" fill="#c1e29a"/>
    <g id="Grupo_1075507" data-name="Grupo 1075507" transform="translate(-1901.415 -9206.566)">
      <rect id="Rectángulo_378758" data-name="Rectángulo 378758" width="120.17" height="57.872" transform="translate(187.319 77.362)" fill="none" stroke="#264100" stroke-miterlimit="10" stroke-width="2"/>
      <line id="Línea_1200" data-name="Línea 1200" y1="33.957" transform="translate(245.532 135.234)" fill="none" stroke="#264100" stroke-miterlimit="10" stroke-width="2"/>
      <path id="Rectángulo_378759" data-name="Rectángulo 378759" d="M13.277,0H40.34A13.277,13.277,0,0,1,53.617,13.277V69.7a0,0,0,0,1,0,0H0a0,0,0,0,1,0,0V13.277A13.277,13.277,0,0,1,13.277,0Z" transform="translate(218.979 169.191)" fill="none" stroke="#264100" stroke-miterlimit="10" stroke-width="2.03"/>
      <path id="Rectángulo_378760" data-name="Rectángulo 378760" d="M13.277,0H40.34A13.277,13.277,0,0,1,53.617,13.277V66.468a0,0,0,0,1,0,0H0a0,0,0,0,1,0,0V13.277A13.277,13.277,0,0,1,13.277,0Z" transform="translate(119.404 340.085)" fill="none" stroke="#264100" stroke-miterlimit="10" stroke-width="1.982"/>
      <path id="Rectángulo_378761" data-name="Rectángulo 378761" d="M13.277,0H40.34A13.277,13.277,0,0,1,53.617,13.277V66.468a0,0,0,0,1,0,0H0a0,0,0,0,1,0,0V13.277A13.277,13.277,0,0,1,13.277,0Z" transform="translate(321.617 340.085)" fill="none" stroke="#264100" stroke-miterlimit="10" stroke-width="1.982"/>
      <rect id="Rectángulo_378762" data-name="Rectángulo 378762" width="51.574" height="54.809" transform="translate(120.426 266.298)" fill="none" stroke="#264100" stroke-miterlimit="10" stroke-width="2.03"/>
      <rect id="Rectángulo_378763" data-name="Rectángulo 378763" width="51.574" height="54.809" transform="translate(322.638 266.298)" fill="none" stroke="#264100" stroke-miterlimit="10" stroke-width="2.03"/>
      <circle id="Elipse_5928" data-name="Elipse 5928" cx="28.255" cy="28.255" r="28.255" transform="translate(74.638 436.17)" fill="none" stroke="#264100" stroke-miterlimit="10" stroke-width="1.982"/>
      <ellipse id="Elipse_5929" data-name="Elipse 5929" cx="34.973" cy="28.255" rx="34.973" ry="28.255" transform="translate(270.054 436.17)" fill="none" stroke="#264100" stroke-miterlimit="10" stroke-width="2.205"/>
      <circle id="Elipse_5930" data-name="Elipse 5930" cx="28.255" cy="28.255" r="28.255" transform="translate(366.678 436.17)" fill="none" stroke="#264100" stroke-miterlimit="10" stroke-width="1.982"/>
      <path id="Trazado_828789" data-name="Trazado 828789" d="M213.03,481.951l19.8-13.538-19.8-13.538-19.8-13.538-19.8,13.538-19.8,13.538,19.8,13.538,19.8,13.538Z" fill="none" stroke="#264100" stroke-miterlimit="10" stroke-width="1.982"/>
      <line id="Línea_1201" data-name="Línea 1201" y2="18.979" transform="translate(146.213 321.106)" fill="none" stroke="#264100" stroke-miterlimit="10" stroke-width="2.205"/>
      <line id="Línea_1202" data-name="Línea 1202" y2="18.979" transform="translate(348.426 321.106)" fill="none" stroke="#264100" stroke-miterlimit="10" stroke-width="2.205"/>
      <line id="Línea_1203" data-name="Línea 1203" y2="15.489" transform="translate(245.532 238.894)" fill="none" stroke="#264100" stroke-miterlimit="10" stroke-width="2.205"/>
      <line id="Línea_1204" data-name="Línea 1204" x2="202.213" transform="translate(146.213 254.383)" fill="none" stroke="#264100" stroke-miterlimit="10" stroke-width="2.205"/>
      <line id="Línea_1205" data-name="Línea 1205" y1="12.596" transform="translate(146.213 253.702)" fill="none" stroke="#264100" stroke-miterlimit="10" stroke-width="2.205"/>
      <line id="Línea_1206" data-name="Línea 1206" y1="12.596" transform="translate(348.936 253.702)" fill="none" stroke="#264100" stroke-miterlimit="10" stroke-width="2.205"/>
      <line id="Línea_1207" data-name="Línea 1207" y2="14.426" transform="translate(146.213 407.66)" fill="none" stroke="#264100" stroke-miterlimit="10" stroke-width="2.205"/>
      <line id="Línea_1208" data-name="Línea 1208" y2="14.128" transform="translate(348.426 406.553)" fill="none" stroke="#264100" stroke-miterlimit="10" stroke-width="2.205"/>
      <line id="Línea_1209" data-name="Línea 1209" x2="90.34" transform="translate(102.894 422.085)" fill="none" stroke="#264100" stroke-miterlimit="10" stroke-width="2.205"/>
      <line id="Línea_1210" data-name="Línea 1210" x2="90.933" transform="translate(304 420.681)" fill="none" stroke="#264100" stroke-miterlimit="10" stroke-width="2.205"/>
      <line id="Línea_1211" data-name="Línea 1211" y1="20.553" transform="translate(193.233 421.064)" fill="none" stroke="#264100" stroke-miterlimit="10" stroke-width="2.205"/>
      <line id="Línea_1212" data-name="Línea 1212" y1="16" transform="translate(304 419.66)" fill="none" stroke="#264100" stroke-miterlimit="10" stroke-width="2.205"/>
      <line id="Línea_1213" data-name="Línea 1213" y1="16" transform="translate(394.933 419.66)" fill="none" stroke="#264100" stroke-miterlimit="10" stroke-width="2.205"/>
      <line id="Línea_1214" data-name="Línea 1214" y2="14.745" transform="translate(102.894 421.128)" fill="none" stroke="#264100" stroke-miterlimit="10" stroke-width="2.205"/>
    </g>
    <text id="Accidente_Incidente" data-name="Accidente
Incidente" transform="translate(-1654 -9105.141)" fill="#12263f" font-size="13" font-family="Roboto-Bold, Roboto" font-weight="700"><tspan x="-29.402" y="0">Accidente</tspan><tspan x="-27.174" y="18">Incidente</tspan></text>
    <text id="Causa_principal" data-name="Causa principal" transform="translate(-1654 -8924.141)" fill="#12263f" font-size="13" font-family="Roboto-Bold, Roboto" font-weight="700"><tspan x="-45.195" y="0">Causa principal</tspan></text>
    <text id="Puertas_de_lógica" data-name="Puertas de lógica" transform="translate(-1654 -8847.141)" fill="#12263f" font-size="13" font-family="Roboto-Bold, Roboto" font-weight="700"><tspan x="-51.016" y="0">Puertas de lógica</tspan></text>
    <text id="Eventos" transform="translate(-1654 -8702.141)" fill="#12263f" font-size="13" font-family="Roboto-Bold, Roboto" font-weight="700"><tspan x="-23.09" y="0">Eventos</tspan></text>
  </g>
</svg>
