<svg xmlns="http://www.w3.org/2000/svg" width="149.728" height="148.396" viewBox="0 0 149.728 148.396">
  <g id="Grupo_1075630" data-name="Grupo 1075630" transform="translate(-898.333 -370.001)">
    <path id="Trazado_819131" data-name="Trazado 819131" d="M241.315,360.15a17.313,17.313,0,0,1-8.322-5.053l-29.212-32.05a17.356,17.356,0,0,1-3.7-16.908l13.151-41.324a17.358,17.358,0,0,1,12.792-11.66l42.362-9.272a17.356,17.356,0,0,1,16.493,5.248l29.212,32.05a17.353,17.353,0,0,1,3.7,16.91l-13.148,41.322a17.361,17.361,0,0,1-12.794,11.66l-.067-.309.067.309-42.36,9.272a17.264,17.264,0,0,1-8.174-.2" transform="translate(633.575 236.887) rotate(-18)" fill="#264100"/>
    <g id="Grupo_1073444" data-name="Grupo 1073444" transform="translate(938.316 409.553)">
      <path id="riesgo" d="M72.939,72.129,48.116,29.135a12.5,12.5,0,0,0-21.654,0L1.64,72.129A12.5,12.5,0,0,0,12.467,90.882H62.112A12.5,12.5,0,0,0,72.939,72.129ZM70.918,83.464a10.065,10.065,0,0,1-8.806,5.084H12.467A10.169,10.169,0,0,1,3.661,73.3L28.483,30.3a10.168,10.168,0,0,1,17.612,0L70.918,73.3a10.065,10.065,0,0,1,0,10.169ZM43,32.089a6.593,6.593,0,0,0-11.419,0L6.757,75.083a6.593,6.593,0,0,0,5.71,9.89H62.112a6.593,6.593,0,0,0,5.71-9.89ZM65.8,80.51a4.163,4.163,0,0,1-3.689,2.13H12.467A4.26,4.26,0,0,1,8.778,76.25L33.6,33.256a4.259,4.259,0,0,1,7.377,0L65.8,76.25A4.163,4.163,0,0,1,65.8,80.51ZM33.7,63.034a3.59,3.59,0,0,0,7.175,0l.613-16.96A3.59,3.59,0,0,0,37.9,42.355H36.677a3.59,3.59,0,0,0-3.587,3.719Zm2.071-17.962a1.183,1.183,0,0,1,.9-.384H37.9a1.256,1.256,0,0,1,1.255,1.3l-.613,16.96a1.256,1.256,0,0,1-2.511,0l-.612-16.96A1.183,1.183,0,0,1,35.773,45.072Zm1.517,22.334a4.271,4.271,0,1,0,4.271,4.271A4.276,4.276,0,0,0,37.289,67.406Zm0,6.208a1.937,1.937,0,1,1,1.937-1.937A1.939,1.939,0,0,1,37.289,73.614Z" transform="translate(-3.544 -25.802)" fill="#fff"/>
    </g>
  </g>
</svg>
