<svg xmlns="http://www.w3.org/2000/svg" width="1240" height="643.226" viewBox="0 0 1240 643.226">
  <g id="Grupo_1075635" data-name="Grupo 1075635" transform="translate(-180 -532.226)">
    <line id="Línea_1157" data-name="Línea 1157" y2="206.63" transform="translate(329.047 841.096)" fill="none" stroke="#615504" stroke-miterlimit="10" stroke-width="3"/>
    <line id="Línea_1220" data-name="Línea 1220" y2="155" transform="translate(476.047 903.726)" fill="none" stroke="#615504" stroke-miterlimit="10" stroke-width="3"/>
    <line id="Línea_1226" data-name="Línea 1226" y2="310.259" transform="translate(803.706 845.467)" fill="none" stroke="#615504" stroke-miterlimit="10" stroke-width="3"/>
    <line id="Línea_1233" data-name="Línea 1233" x1="0.212" y2="197.807" transform="translate(1254.988 840.919)" fill="none" stroke="#615504" stroke-miterlimit="10" stroke-width="3"/>
    <line id="Línea_1163" data-name="Línea 1163" y2="33.63" transform="translate(542.988 843.096)" fill="none" stroke="#615504" stroke-miterlimit="10" stroke-width="3"/>
    <line id="Línea_1225" data-name="Línea 1225" y2="33.63" transform="translate(695.501 843.096)" fill="none" stroke="#615504" stroke-miterlimit="10" stroke-width="3"/>
    <line id="Línea_1061" data-name="Línea 1061" y2="34.96" transform="translate(395.488 673.727)" fill="none" stroke="#615504" stroke-miterlimit="10" stroke-width="3"/>
    <line id="Línea_1065" data-name="Línea 1065" y2="34.96" transform="translate(843.988 674.727)" fill="none" stroke="#615504" stroke-miterlimit="10" stroke-width="3"/>
    <line id="Línea_1068" data-name="Línea 1068" y2="34.96" transform="translate(1290.988 673.727)" fill="none" stroke="#615504" stroke-miterlimit="10" stroke-width="3"/>
    <path id="Trazado_816891" data-name="Trazado 816891" d="M447.33,20.8,447.757,0H0V20.8" transform="translate(247.744 781.388)" fill="none" stroke="#615504" stroke-miterlimit="10" stroke-width="3"/>
    <path id="Trazado_824008" data-name="Trazado 824008" d="M264.293,20.8,264.546,0H0V20.8" transform="translate(1088.091 781.388)" fill="none" stroke="#615504" stroke-miterlimit="10" stroke-width="3"/>
    <line id="Línea_1155" data-name="Línea 1155" x1="20" transform="translate(328.988 1047.726)" fill="none" stroke="#615504" stroke-miterlimit="10" stroke-width="3"/>
    <line id="Línea_1222" data-name="Línea 1222" x1="20" transform="translate(475.988 1016.865)" fill="none" stroke="#615504" stroke-miterlimit="10" stroke-width="3"/>
    <line id="Línea_1223" data-name="Línea 1223" x1="20" transform="translate(475.988 1058.865)" fill="none" stroke="#615504" stroke-miterlimit="10" stroke-width="3"/>
    <line id="Línea_1153" data-name="Línea 1153" x1="20.353" transform="translate(187.047 968.88)" fill="none" stroke="#615504" stroke-miterlimit="10" stroke-width="3"/>
    <line id="Línea_1156" data-name="Línea 1156" x1="20.353" transform="translate(328.988 967.88)" fill="none" stroke="#615504" stroke-miterlimit="10" stroke-width="3"/>
    <line id="Línea_1221" data-name="Línea 1221" x1="20.353" transform="translate(475.988 954.88)" fill="none" stroke="#615504" stroke-miterlimit="10" stroke-width="3"/>
    <line id="Línea_1227" data-name="Línea 1227" x1="20.353" transform="translate(803.647 907.837)" fill="none" stroke="#615504" stroke-miterlimit="10" stroke-width="3"/>
    <line id="Línea_1234" data-name="Línea 1234" x1="20.353" transform="translate(1255.142 903.29)" fill="none" stroke="#615504" stroke-miterlimit="10" stroke-width="3"/>
    <line id="Línea_1236" data-name="Línea 1236" x1="20.353" transform="translate(1255.142 992.833)" fill="none" stroke="#615504" stroke-miterlimit="10" stroke-width="3"/>
    <line id="Línea_1228" data-name="Línea 1228" x1="20.353" transform="translate(803.647 952.608)" fill="none" stroke="#615504" stroke-miterlimit="10" stroke-width="3"/>
    <line id="Línea_1235" data-name="Línea 1235" x1="20.353" transform="translate(1255.142 948.062)" fill="none" stroke="#615504" stroke-miterlimit="10" stroke-width="3"/>
    <line id="Línea_1237" data-name="Línea 1237" x1="20.353" transform="translate(1255.142 1037.604)" fill="none" stroke="#615504" stroke-miterlimit="10" stroke-width="3"/>
    <line id="Línea_1230" data-name="Línea 1230" x1="20.353" transform="translate(803.647 1064.637)" fill="none" stroke="#615504" stroke-miterlimit="10" stroke-width="3"/>
    <line id="Línea_1231" data-name="Línea 1231" x1="20.353" transform="translate(803.647 1109.408)" fill="none" stroke="#615504" stroke-miterlimit="10" stroke-width="3"/>
    <line id="Línea_1232" data-name="Línea 1232" x1="20.353" transform="translate(803.647 1154.18)" fill="none" stroke="#615504" stroke-miterlimit="10" stroke-width="3"/>
    <line id="Línea_1229" data-name="Línea 1229" x1="20.353" transform="translate(803.647 997.38)" fill="none" stroke="#615504" stroke-miterlimit="10" stroke-width="3"/>
    <line id="Línea_1154" data-name="Línea 1154" x1="20.353" transform="translate(186.988 888.034)" fill="none" stroke="#615504" stroke-miterlimit="10" stroke-width="3"/>
    <line id="Línea_1158" data-name="Línea 1158" x1="20.353" transform="translate(328.988 888.034)" fill="none" stroke="#615504" stroke-miterlimit="10" stroke-width="3"/>
    <line id="Línea_1050" data-name="Línea 1050" y1="38.459" transform="translate(395.488 763.726)" fill="none" stroke="#615504" stroke-miterlimit="10" stroke-width="3"/>
    <line id="Línea_1224" data-name="Línea 1224" y1="20.459" transform="translate(544.324 781.726)" fill="none" stroke="#615504" stroke-miterlimit="10" stroke-width="3"/>
    <line id="Línea_1182" data-name="Línea 1182" y1="18" transform="translate(1279.286 763.726)" fill="none" stroke="#615504" stroke-miterlimit="10" stroke-width="3"/>
    <line id="Línea_1176" data-name="Línea 1176" y1="77.533" transform="translate(843.988 754.726)" fill="none" stroke="#615504" stroke-miterlimit="10" stroke-width="3"/>
    <path id="Trazado_823446" data-name="Trazado 823446" d="M0,32.72V0" transform="translate(843.988 642.007)" fill="none" stroke="#615504" stroke-width="3"/>
    <line id="Línea_1098" data-name="Línea 1098" y1="28.5" transform="translate(843.988 588.226)" fill="none" stroke="#615504" stroke-miterlimit="10" stroke-width="3"/>
    <path id="Trazado_821551" data-name="Trazado 821551" d="M133.381,284.7H12.621C6.756,284.7,2,280.377,2,275.045V239.572c0-5.332,4.755-9.654,10.62-9.654H133.381c5.865,0,10.62,4.323,10.62,9.654v35.473c0,5.332-4.755,9.654-10.62,9.654" transform="translate(322.487 479.269)" fill="#c1e29a"/>
    <path id="Trazado_824002" data-name="Trazado 824002" d="M133.381,284.7H12.621C6.756,284.7,2,280.377,2,275.045V239.572c0-5.332,4.755-9.654,10.62-9.654H133.381c5.865,0,10.62,4.323,10.62,9.654v35.473c0,5.332-4.755,9.654-10.62,9.654" transform="translate(770.488 480.269)" fill="#c1e29a"/>
    <path id="Trazado_821558" data-name="Trazado 821558" d="M115.66,284.7H11.188A9.43,9.43,0,0,1,2,275.045V239.572a9.43,9.43,0,0,1,9.187-9.654H115.66a9.43,9.43,0,0,1,9.187,9.654v35.473a9.43,9.43,0,0,1-9.187,9.654" transform="translate(1216.224 479.269)" fill="#c1e29a"/>
    <path id="Trazado_823987" data-name="Trazado 823987" d="M95.785,266.626H9.582C5.4,266.626,2,263.73,2,260.157v-23.77c0-3.573,3.394-6.469,7.581-6.469h86.2c4.186,0,7.581,2.9,7.581,6.469v23.77c0,3.573-3.394,6.469-7.581,6.469" transform="translate(338.34 798.96)" fill="#e6e7ee"/>
    <path id="Trazado_828967" data-name="Trazado 828967" d="M126.59,266.626H12.072C6.51,266.626,2,263.73,2,260.157v-23.77c0-3.573,4.509-6.469,10.071-6.469H126.59c5.562,0,10.071,2.9,10.071,6.469v23.77c0,3.573-4.509,6.469-10.071,6.469" transform="translate(485.34 768.1)" fill="#e6e7ee"/>
    <path id="Trazado_828968" data-name="Trazado 828968" d="M126.59,266.626H12.072C6.51,266.626,2,263.73,2,260.157v-23.77c0-3.573,4.509-6.469,10.071-6.469H126.59c5.562,0,10.071,2.9,10.071,6.469v23.77c0,3.573-4.509,6.469-10.071,6.469" transform="translate(485.34 810.1)" fill="#e6e7ee"/>
    <path id="Trazado_821560" data-name="Trazado 821560" d="M102.061,267.918H10.089c-4.467,0-8.088-3-8.088-6.7V236.615c0-3.7,3.621-6.7,8.088-6.7h91.972c4.467,0,8.088,3,8.088,6.7v24.606c0,3.7-3.621,6.7-8.088,6.7" transform="translate(201.34 718.962)" fill="#e6e7ee"/>
    <path id="Trazado_823988" data-name="Trazado 823988" d="M95.785,267.918H9.582c-4.186,0-7.581-3-7.581-6.7V236.615c0-3.7,3.394-6.7,7.581-6.7h86.2c4.186,0,7.581,3,7.581,6.7v24.606c0,3.7-3.394,6.7-7.581,6.7" transform="translate(339.487 718.962)" fill="#e6e7ee"/>
    <path id="Trazado_828972" data-name="Trazado 828972" d="M95.785,267.918H9.582c-4.186,0-7.581-3-7.581-6.7V236.615c0-3.7,3.394-6.7,7.581-6.7h86.2c4.186,0,7.581,3,7.581,6.7v24.606c0,3.7-3.394,6.7-7.581,6.7" transform="translate(821.536 661.19)" fill="#e6e7ee"/>
    <path id="Trazado_828978" data-name="Trazado 828978" d="M95.785,267.918H9.582c-4.186,0-7.581-3-7.581-6.7V236.615c0-3.7,3.394-6.7,7.581-6.7h86.2c4.186,0,7.581,3,7.581,6.7v24.606c0,3.7-3.394,6.7-7.581,6.7" transform="translate(1273.03 656.644)" fill="#e6e7ee"/>
    <path id="Trazado_828981" data-name="Trazado 828981" d="M95.785,267.918H9.582c-4.186,0-7.581-3-7.581-6.7V236.615c0-3.7,3.394-6.7,7.581-6.7h86.2c4.186,0,7.581,3,7.581,6.7v24.606c0,3.7-3.394,6.7-7.581,6.7" transform="translate(1273.03 746.187)" fill="#e6e7ee"/>
    <path id="Trazado_828973" data-name="Trazado 828973" d="M95.785,267.918H9.582c-4.186,0-7.581-3-7.581-6.7V236.615c0-3.7,3.394-6.7,7.581-6.7h86.2c4.186,0,7.581,3,7.581,6.7v24.606c0,3.7-3.394,6.7-7.581,6.7" transform="translate(821.536 705.962)" fill="#e6e7ee"/>
    <path id="Trazado_828979" data-name="Trazado 828979" d="M95.785,267.918H9.582c-4.186,0-7.581-3-7.581-6.7V236.615c0-3.7,3.394-6.7,7.581-6.7h86.2c4.186,0,7.581,3,7.581,6.7v24.606c0,3.7-3.394,6.7-7.581,6.7" transform="translate(1273.03 701.415)" fill="#e6e7ee"/>
    <path id="Trazado_828980" data-name="Trazado 828980" d="M95.785,267.918H9.582c-4.186,0-7.581-3-7.581-6.7V236.615c0-3.7,3.394-6.7,7.581-6.7h86.2c4.186,0,7.581,3,7.581,6.7v24.606c0,3.7-3.394,6.7-7.581,6.7" transform="translate(1273.03 790.958)" fill="#e6e7ee"/>
    <path id="Trazado_828975" data-name="Trazado 828975" d="M95.785,267.918H9.582c-4.186,0-7.581-3-7.581-6.7V236.615c0-3.7,3.394-6.7,7.581-6.7h86.2c4.186,0,7.581,3,7.581,6.7v24.606c0,3.7-3.394,6.7-7.581,6.7" transform="translate(821.536 817.99)" fill="#e6e7ee"/>
    <path id="Trazado_828976" data-name="Trazado 828976" d="M95.785,267.918H9.582c-4.186,0-7.581-3-7.581-6.7V236.615c0-3.7,3.394-6.7,7.581-6.7h86.2c4.186,0,7.581,3,7.581,6.7v24.606c0,3.7-3.394,6.7-7.581,6.7" transform="translate(821.536 862.762)" fill="#e6e7ee"/>
    <path id="Trazado_828977" data-name="Trazado 828977" d="M95.785,267.918H9.582c-4.186,0-7.581-3-7.581-6.7V236.615c0-3.7,3.394-6.7,7.581-6.7h86.2c4.186,0,7.581,3,7.581,6.7v24.606c0,3.7-3.394,6.7-7.581,6.7" transform="translate(821.536 907.533)" fill="#e6e7ee"/>
    <path id="Trazado_828974" data-name="Trazado 828974" d="M95.785,289.284H9.582C5.4,289.284,2,284.6,2,278.822V240.38C2,234.6,5.4,229.918,9.582,229.918h86.2c4.186,0,7.581,4.684,7.581,10.462v38.442c0,5.778-3.394,10.462-7.581,10.462" transform="translate(821.536 750.733)" fill="#e6e7ee"/>
    <path id="Trazado_828966" data-name="Trazado 828966" d="M126.589,286.922H12.072A10.058,10.058,0,0,1,2,276.876V239.964a10.059,10.059,0,0,1,10.071-10.046H126.589a10.059,10.059,0,0,1,10.071,10.046v36.912a10.058,10.058,0,0,1-10.071,10.046" transform="translate(486.487 705.962)" fill="#e6e7ee"/>
    <path id="Trazado_821561" data-name="Trazado 821561" d="M102.061,273.426H10.089A7.886,7.886,0,0,1,2,265.758V237.585a7.886,7.886,0,0,1,8.088-7.667h91.972a7.886,7.886,0,0,1,8.088,7.667v28.173a7.886,7.886,0,0,1-8.088,7.667" transform="translate(201.34 634.827)" fill="#e6e7ee"/>
    <path id="Trazado_823989" data-name="Trazado 823989" d="M95.785,273.426H9.582A7.625,7.625,0,0,1,2,265.758V237.585a7.625,7.625,0,0,1,7.581-7.667h86.2a7.625,7.625,0,0,1,7.581,7.667v28.173a7.625,7.625,0,0,1-7.581,7.667" transform="translate(339.487 634.827)" fill="#e6e7ee"/>
    <path id="Trazado_828965" data-name="Trazado 828965" d="M157.74,288.328H14.589C7.637,288.328,2,283.719,2,278.034V240.212c0-5.685,5.636-10.294,12.588-10.294H157.74c6.952,0,12.588,4.609,12.588,10.294v37.823c0,5.685-5.636,10.294-12.588,10.294" transform="translate(458.159 631.985)" fill="#e6e7ee"/>
    <path id="Trazado_828970" data-name="Trazado 828970" d="M120.428,288.328H11.573C6.287,288.328,2,283.719,2,278.034V240.212c0-5.685,4.286-10.294,9.572-10.294H120.428c5.287,0,9.572,4.609,9.572,10.294v37.823c0,5.685-4.286,10.294-9.572,10.294" transform="translate(635.488 631.985)" fill="#e6e7ee"/>
    <path id="Trazado_819207" data-name="Trazado 819207" d="M127.357,276.455H12.134c-5.6,0-10.133-3.672-10.133-8.2V238.119c0-4.529,4.537-8.2,10.133-8.2H127.357c5.6,0,10.133,3.672,10.133,8.2v30.135c0,4.529-4.537,8.2-10.133,8.2" transform="translate(177.999 568.865)" fill="#b5ffed"/>
    <path id="Trazado_824009" data-name="Trazado 824009" d="M165.007,289.143H15.177C7.9,289.143,2,284.469,2,278.705v-38.35c0-5.764,5.9-10.437,13.176-10.437h149.83c7.277,0,13.176,4.673,13.176,10.437v38.35c0,5.764-5.9,10.437-13.176,10.437" transform="translate(997.999 568.865)" fill="#b5ffed"/>
    <path id="Trazado_819208" data-name="Trazado 819208" d="M120.628,275.661H11.59c-5.3,0-9.589-3.609-9.589-8.061v-29.62c0-4.452,4.293-8.061,9.589-8.061H120.628c5.3,0,9.589,3.609,9.589,8.061V267.6c0,4.452-4.293,8.061-9.589,8.061" transform="translate(319.127 569.806)" fill="#b5ffed"/>
    <path id="Trazado_823447" data-name="Trazado 823447" d="M161.138,275.661H14.864C7.76,275.661,2,272.052,2,267.6v-29.62c0-4.452,5.759-8.061,12.863-8.061H161.138c7.1,0,12.863,3.609,12.863,8.061V267.6c0,4.452-5.759,8.061-12.863,8.061" transform="translate(454.487 569.806)" fill="#b5ffed"/>
    <path id="Trazado_828969" data-name="Trazado 828969" d="M103.436,275.661H10.2A8.131,8.131,0,0,1,2,267.6v-29.62a8.131,8.131,0,0,1,8.2-8.061h93.236a8.131,8.131,0,0,1,8.2,8.061V267.6a8.131,8.131,0,0,1-8.2,8.061" transform="translate(635.487 569.806)" fill="#b5ffed"/>
    <path id="Trazado_828971" data-name="Trazado 828971" d="M109.042,275.661H10.653C5.875,275.661,2,272.052,2,267.6v-29.62c0-4.452,3.874-8.061,8.652-8.061h98.389c4.778,0,8.652,3.609,8.652,8.061V267.6c0,4.452-3.874,8.061-8.652,8.061" transform="translate(783.642 582.134)" fill="#b5ffed"/>
    <path id="Trazado_824006" data-name="Trazado 824006" d="M177.792,275.661H16.21C8.363,275.661,2,272.052,2,267.6v-29.62c0-4.452,6.362-8.061,14.209-8.061H177.792c7.847,0,14.209,3.609,14.209,8.061V267.6c0,4.452-6.362,8.061-14.209,8.061" transform="translate(1227.999 569.806)" fill="#b5ffed"/>
    <text id="Descripción" transform="translate(395.488 741.187)" font-size="16" font-family="Roboto-Bold, Roboto" font-weight="700"><tspan x="-42.648" y="0">Descripción</tspan></text>
    <text id="Identificación" transform="translate(843.488 742.187)" font-size="16" font-family="Roboto-Bold, Roboto" font-weight="700"><tspan x="-49.094" y="0">Identificación</tspan></text>
    <text id="Interpretación" transform="translate(1279.113 742.077)" font-size="16" font-family="Roboto-Bold, Roboto" font-weight="700"><tspan x="-50.719" y="0">Interpretación</tspan></text>
    <text id="Sivigila" transform="translate(386.236 1051.769)" font-size="16" font-family="Roboto-Bold, Roboto" font-weight="700"><tspan x="-26.301" y="0">Sivigila</tspan></text>
    <text id="Fase_2:_Análisis" data-name="Fase 2: Análisis" transform="translate(555.488 1020.908)" font-size="16" font-family="Roboto-Bold, Roboto" font-weight="700"><tspan x="-56.363" y="0">Fase 2: Análisis</tspan></text>
    <text id="Fase_3:_Solución" data-name="Fase 3: Solución" transform="translate(555.488 1062.908)" font-size="16" font-family="Roboto-Bold, Roboto" font-weight="700"><tspan x="-59.145" y="0">Fase 3: Solución</tspan></text>
    <text id="Antrópicos" transform="translate(257.342 975.917)" font-size="16" font-family="Roboto-Bold, Roboto" font-weight="700"><tspan x="-39.113" y="0">Antrópicos</tspan></text>
    <text id="Massaes" transform="translate(393.693 973.38)" font-size="16" font-family="Roboto-Bold, Roboto" font-weight="700"><tspan x="-32.25" y="0">Massaes</tspan></text>
    <text id="AMFE" transform="translate(875.742 915.608)" font-size="16" font-family="Roboto-Bold, Roboto" font-weight="700"><tspan x="-21.273" y="0">AMFE</tspan></text>
    <text id="Bióticos" transform="translate(1327.236 911.062)" font-size="16" font-family="Roboto-Bold, Roboto" font-weight="700"><tspan x="-29.383" y="0">Bióticos</tspan></text>
    <text id="Físicos" transform="translate(1327.236 1000.604)" font-size="16" font-family="Roboto-Bold, Roboto" font-weight="700"><tspan x="-25.617" y="0">Físicos</tspan></text>
    <text id="FTA" transform="translate(875.742 960.38)" font-size="16" font-family="Roboto-Bold, Roboto" font-weight="700"><tspan x="-14.324" y="0">FTA</tspan></text>
    <text id="Abióticos" transform="translate(1327.236 955.833)" font-size="16" font-family="Roboto-Bold, Roboto" font-weight="700"><tspan x="-34.164" y="0">Abióticos</tspan></text>
    <text id="Químicos" transform="translate(1327.236 1045.376)" font-size="16" font-family="Roboto-Bold, Roboto" font-weight="700"><tspan x="-34.047" y="0">Químicos</tspan></text>
    <text id="AFO" transform="translate(875.742 1072.408)" font-size="16" font-family="Roboto-Bold, Roboto" font-weight="700"><tspan x="-15.289" y="0">AFO</tspan></text>
    <text id="LOPA" transform="translate(875.742 1117.18)" font-size="16" font-family="Roboto-Bold, Roboto" font-weight="700"><tspan x="-19.453" y="0">LOPA</tspan></text>
    <text id="Ishikawa" transform="translate(875.742 1161.951)" font-size="16" font-family="Roboto-Bold, Roboto" font-weight="700"><tspan x="-31.773" y="0">Ishikawa</tspan></text>
    <text id="Lista_de_chequeo" data-name="Lista de
chequeo" transform="translate(875.742 1005.151)" font-size="16" font-family="Roboto-Bold, Roboto" font-weight="700"><tspan x="-28.383" y="0">Lista de</tspan><tspan x="-30.816" y="19">chequeo</tspan></text>
    <text id="Fase_1:_Identificación" data-name="Fase 1:
Identificación" transform="translate(555.488 960.38)" font-size="16" font-family="Roboto-Bold, Roboto" font-weight="700"><tspan x="-25.816" y="0">Fase 1:</tspan><tspan x="-49.094" y="19">Identificación</tspan></text>
    <text id="Naturales" transform="translate(257.342 890.917)" font-size="16" font-family="Roboto-Bold, Roboto" font-weight="700"><tspan x="-34.766" y="0">Naturales</tspan></text>
    <text id="Sataes" transform="translate(385.236 890.917)" font-size="16" font-family="Roboto-Bold, Roboto" font-weight="700"><tspan x="-24.637" y="0">Sataes</tspan></text>
    <text id="Matriz_de_evaluación_de_riesgos" data-name="Matriz de evaluación
de riesgos" transform="translate(542.658 888.075)" font-size="16" font-family="Roboto-Bold, Roboto" font-weight="700"><tspan x="-74.656" y="0">Matriz de evaluación</tspan><tspan x="-37.504" y="19">de riesgos</tspan></text>
    <text id="Organización_en_el_progreso" data-name="Organización
en el progreso" transform="translate(707 888.075)" font-size="16" font-family="Roboto-Bold, Roboto" font-weight="700"><tspan x="-47.48" y="0">Organización</tspan><tspan x="-51.41" y="19">en el progreso</tspan></text>
    <text id="Teniendo_en_cuenta" data-name="Teniendo en cuenta" transform="translate(843.488 632.726)" font-size="16" font-family="Roboto-Bold, Roboto" font-weight="700"><tspan x="-70.598" y="0">Teniendo en cuenta</tspan></text>
    <text id="Según" transform="translate(518 742.25)" font-size="16" font-family="Roboto-Bold, Roboto" font-weight="700"><tspan x="-22.766" y="0">Según</tspan></text>
    <text id="Mediante" transform="translate(892.488 793.25)" font-size="16" font-family="Roboto-Bold, Roboto" font-weight="700"><tspan x="-33.758" y="0">Mediante</tspan></text>
    <text id="Tales_como" data-name="Tales como" transform="translate(858 881.108)" font-size="16" font-family="Roboto-Bold, Roboto" font-weight="700"><tspan x="-41.277" y="0">Tales como</tspan></text>
    <text id="Tales_como-2" data-name="Tales como" transform="translate(1309.494 876.562)" font-size="16" font-family="Roboto-Bold, Roboto" font-weight="700"><tspan x="-41.277" y="0">Tales como</tspan></text>
    <text id="Fuentes_de_información" data-name="Fuentes de
información" transform="translate(249 818.595)" font-size="16" font-family="Roboto-Bold, Roboto" font-weight="700"><tspan x="-39.543" y="0">Fuentes de</tspan><tspan x="-43.422" y="19">información</tspan></text>
    <text id="Sistema_de_vigilancia_y_salud_pública" data-name="Sistema de vigilancia
y salud pública" transform="translate(1088 826.547)" font-size="16" font-family="Roboto-Bold, Roboto" font-weight="700"><tspan x="-76.535" y="0">Sistema de vigilancia</tspan><tspan x="-53.695" y="19">y salud pública</tspan></text>
    <text id="Instrumentos" transform="translate(383.488 826.547)" font-size="16" font-family="Roboto-Bold, Roboto" font-weight="700"><tspan x="-47.977" y="0">Instrumentos</tspan></text>
    <text id="Diagrama" transform="translate(542.488 827.052)" font-size="16" font-family="Roboto-Bold, Roboto" font-weight="700"><tspan x="-34.48" y="0">Diagrama</tspan></text>
    <text id="Gestión" transform="translate(695.488 827.052)" font-size="16" font-family="Roboto-Bold, Roboto" font-weight="700"><tspan x="-27.715" y="0">Gestión</tspan></text>
    <text id="Metodologías" transform="translate(846 839.38)" font-size="16" font-family="Roboto-Bold, Roboto" font-weight="700"><tspan x="-49.277" y="0">Metodologías</tspan></text>
    <text id="Factores_ambientales" data-name="Factores ambientales" transform="translate(1322.488 827.052)" font-size="16" font-family="Roboto-Bold, Roboto" font-weight="700"><tspan x="-77.289" y="0">Factores ambientales</tspan></text>
    <g id="Grupo_1075629" data-name="Grupo 1075629" transform="translate(0 -51.406)">
      <rect id="Rectángulo_377695" data-name="Rectángulo 377695" width="623" height="56" rx="15" transform="translate(534.488 583.632)" fill="#ffae7e"/>
      <text id="Caracterización_de_peligros_y_riesgos_asociados_a_factores_ambientales" data-name="Caracterización de peligros y riesgos asociados a factores ambientales" transform="translate(843.488 617.632)" font-size="18" font-family="Roboto-Bold, Roboto" font-weight="700"><tspan x="-287.864" y="0">Caracterización de peligros y riesgos asociados a factores ambientales</tspan></text>
    </g>
    <path id="Trazado_821550" data-name="Trazado 821550" d="M-12470.488-9506h895.5" transform="translate(12866.477 10179.727)" fill="none" stroke="#615504" stroke-width="2"/>
  </g>
</svg>
